<svg 
xmlns="http://www.w3.org/2000/svg" x="0px" y="0px"
width="48" height="48"
viewBox="0 0 64 64"
style=" fill:#000000;">
<linearGradient id="jm_nAfYbxsVmTlYr5N4x9a_43625_gr1"
 x1="32" x2="32" y1="6.667" y2="57.872" 
 gradientUnits="userSpaceOnUse" spreadMethod="reflect">
 <stop offset="0" stop-color="#1a6dff"></stop><stop offset="1" 
 stop-color="#c822ff"></stop></linearGradient>
 <path fill="url(#jm_nAfYbxsVmTlYr5N4x9a_43625_gr1)" 
 d="M44,57H20c-7.168,0-13-5.832-13-13V20c0-7.168,5.832-13,13-13h24c7.168,0,13,5.832,13,13v24 C57,51.168,51.168,57,44,57z M20,9C13.935,9,9,13.935,9,20v24c0,6.065,4.935,11,11,11h24c6.065,0,11-4.935,11-11V20 c0-6.065-4.935-11-11-11H20z"></path><linearGradient id="jm_nAfYbxsVmTlYr5N4x9b_43625_gr2" x1="32" x2="32" y1="18.167" y2="45.679" gradientUnits="userSpaceOnUse" spreadMethod="reflect"><stop offset="0" stop-color="#6dc7ff"></stop><stop offset="1" stop-color="#e6abff"></stop></linearGradient><path fill="url(#jm_nAfYbxsVmTlYr5N4x9b_43625_gr2)" d="M32,45c-7.168,0-13-5.832-13-13c0-7.168,5.832-13,13-13c7.168,0,13,5.832,13,13 C45,39.168,39.168,45,32,45z M32,23c-4.962,0-9,4.038-9,9c0,4.963,4.038,9,9,9c4.963,0,9-4.037,9-9C41,27.038,36.963,23,32,23z"></path><linearGradient id="jm_nAfYbxsVmTlYr5N4x9c_43625_gr3" x1="46" x2="46" y1="12.75" y2="23.049" gradientUnits="userSpaceOnUse" spreadMethod="reflect"><stop offset="0" stop-color="#6dc7ff"></stop><stop offset="1" stop-color="#e6abff"></stop></linearGradient><path fill="url(#jm_nAfYbxsVmTlYr5N4x9c_43625_gr3)" d="M46 15A3 3 0 1 0 46 21A3 3 0 1 0 46 15Z"></path></svg>