<svg xmlns="http://www.w3.org/2000/svg" x="0px" y="0px"
width="64" height="64"
viewBox="0 0 64 64"
style=" fill:#000000;"><linearGradient id="SUJNhpmDQDF27Y3OfwgfYa_44019_gr1" x1="19" x2="19" y1="24.858" y2="49.041" gradientUnits="userSpaceOnUse" spreadMethod="reflect"><stop offset="0" stop-color="#6dc7ff"></stop><stop offset="1" stop-color="#e6abff"></stop></linearGradient><path fill="url(#SUJNhpmDQDF27Y3OfwgfYa_44019_gr1)" fill-rule="evenodd" d="M22 48L22 26 16 26 16 48 22 48z" clip-rule="evenodd"></path><linearGradient id="SUJNhpmDQDF27Y3OfwgfYb_44019_gr2" x1="19.382" x2="19.382" y1="15.423" y2="23.341" gradientUnits="userSpaceOnUse" spreadMethod="reflect"><stop offset="0" stop-color="#6dc7ff"></stop><stop offset="1" stop-color="#e6abff"></stop></linearGradient><path fill="url(#SUJNhpmDQDF27Y3OfwgfYb_44019_gr2)" fill-rule="evenodd" d="M19.358,23c2.512,0,4.076-1.474,4.076-3.554 c-0.047-2.126-1.564-3.649-4.028-3.649c-2.465,0-4.076,1.475-4.076,3.601c0,2.08,1.563,3.602,3.981,3.602H19.358L19.358,23z" clip-rule="evenodd"></path><linearGradient id="SUJNhpmDQDF27Y3OfwgfYc_44019_gr3" x1="37.386" x2="37.386" y1="14.125" y2="49.525" gradientUnits="userSpaceOnUse" spreadMethod="reflect"><stop offset="0" stop-color="#6dc7ff"></stop><stop offset="1" stop-color="#e6abff"></stop></linearGradient><path fill="url(#SUJNhpmDQDF27Y3OfwgfYc_44019_gr3)" fill-rule="evenodd" d="M26.946,48H34V35.911c0-0.648,0.122-1.295,0.313-1.758 c0.52-1.295,1.877-2.635,3.867-2.635c2.607,0,3.821,1.988,3.821,4.901V48h6V35.588c0-6.657-3.085-9.498-7.826-9.498 c-3.886,0-5.124,1.91-6.072,3.91H34v-4h-7.054c0.095,2-0.175,22-0.175,22H26.946z" clip-rule="evenodd"></path><linearGradient id="SUJNhpmDQDF27Y3OfwgfYd_44019_gr4" x1="32" x2="32" y1="6.5" y2="57.5" gradientUnits="userSpaceOnUse" spreadMethod="reflect"><stop offset="0" stop-color="#1a6dff"></stop><stop offset="1" stop-color="#c822ff"></stop></linearGradient><path fill="url(#SUJNhpmDQDF27Y3OfwgfYd_44019_gr4)" d="M50,57H14c-3.859,0-7-3.141-7-7V14c0-3.859,3.141-7,7-7h36c3.859,0,7,3.141,7,7v36 C57,53.859,53.859,57,50,57z M14,9c-2.757,0-5,2.243-5,5v36c0,2.757,2.243,5,5,5h36c2.757,0,5-2.243,5-5V14c0-2.757-2.243-5-5-5H14z"></path></svg>