<?xml version="1.0"?><svg fill="#fa314a" xmlns="http://www.w3.org/2000/svg"  viewBox="0 0 100 100" width="100px" height="100px">    <path d="M 50 15 C 48.108 15 46.209375 15.151125 44.359375 15.453125 C 43.304375 15.625125 42.380859 16.197453 41.755859 17.064453 C 41.131859 17.930453 40.881734 18.987969 41.052734 20.042969 C 41.405734 22.217969 43.467625 23.695609 45.640625 23.349609 L 45.642578 23.349609 C 47.069578 23.116609 48.536 23 50 23 C 56.712 23 63.194906 25.526 68.128906 30 L 67 30 C 64.794 30 63 31.794 63 34 C 63 36.206 64.794 38 67 38 L 78 38 C 80.206 38 82 36.206 82 34 L 82 23 C 82 20.794 80.206 19 78 19 C 75.794 19 74 20.794 74 23 L 74 24.535156 C 67.545 18.448156 58.93 15 50 15 z M 50 17 C 59.199 17 68.043672 20.880484 74.263672 27.646484 C 74.543672 27.950484 74.979281 28.052344 75.363281 27.902344 C 75.747281 27.752344 76 27.382703 76 26.970703 L 76 23 C 76 21.897 76.897 21 78 21 C 79.103 21 80 21.897 80 23 L 80 34 C 80 35.103 79.103 36 78 36 L 67 36 C 65.897 36 65 35.103 65 34 C 65 32.897 65.897 32 67 32 L 70.556641 32 C 70.953641 32 71.312656 31.764391 71.472656 31.400391 C 71.631656 31.036391 71.561969 30.614266 71.292969 30.322266 C 65.827969 24.397266 58.066 21 50 21 C 48.429 21 46.854266 21.126 45.322266 21.375 C 44.230266 21.554 43.203344 20.809656 43.027344 19.722656 C 42.941344 19.195656 43.066906 18.666422 43.378906 18.232422 C 43.690906 17.798422 44.152687 17.512734 44.679688 17.427734 C 46.424687 17.143734 48.215 17 50 17 z M 23 18 C 20.794 18 19 19.794 19 22 C 19 24.206 20.794 26 23 26 L 24.529297 26 C 19.602297 31.231 16.370516 37.895813 15.353516 45.007812 C 15.118516 46.650813 15 48.33 15 50 C 15 51.669 15.119516 53.349188 15.353516 54.992188 C 15.385516 55.212188 15.417125 55.433391 15.453125 55.650391 C 15.773125 57.592391 17.431484 59 19.396484 59 C 19.612484 59 19.833734 58.983312 20.052734 58.945312 C 21.106734 58.771312 22.029344 58.197125 22.652344 57.328125 C 23.275344 56.460125 23.521656 55.402609 23.347656 54.349609 L 23.273438 53.865234 C 23.092438 52.589234 23 51.288 23 50 C 23 48.712 23.092437 47.412672 23.273438 46.138672 C 24.032437 40.830672 26.396 35.843187 30 31.867188 L 30 33 C 30 35.206 31.794 37 34 37 C 36.206 37 38 35.206 38 33 L 38 22 C 38 19.794 36.206 18 34 18 L 23 18 z M 23 20 L 34 20 C 35.103 20 36 20.897 36 22 L 36 33 C 36 34.103 35.103 35 34 35 C 32.897 35 32 34.103 32 33 L 32 29.439453 C 32 29.042453 31.764391 28.683437 31.400391 28.523438 C 31.037391 28.364437 30.612313 28.435078 30.320312 28.705078 C 25.435313 33.217078 22.229969 39.308469 21.292969 45.855469 C 21.098969 47.223469 21 48.617 21 50 C 21 51.382 21.098969 52.776438 21.292969 54.148438 L 21.373047 54.673828 C 21.460047 55.199828 21.336391 55.730063 21.025391 56.164062 C 20.714391 56.599062 20.253563 56.885656 19.726562 56.972656 L 19.724609 56.972656 C 18.619609 57.149656 17.605734 56.403219 17.427734 55.324219 C 17.394734 55.121219 17.361031 54.916938 17.332031 54.710938 C 17.111031 53.159938 17 51.575 17 50 C 17 48.425 17.111031 46.840016 17.332031 45.291016 C 18.401031 37.820016 22.062625 30.876328 27.640625 25.736328 C 27.943625 25.456328 28.044531 25.019719 27.894531 24.636719 C 27.744531 24.252719 27.374891 24 26.962891 24 L 23 24 C 21.897 24 21 23.103 21 22 C 21 20.897 21.897 20 23 20 z M 49.453125 25.005859 C 48.784924 25.019871 48.116719 25.060781 47.449219 25.128906 C 47.174219 25.155906 46.973953 25.401781 47.001953 25.675781 C 47.029953 25.949781 47.271781 26.156047 47.550781 26.123047 C 52.678781 25.611047 57.881344 26.751047 62.277344 29.373047 C 62.357344 29.421047 62.445203 29.443359 62.533203 29.443359 C 62.703203 29.443359 62.869891 29.357172 62.962891 29.201172 C 63.103891 28.963172 63.024109 28.657625 62.787109 28.515625 C 58.780484 26.126 54.130533 24.907777 49.453125 25.005859 z M 29.597656 36.076172 C 29.406313 36.041437 29.203844 36.119719 29.089844 36.292969 C 28.864844 36.636969 28.6465 36.987797 28.4375 37.341797 C 28.2985 37.580797 28.377234 37.885391 28.615234 38.025391 C 28.695234 38.072391 28.781188 38.095703 28.867188 38.095703 C 29.038188 38.095703 29.205828 38.006656 29.298828 37.847656 C 29.498828 37.506656 29.708781 37.171797 29.925781 36.841797 C 30.076781 36.611797 30.01225 36.299438 29.78125 36.148438 C 29.72375 36.110937 29.661437 36.08775 29.597656 36.076172 z M 27.441406 39.929688 C 27.247016 39.929125 27.060266 40.045078 26.978516 40.236328 C 25.665516 43.327328 25 46.612 25 50 C 25 50.276 25.224 50.5 25.5 50.5 C 25.776 50.5 26 50.276 26 50 C 26 46.747 26.639391 43.594953 27.900391 40.626953 C 28.008391 40.372953 27.888766 40.077703 27.634766 39.970703 C 27.571766 39.943453 27.506203 39.929875 27.441406 39.929688 z M 80.742188 41.001953 C 80.481719 40.992938 80.219281 41.010234 79.957031 41.052734 C 77.780031 41.406734 76.296391 43.465578 76.650391 45.642578 C 76.883391 47.069578 77 48.536 77 50 C 77 57.274 74.109 64.149547 69 69.185547 L 69 68 C 69 65.794 67.206 64 65 64 C 62.794 64 61 65.794 61 68 L 61 79 C 61 81.206 62.794 83 65 83 L 76 83 C 78.206 83 80 81.206 80 79 C 80 76.794 78.206 75 76 75 L 74.496094 75 C 81.202094 68.461 85 59.489 85 50 C 85 48.107 84.847875 46.209422 84.546875 44.357422 C 84.374875 43.303422 83.804547 42.378906 82.935547 41.753906 C 82.283797 41.285156 81.523594 41.029 80.742188 41.001953 z M 80.669922 42.998047 C 81.059875 43.01075 81.439375 43.142203 81.765625 43.376953 C 82.199625 43.689953 82.487266 44.153687 82.572266 44.679688 C 82.856266 46.425688 83 48.215 83 50 C 83 59.782 78.720812 68.979375 71.257812 75.234375 C 70.935812 75.504375 70.815938 75.945797 70.960938 76.341797 C 71.103937 76.736797 71.479391 77 71.900391 77 L 76 77 C 77.103 77 78 77.897 78 79 C 78 80.103 77.103 81 76 81 L 65 81 C 63.897 81 63 80.103 63 79 L 63 68 C 63 66.897 63.897 66 65 66 C 66.103 66 67 66.897 67 68 L 67 71.441406 C 67 71.830406 67.224172 72.184609 67.576172 72.349609 C 67.929172 72.512609 68.343578 72.459937 68.642578 72.210938 C 75.225578 66.710938 79 58.614 79 50 C 79 48.429 78.874 46.853312 78.625 45.320312 C 78.448 44.231313 79.188344 43.202391 80.277344 43.025391 C 80.407844 43.002891 80.539938 42.993812 80.669922 42.998047 z M 74.5 49.5 C 74.224 49.5 74 49.724 74 50 C 74 50.491 73.984078 50.978891 73.955078 51.462891 C 73.939078 51.737891 74.149781 51.975187 74.425781 51.992188 C 74.434781 51.993188 74.445078 51.992188 74.455078 51.992188 C 74.718078 51.992187 74.937125 51.789437 74.953125 51.523438 C 74.984125 51.020437 75 50.513 75 50 C 75 49.724 74.776 49.5 74.5 49.5 z M 74.316406 53.058594 C 74.045406 53.023594 73.787047 53.206469 73.748047 53.480469 C 73.230047 57.051469 71.944781 60.383812 69.925781 63.382812 C 69.771781 63.611812 69.8335 63.922172 70.0625 64.076172 C 70.1485 64.134172 70.244797 64.160156 70.341797 64.160156 C 70.501797 64.160156 70.658859 64.083453 70.755859 63.939453 C 72.857859 60.814453 74.197281 57.345 74.738281 53.625 C 74.777281 53.352 74.588406 53.098594 74.316406 53.058594 z M 22 62 C 19.794 62 18 63.794 18 66 L 18 77 C 18 79.206 19.794 81 22 81 C 24.206 81 26 79.206 26 77 L 26 75.460938 C 32.458 81.549938 41.074 85 50 85 C 51.506 85 53.022719 84.902938 54.511719 84.710938 C 56.698719 84.428938 58.24975 82.420422 57.96875 80.232422 C 57.68675 78.050422 55.664234 76.503391 53.490234 76.775391 L 53.488281 76.775391 C 52.339281 76.924391 51.165 77 50 77 C 43.293 77 36.809047 74.474 31.873047 70 L 33 70 C 35.206 70 37 68.206 37 66 C 37 63.794 35.206 62 33 62 L 22 62 z M 22 64 L 33 64 C 34.103 64 35 64.897 35 66 C 35 67.103 34.103 68 33 68 L 29.445312 68 C 29.048312 68 28.688297 68.235609 28.529297 68.599609 C 28.370297 68.963609 28.440938 69.387687 28.710938 69.679688 C 34.179937 75.603688 41.938 79 50 79 C 51.25 79 52.509187 78.920719 53.742188 78.761719 C 54.842188 78.620719 55.843375 79.396281 55.984375 80.488281 C 56.125375 81.581281 55.349859 82.587516 54.255859 82.728516 C 52.852859 82.908516 51.421 83 50 83 C 40.805 83 31.961328 79.118609 25.736328 72.349609 C 25.543328 72.139609 25.274 72.025391 25 72.025391 C 24.878 72.025391 24.754719 72.04875 24.636719 72.09375 C 24.252719 72.24375 24 72.613391 24 73.025391 L 24 77 C 24 78.103 23.103 79 22 79 C 20.897 79 20 78.103 20 77 L 20 66 C 20 64.897 20.897 64 22 64 z M 37.628906 70.617188 C 37.435453 70.5915 37.237813 70.680875 37.132812 70.859375 C 36.992813 71.097375 37.072547 71.403922 37.310547 71.544922 C 37.961547 71.927922 38.639172 72.288281 39.326172 72.613281 C 39.394172 72.645281 39.467062 72.660156 39.539062 72.660156 C 39.726062 72.660156 39.905187 72.555047 39.992188 72.373047 C 40.110188 72.124047 40.003906 71.825031 39.753906 71.707031 C 39.094906 71.396031 38.443359 71.050641 37.818359 70.681641 C 37.758609 70.646641 37.693391 70.62575 37.628906 70.617188 z M 42.449219 72.830078 C 42.255391 72.846906 42.081328 72.978531 42.017578 73.175781 C 41.932578 73.438781 42.076844 73.720687 42.339844 73.804688 C 44.806844 74.598688 47.385 75 50 75 C 50.276 75 50.5 74.776 50.5 74.5 C 50.5 74.224 50.276 74 50 74 C 47.489 74 45.014484 73.614516 42.646484 72.853516 C 42.580984 72.832016 42.513828 72.824469 42.449219 72.830078 z"/></svg>