<?xml version="1.0" encoding="UTF-8"?>
<svg xmlns="http://www.w3.org/2000/svg" xmlns:xlink="http://www.w3.org/1999/xlink" viewBox="0 0 48 48" width="48px" height="48px">
<g id="surface5069999">
<path style=" stroke:none;fill-rule:nonzero;fill:rgb(80.000001%,80.000001%,80.000001%);fill-opacity:1;" d="M 42.992188 9.132812 C 42.992188 9.589844 42.710938 10.011719 42.277344 10.167969 C 38.617188 11.472656 33 16.269531 33 24 C 33 25.328125 33.226562 26 33.738281 26 C 34.339844 26 35.292969 25 38 25 C 41.289062 25 45 27.621094 45 32.058594 C 45 35.941406 42.089844 40 37 40 C 32.863281 40 27 36.917969 27 27.90625 C 27 15.429688 36.398438 10.132812 41.433594 8.097656 C 42.175781 7.796875 42.992188 8.328125 42.992188 9.132812 Z M 42.992188 9.132812 "/>
<path style=" stroke:none;fill-rule:nonzero;fill:rgb(80.000001%,80.000001%,80.000001%);fill-opacity:1;" d="M 18.992188 9.132812 C 18.992188 9.589844 18.710938 10.011719 18.277344 10.167969 C 14.617188 11.472656 9 16.269531 9 24 C 9 25.328125 9.226562 26 9.738281 26 C 10.339844 26 11.292969 25 14 25 C 17.289062 25 21 27.621094 21 32.058594 C 21 35.941406 18.089844 40 13 40 C 8.863281 40 3 36.917969 3 27.90625 C 3 15.429688 12.398438 10.132812 17.433594 8.097656 C 18.175781 7.796875 18.992188 8.328125 18.992188 9.132812 Z M 18.992188 9.132812 "/>
</g>
</svg>
