<svg id="Layer_1" data-name="Layer 1" xmlns="http://www.w3.org/2000/svg" xmlns:xlink="http://www.w3.org/1999/xlink" viewBox="0 0 1297.8 1258.75" width="406" height="306" class="illustration"><defs><linearGradient id="linear-gradient" x1="701.81" y1="932.82" x2="705.52" y2="404.97" gradientUnits="userSpaceOnUse"><stop offset="0.01"></stop><stop offset="0.08" stop-opacity="0.69"></stop><stop offset="0.21" stop-opacity="0.32"></stop><stop offset="1" stop-opacity="0"></stop></linearGradient><linearGradient id="linear-gradient-2" x1="701.88" y1="939.34" x2="705.35" y2="444.46" xlink:href="#linear-gradient"></linearGradient><clipPath id="clip-path" transform="translate(-25.57 -32.48)"><path d="M94.18,299.54C82,392.39,135.71,464.85,140.09,555.07c3.49,72-24.46,141.19-40,211.55s-15.83,152.09,33,205.09c28.31,30.75,69.16,47,110,56.08,153.56,34.24,307.89-18.92,459.25-40.15,77.24-10.83,149.55-7.2,226.51,3,76.16,10.06,157.11,25.91,230.89-4.32,56-23,99.8-70.82,125-125.89,27.76-60.66,34.21-129.59,30.51-195.61-3.42-61.13-32.92-117.59-45.31-177.54-12.29-59.5-7.49-121-8.91-181.73s-10.21-124.17-45.4-173.7c-51.64-72.7-149.19-98.91-238.27-94.56C876.21,42.18,781,85.72,680.05,81,574.87,76.17,473.33,33.57,367.14,43.35c-82.43,7.6-161.68,49-213.07,113.93A291.87,291.87,0,0,0,94.18,299.54Z" fill="none"></path></clipPath><linearGradient id="linear-gradient-3" x1="473.36" y1="484.68" x2="474.59" y2="726.69" xlink:href="#linear-gradient"></linearGradient><linearGradient id="linear-gradient-4" x1="500" y1="578.94" x2="508.34" y2="314.04" xlink:href="#linear-gradient"></linearGradient><linearGradient id="linear-gradient-5" x1="548.74" y1="508.16" x2="604.77" y2="399.35" xlink:href="#linear-gradient"></linearGradient><linearGradient id="linear-gradient-6" x1="513.3" y1="496.48" x2="333.18" y2="437.68" xlink:href="#linear-gradient"></linearGradient><linearGradient id="linear-gradient-7" x1="477.64" y1="449.35" x2="515.3" y2="409.83" xlink:href="#linear-gradient"></linearGradient><linearGradient id="linear-gradient-8" x1="462.83" y1="437.75" x2="500.1" y2="411.82" xlink:href="#linear-gradient"></linearGradient><linearGradient id="linear-gradient-9" x1="1306.48" y1="451.85" x2="1348.47" y2="407.8" gradientTransform="matrix(-1, 0, 0, 1, 1836.02, 0)" xlink:href="#linear-gradient"></linearGradient><linearGradient id="linear-gradient-10" x1="1315.49" y1="470.23" x2="1352.76" y2="444.3" gradientTransform="matrix(-1, 0, 0, 1, 1810.45, -32.48)" xlink:href="#linear-gradient"></linearGradient><linearGradient id="linear-gradient-11" x1="448.35" y1="392.68" x2="479.84" y2="632.84" xlink:href="#linear-gradient"></linearGradient><linearGradient id="linear-gradient-12" x1="553.48" y1="515.95" x2="609.5" y2="407.6" xlink:href="#linear-gradient"></linearGradient><linearGradient id="linear-gradient-13" x1="470.53" y1="398.05" x2="485.2" y2="435.4" xlink:href="#linear-gradient"></linearGradient></defs><title>1</title><path d="M1314.9,729.49c-3,43.65-12.07,86.87-30.23,126.57-25.19,55.09-69,103-125,125.9-73.77,30.23-154.71,14.38-230.86,4.31-77-10.16-149.29-13.78-226.51-3-151.37,21.25-305.69,74.4-459.25,40.16-40.82-9.11-81.67-25.32-110-56.08-48.81-53-48.54-134.72-33-205.1,2.44-11,5.13-21.88,8-32.8,15.52-59.17,35-118,32-178.76C135.7,460.52,82,388.06,94.2,295.21A291.51,291.51,0,0,1,154.06,153C205.46,88.06,284.7,46.62,367.15,39,473.33,29.25,574.86,71.85,680,76.71,781,81.39,876.2,37.87,977.31,32.94c89.07-4.34,186.62,21.84,238.26,94.56,35.19,49.53,44,112.94,45.39,173.69s-3.36,122.22,8.91,181.72c12.4,60,41.9,116.44,45.32,177.55A542.85,542.85,0,0,1,1314.9,729.49Z" transform="translate(-25.57 -32.48)" fill="#F4C629" opacity="0.18" style="isolation: isolate;"></path><path d="M1314.9,729.49c-3,43.65-12.07,86.87-30.23,126.57-25.19,55.09-69,103-125,125.9-73.77,30.23-154.71,14.38-230.86,4.31-77-10.16-149.29-13.78-226.51-3-151.37,21.25-305.69,74.4-459.25,40.16-40.82-9.11-81.67-25.32-110-56.08-48.81-53-48.54-134.72-33-205.1,2.44-11,5.13-21.88,8-32.8Z" transform="translate(-25.57 -32.48)" fill="#F4C629"></path><path d="M1314.9,729.49c-3,43.65-12.07,86.87-30.23,126.57-25.19,55.09-69,103-125,125.9-73.77,30.23-154.71,14.38-230.86,4.31-77-10.16-149.29-13.78-226.51-3-151.37,21.25-305.69,74.4-459.25,40.16-40.82-9.11-81.67-25.32-110-56.08-48.81-53-48.54-134.72-33-205.1,2.44-11,5.13-21.88,8-32.8Z" transform="translate(-25.57 -32.48)" fill="url(#linear-gradient)"></path><path d="M1314.9,749c-3,40.85-12.07,81.31-30.23,118.48-25.19,51.57-69,96.37-125,117.86-73.77,28.3-154.71,13.46-230.86,4-77-9.51-149.29-12.9-226.51-2.77-151.37,19.89-305.69,69.65-459.25,37.6-40.82-8.53-81.67-23.71-110-52.5-48.81-49.63-48.54-126.12-33-192,2.44-10.25,5.13-20.47,8-30.69Z" transform="translate(-25.57 -32.48)" fill="url(#linear-gradient-2)"></path><rect x="262.87" y="78.75" width="839.94" height="618.3" fill="#F4C629" opacity="0.18" style="isolation: isolate;"></rect><rect x="286.95" y="104.14" width="796.42" height="573.47" fill="#fff"></rect><g clip-path="url(#clip-path)"><rect x="414.75" y="505.42" width="118.54" height="217.26" fill="#F4C629"></rect><rect x="414.75" y="505.42" width="118.54" height="217.26" fill="url(#linear-gradient-3)"></rect><path d="M54.89,785.45s-21.3.61-25.31,9.26-4,68.07-4,68.07h91.37s2.1-62.62-2.19-68.38S54.89,785.45,54.89,785.45Z" transform="translate(-25.57 -32.48)" fill="#F4C629"></path><path d="M81.77,699.57a17.45,17.45,0,0,0-13.08,1.2c-2.17,1.15-3,3.39-4.84,4.61-1.5,1-4.06-.17-5.3,1.65-1.45,2.12-2.43,5.63-3.57,8q-2.2,4.61-4,9.4a131,131,0,0,0-5.62,19.64,171.51,171.51,0,0,0-3.11,40.39c.29,8.12,1.07,16.37,4.15,23.89,3.36,8.22,18.94,5.85,25.81,5.74q18-.29,35.9-1.84a333.57,333.57,0,0,0-1.58-79.19c-.81-5.83-1.83-11.77-4.66-16.93C98,709.15,90.18,701.86,81.77,699.57Z" transform="translate(-25.57 -32.48)" fill="#473f47"></path><path d="M140.71,723.57s-21.3.61-25.32,9.26-4,65.75-4,65.75h91.37s2.1-60.3-2.18-66.06S140.71,723.57,140.71,723.57Z" transform="translate(-25.57 -32.48)" fill="#fff"></path><path d="M152.75,931s4-133.77,7.11-138.32,29-13.95,61.2-11.67,41.84,11.67,41.84,11.67L271.15,931Z" transform="translate(-25.57 -32.48)" fill="#F4C629"></path><path d="M177.2,860.38s16.18,7.35,18,12.9S201.61,931,201.61,931H75.31s6.94-60,12-65.13S150.37,854,177.2,860.38Z" transform="translate(-25.57 -32.48)" fill="#fff"></path><path d="M119.4,773.56c-1,.15-2.08,0-3.11.15a6.68,6.68,0,0,0-5.41,4.41,13,13,0,0,1-.81,2.4,16.82,16.82,0,0,1-1.88,2.08,5.39,5.39,0,0,0-.62,5.9,8.09,8.09,0,0,0-4.13,6.6c0,1,.12,2.11,0,3.16-.3,3.29-3,5.79-4.38,8.79a12.19,12.19,0,0,0,5.79,15.61,10.11,10.11,0,0,0-.33,14c-2.81,2.29-5.74,4.73-7.12,8.08s-.62,7.9,2.61,9.56a8.15,8.15,0,0,0,6.21,13.62,10.24,10.24,0,0,0,11.6,13,45.66,45.66,0,0,0,1,13.39,33.58,33.58,0,0,0,19.53-1.38c2.58,1.83,5.26,3.7,8.35,4.37s6.75-.17,8.47-2.83c1-1.48,1.38-3.52,3-4.25a5.18,5.18,0,0,1,2.18-.3l11.33,0a3.79,3.79,0,0,0,2.38-.53,3.42,3.42,0,0,0,1-1.9,20.37,20.37,0,0,0,.34-9.38,7.43,7.43,0,0,0,4.08-9.76,15.65,15.65,0,0,1-1.39-2.89c-.4-1.68.39-3.39.7-5.09a9.33,9.33,0,0,0-1.47-6.83,6.23,6.23,0,0,1-1.29-2.38c-.17-1.16.56-2.23,1.14-3.26a15.2,15.2,0,0,0,1.19-12.14c-.48-1.41-1.17-2.84-1-4.32a10.32,10.32,0,0,1,.84-2.57,15.1,15.1,0,0,0-.72-12.42,9.76,9.76,0,0,1-1.38-3.16,8.24,8.24,0,0,1,.33-2.87,40.15,40.15,0,0,0,.39-15.75c-.52-2.93-1.62-6.13-4.28-7.48a3.73,3.73,0,0,1-1.52-1,3.4,3.4,0,0,1-.35-1.9,8.74,8.74,0,0,0-9.65-8.05c-1.54-6.15-9.66-9.55-15.13-6.34a8.12,8.12,0,0,0-7-6c-4.11-.33-6.24,3.05-9.2,4.63S122.71,773.1,119.4,773.56Z" transform="translate(-25.57 -32.48)" fill="#473f47"></path><path d="M194.26,776.2a2.58,2.58,0,0,1,1.56-.67c3.29-.48,6.58.54,9.84,1.18,7.62,1.49,15.47.92,23.23.51a1.19,1.19,0,0,1,.59.07,1,1,0,0,1,.46.52,3.59,3.59,0,0,1-.7,3.76,8.42,8.42,0,0,1-3.35,2.19,28.94,28.94,0,0,1-5.91,1.77,46.66,46.66,0,0,1-7.65.66c-4.74.09-9.65-.12-14.11-1.85a5.19,5.19,0,0,1-3.08-2.39C194.39,780.56,193,777.6,194.26,776.2Z" transform="translate(-25.57 -32.48)" fill="#fff"></path><path d="M182.85,713.8a19.13,19.13,0,0,0-2.55,3.94c-2.31,4.75-2.86,10.17-2.93,15.45a33.47,33.47,0,0,0,2.15,13.42c1.8,4.39,4.79,7.71,7.29,11.73,2.14,3.43,3.71,7.21,6,10.52A26.13,26.13,0,0,0,211,780a22.54,22.54,0,0,0,19.6-7.6c2.32-2.8,3.87-6.15,5.75-9.27a91.68,91.68,0,0,0,5.06-8.37c2.13-4.55,2.73-9.65,3.11-14.66a58,58,0,0,0-.31-14.66,23.93,23.93,0,0,0-6.4-13,36.72,36.72,0,0,0-7.33-5.11c-4.42-2.58-8.9-5.18-13.85-6.46s-10.5-1.08-14.79,1.69c-1.84,1.19-3.46,2.72-5.33,3.85s-4.13,1.56-6.29,2.31A16.68,16.68,0,0,0,182.85,713.8Z" transform="translate(-25.57 -32.48)" fill="#473f47"></path><path d="M272.18,723.57s-21.3.61-25.31,9.26-4,65.75-4,65.75h91.38s2.1-60.3-2.19-66.06S272.18,723.57,272.18,723.57Z" transform="translate(-25.57 -32.48)" fill="#F4C629"></path><path d="M332,692.51c0-10.78-1.46-21.8-6.37-31.41-9.95-19.45-35.79-32.14-53.6-14.7-7.94,7.78-11.43,19.55-10,30.57,1.19,9.13,5.49,17.88,4.93,27.08-.51,8.38-5,15.91-8.67,23.44s-6.78,16.16-4.35,24.19c2.11,7,8.1,12.19,14.77,15.05s14,3.68,21.24,4.27c7.4.61,15.18,1,21.91-2.17,11.69-5.46,10.46-20.18,13.19-30.94C328.86,723,332,707.89,332,692.51Z" transform="translate(-25.57 -32.48)" fill="#473f47"></path><path d="M284.22,931s4-133.77,7.12-138.32,29-13.95,61.19-11.67,41.84,11.67,41.84,11.67L402.63,931Z" transform="translate(-25.57 -32.48)" fill="#665966"></path><path d="M308.67,860.38s16.18,7.35,18,12.9,6.38,129.14,6.38,129.14H206.78s6.95-131.45,12-136.55S281.84,854,308.67,860.38Z" transform="translate(-25.57 -32.48)" fill="#fff"></path><path d="M250.88,773.56c-1,.15-2.09,0-3.12.15a6.71,6.71,0,0,0-5.41,4.41,12.32,12.32,0,0,1-.81,2.4,15.36,15.36,0,0,1-1.88,2.08,5.39,5.39,0,0,0-.62,5.9,8.06,8.06,0,0,0-4.12,6.6c0,1,.11,2.11,0,3.16-.31,3.29-3,5.79-4.38,8.79a12.17,12.17,0,0,0,5.78,15.61,10.11,10.11,0,0,0-.32,14c-2.82,2.29-5.74,4.73-7.13,8.08s-.61,7.9,2.62,9.56a8.14,8.14,0,0,0,6.2,13.62,10.24,10.24,0,0,0,11.6,13,45.66,45.66,0,0,0,1,13.39,33.58,33.58,0,0,0,19.53-1.38c2.59,1.83,5.26,3.7,8.36,4.37s6.74-.17,8.46-2.83c1-1.48,1.39-3.52,3-4.25a5.11,5.11,0,0,1,2.17-.3l11.33,0a3.84,3.84,0,0,0,2.39-.53,3.55,3.55,0,0,0,1-1.9,20.37,20.37,0,0,0,.33-9.38,7.43,7.43,0,0,0,4.08-9.76,16.27,16.27,0,0,1-1.38-2.89c-.41-1.68.38-3.39.69-5.09a9.32,9.32,0,0,0-1.46-6.83,6,6,0,0,1-1.29-2.38c-.17-1.16.56-2.23,1.14-3.26a15.16,15.16,0,0,0,1.18-12.14c-.47-1.41-1.17-2.84-1-4.32a10.32,10.32,0,0,1,.84-2.57,15.06,15.06,0,0,0-.73-12.42,10,10,0,0,1-1.38-3.16,8,8,0,0,1,.34-2.87,40,40,0,0,0,.38-15.75c-.52-2.93-1.61-6.13-4.27-7.48a3.77,3.77,0,0,1-1.53-1,3.48,3.48,0,0,1-.35-1.9,8.72,8.72,0,0,0-9.64-8.05c-1.55-6.15-9.67-9.55-15.14-6.34a8.11,8.11,0,0,0-7-6c-4.11-.33-6.23,3.05-9.2,4.63S254.19,773.1,250.88,773.56Z" transform="translate(-25.57 -32.48)" fill="#cd8809"></path><path d="M325.74,776.2a2.58,2.58,0,0,1,1.56-.67c3.28-.48,6.58.54,9.84,1.18,7.62,1.49,15.47.92,23.22.51a1.18,1.18,0,0,1,.59.07,1,1,0,0,1,.47.52,3.61,3.61,0,0,1-.7,3.76,8.46,8.46,0,0,1-3.36,2.19,29,29,0,0,1-5.9,1.77,46.69,46.69,0,0,1-7.66.66c-4.74.09-9.64-.12-14.11-1.85a5.22,5.22,0,0,1-3.08-2.39C325.87,780.56,324.46,777.6,325.74,776.2Z" transform="translate(-25.57 -32.48)" fill="#fff"></path><path d="M314.32,713.8a19.09,19.09,0,0,0-2.54,3.94c-2.32,4.75-2.87,10.17-2.93,15.45A33.29,33.29,0,0,0,311,746.61c1.8,4.39,4.78,7.71,7.29,11.73,2.14,3.43,3.71,7.21,6,10.52A26.15,26.15,0,0,0,342.43,780a22.52,22.52,0,0,0,19.6-7.6c2.33-2.8,3.87-6.15,5.76-9.27a91.57,91.57,0,0,0,5-8.37c2.13-4.55,2.73-9.65,3.11-14.66a57.52,57.52,0,0,0-.3-14.66,24,24,0,0,0-6.4-13,36.79,36.79,0,0,0-7.34-5.11c-4.41-2.58-8.9-5.18-13.84-6.46s-10.5-1.08-14.8,1.69c-1.84,1.19-3.45,2.72-5.33,3.85s-4.13,1.56-6.29,2.31A16.68,16.68,0,0,0,314.32,713.8Z" transform="translate(-25.57 -32.48)" fill="#cd8809"></path><path d="M377.75,853.67s-21.3.61-25.31,9.26-4,68.07-4,68.07H439.8s2.1-62.62-2.19-68.38S377.75,853.67,377.75,853.67Z" transform="translate(-25.57 -32.48)" fill="#F4C629"></path><path d="M404.63,767.79a17.45,17.45,0,0,0-13.08,1.2c-2.17,1.15-3.05,3.38-4.84,4.61-1.5,1-4.06-.17-5.3,1.65-1.45,2.12-2.43,5.63-3.57,8q-2.2,4.61-4,9.4a131,131,0,0,0-5.62,19.64,171.47,171.47,0,0,0-3.11,40.38c.29,8.13,1.07,16.38,4.15,23.9,3.36,8.22,18.94,5.85,25.81,5.74q18-.29,35.9-1.84a333.57,333.57,0,0,0-1.58-79.19c-.81-5.83-1.83-11.77-4.66-16.93C420.88,777.37,413,770.08,404.63,767.79Z" transform="translate(-25.57 -32.48)" fill="#473f47"></path><path d="M380.86,850s-21.3.62-25.32,9.26-4,68.07-4,68.07H442.9s2.1-62.62-2.18-68.38S380.86,850,380.86,850Z" transform="translate(-25.57 -32.48)" fill="#F4C629"></path><path d="M407.73,764.12a17.46,17.46,0,0,0-13.08,1.21c-2.16,1.15-3,3.38-4.84,4.6-1.49,1-4.06-.16-5.3,1.65-1.44,2.12-2.42,5.63-3.57,8q-2.2,4.6-4,9.39a131.34,131.34,0,0,0-5.61,19.64A171,171,0,0,0,368.22,849c.28,8.12,1.06,16.37,4.14,23.89,3.37,8.22,18.94,5.85,25.81,5.75q18-.28,35.9-1.85a334,334,0,0,0-1.57-79.18c-.82-5.84-1.83-11.78-4.67-16.94C424,773.7,416.15,766.41,407.73,764.12Z" transform="translate(-25.57 -32.48)" fill="#473f47"></path><path d="M466.67,788.12s-21.3.62-25.31,9.26-4,65.75-4,65.75h91.37s2.1-60.3-2.19-66.06S466.67,788.12,466.67,788.12Z" transform="translate(-25.57 -32.48)" fill="#fff"></path><path d="M482.9,704.64c-5.4,2.26-8.9,7.5-11.65,12.67-11.88,22.33-15.69,48.25-14.8,73.53.28,8.13,1.06,16.38,4.14,23.9a7.23,7.23,0,0,0,2.33,3.4,7.81,7.81,0,0,0,4.26.92,451.77,451.77,0,0,0,48.39-1.55c5.41-19.81,10.86-39.9,11-60.44.05-10.79-1.45-21.81-6.37-31.41S506.56,708,496,705.71c-6.88-1.5-15.4.34-18.34,6.75" transform="translate(-25.57 -32.48)" fill="#cd8809"></path><path d="M478.71,995.55s4-133.76,7.12-138.32,29-13.94,61.19-11.67,41.84,11.67,41.84,11.67l8.26,138.32Z" transform="translate(-25.57 -32.48)" fill="#665966"></path><path d="M503.16,924.93s16.18,7.35,18,12.9,6.38,57.72,6.38,57.72H401.27s7-60,12-65.12S476.33,918.52,503.16,924.93Z" transform="translate(-25.57 -32.48)" fill="#473f47"></path><path d="M445.37,838.12c-1,.14-2.08,0-3.12.15a6.67,6.67,0,0,0-5.4,4.4,12.35,12.35,0,0,1-.82,2.4,15.36,15.36,0,0,1-1.88,2.08,5.41,5.41,0,0,0-.62,5.9,8.07,8.07,0,0,0-4.12,6.6c-.05,1.05.11,2.11,0,3.17-.3,3.28-3,5.79-4.38,8.78a12.16,12.16,0,0,0,5.79,15.61,10.1,10.1,0,0,0-.33,14c-2.82,2.29-5.74,4.73-7.13,8.08s-.61,7.91,2.62,9.56a8.15,8.15,0,0,0,6.21,13.63,10.23,10.23,0,0,0,11.59,13,45.33,45.33,0,0,0,1,13.39,33.54,33.54,0,0,0,19.52-1.37c2.59,1.82,5.26,3.69,8.36,4.36s6.74-.17,8.46-2.82c1-1.49,1.39-3.53,3-4.26a5.27,5.27,0,0,1,2.17-.3l11.33,0a3.84,3.84,0,0,0,2.39-.53,3.49,3.49,0,0,0,1-1.89,20.56,20.56,0,0,0,.34-9.39,7.43,7.43,0,0,0,4.07-9.76,16.18,16.18,0,0,1-1.38-2.88c-.41-1.69.38-3.39.69-5.1a9.27,9.27,0,0,0-1.46-6.83,6.06,6.06,0,0,1-1.29-2.37c-.17-1.17.56-2.24,1.14-3.26a15.16,15.16,0,0,0,1.18-12.14c-.47-1.42-1.17-2.84-1-4.33a10.45,10.45,0,0,1,.84-2.57A15,15,0,0,0,503.5,881a9.88,9.88,0,0,1-1.37-3.17,8.27,8.27,0,0,1,.33-2.87,39.92,39.92,0,0,0,.38-15.74c-.51-2.94-1.61-6.14-4.27-7.48a3.79,3.79,0,0,1-1.52-1,3.28,3.28,0,0,1-.35-1.9,8.75,8.75,0,0,0-9.65-8c-1.55-6.15-9.67-9.55-15.14-6.34a8.11,8.11,0,0,0-7-6c-4.11-.33-6.23,3.06-9.2,4.63S448.68,837.65,445.37,838.12Z" transform="translate(-25.57 -32.48)" fill="#a36a0f"></path><path d="M520.23,840.75a2.51,2.51,0,0,1,1.56-.66c3.29-.49,6.58.53,9.84,1.17,7.62,1.5,15.47.92,23.22.52a1.3,1.3,0,0,1,.59.06,1.06,1.06,0,0,1,.47.53,3.62,3.62,0,0,1-.7,3.76,8.54,8.54,0,0,1-3.36,2.18,29,29,0,0,1-5.9,1.77,46.69,46.69,0,0,1-7.66.66c-4.73.1-9.64-.11-14.11-1.85a5.16,5.16,0,0,1-3.07-2.39C520.36,845.12,519,842.16,520.23,840.75Z" transform="translate(-25.57 -32.48)" fill="#fff"></path><path d="M508.81,778.36a18.76,18.76,0,0,0-2.54,3.93c-2.31,4.76-2.86,10.17-2.93,15.46a33.5,33.5,0,0,0,2.15,13.42c1.8,4.39,4.78,7.7,7.29,11.72,2.14,3.43,3.71,7.21,6,10.53a26.16,26.16,0,0,0,18.12,11.1,22.5,22.5,0,0,0,19.6-7.6c2.33-2.8,3.87-6.15,5.76-9.27a92.58,92.58,0,0,0,5.06-8.37c2.13-4.55,2.72-9.65,3.11-14.66a58,58,0,0,0-.31-14.66,24,24,0,0,0-6.4-13,36.43,36.43,0,0,0-7.34-5.12c-4.41-2.57-8.9-5.18-13.84-6.45s-10.5-1.08-14.8,1.69c-1.84,1.18-3.45,2.71-5.33,3.84s-4.13,1.56-6.29,2.31A16.7,16.7,0,0,0,508.81,778.36Z" transform="translate(-25.57 -32.48)" fill="#684712"></path><path d="M598.15,788.12s-21.3.62-25.32,9.26-4,65.75-4,65.75h91.37s2.1-60.3-2.18-66.06S598.15,788.12,598.15,788.12Z" transform="translate(-25.57 -32.48)" fill="#F4C629"></path><path d="M614.38,704.64c-5.4,2.26-8.9,7.5-11.65,12.67-11.88,22.33-15.69,48.25-14.81,73.53.28,8.13,1.07,16.38,4.14,23.9a7.23,7.23,0,0,0,2.33,3.4,7.85,7.85,0,0,0,4.26.92,451.88,451.88,0,0,0,48.4-1.55c5.4-19.81,10.85-39.9,11-60.44.06-10.79-1.45-21.81-6.36-31.41S638,708,627.5,705.71c-6.89-1.5-15.41.34-18.34,6.75" transform="translate(-25.57 -32.48)" fill="#473f47"></path><path d="M1129.33,788.12s-21.3.62-25.32,9.26-4,142.21-4,142.21h91.37s2.1-136.76-2.18-142.52S1129.33,788.12,1129.33,788.12Z" transform="translate(-25.57 -32.48)" fill="#F4C629"></path><path d="M1145.56,704.64c-5.4,2.26-8.9,7.5-11.65,12.67-11.88,22.33-15.69,48.25-14.81,73.53.29,8.13,1.07,16.38,4.15,23.9a7.09,7.09,0,0,0,2.33,3.4,7.79,7.79,0,0,0,4.25.92,451.88,451.88,0,0,0,48.4-1.55c5.41-19.81,10.85-39.9,11-60.44,0-10.79-1.46-21.81-6.37-31.41s-13.6-17.65-24.14-19.95c-6.89-1.5-15.41.34-18.34,6.75" transform="translate(-25.57 -32.48)" fill="#473f47"></path><path d="M966.84,937.36S970.82,803.6,974,799s29-13.95,61.2-11.67S1077,799,1077,799l8.25,138.32Z" transform="translate(-25.57 -32.48)" fill="#665966"></path><path d="M991.29,866.74s16.18,7.35,18,12.9,6.38,57.72,6.38,57.72H889.4s6.94-60,12-65.12S964.46,860.33,991.29,866.74Z" transform="translate(-25.57 -32.48)" fill="#473f47"></path><path d="M933.49,779.93c-1,.14-2.08,0-3.11.15a6.67,6.67,0,0,0-5.41,4.4,13,13,0,0,1-.81,2.4,16.82,16.82,0,0,1-1.88,2.08,5.39,5.39,0,0,0-.62,5.9,8.11,8.11,0,0,0-4.13,6.6c0,1,.12,2.11,0,3.17-.3,3.28-3,5.79-4.38,8.78A12.18,12.18,0,0,0,919,829a10.11,10.11,0,0,0-.32,14c-2.82,2.29-5.74,4.73-7.13,8.08s-.62,7.91,2.62,9.56a8.15,8.15,0,0,0,6.2,13.63,10.24,10.24,0,0,0,11.6,13,45.66,45.66,0,0,0,1,13.39,33.5,33.5,0,0,0,19.53-1.38c2.58,1.83,5.26,3.7,8.35,4.37s6.75-.17,8.47-2.82c1-1.49,1.38-3.53,3-4.26a5.34,5.34,0,0,1,2.18-.3l11.33,0a3.79,3.79,0,0,0,2.38-.53,3.51,3.51,0,0,0,1-1.89,20.55,20.55,0,0,0,.33-9.39,7.43,7.43,0,0,0,4.08-9.76,15.57,15.57,0,0,1-1.39-2.88c-.4-1.69.39-3.39.7-5.1a9.33,9.33,0,0,0-1.47-6.83,6.19,6.19,0,0,1-1.29-2.37c-.17-1.17.56-2.24,1.14-3.26a15.2,15.2,0,0,0,1.19-12.14c-.48-1.42-1.17-2.84-1-4.33a10.45,10.45,0,0,1,.84-2.57,15.07,15.07,0,0,0-.72-12.41,9.9,9.9,0,0,1-1.38-3.17,8,8,0,0,1,.34-2.87,40.1,40.1,0,0,0,.38-15.74c-.52-2.94-1.62-6.14-4.28-7.48a3.86,3.86,0,0,1-1.52-1,3.45,3.45,0,0,1-.35-1.9,8.75,8.75,0,0,0-9.65-8c-1.54-6.15-9.66-9.55-15.13-6.34a8.11,8.11,0,0,0-7-6c-4.11-.33-6.23,3.06-9.2,4.63S936.8,779.46,933.49,779.93Z" transform="translate(-25.57 -32.48)" fill="#cd8809"></path><path d="M1008.36,782.56a2.49,2.49,0,0,1,1.56-.66c3.28-.49,6.57.53,9.83,1.17,7.62,1.5,15.47.92,23.23.52a1.3,1.3,0,0,1,.59.06,1,1,0,0,1,.46.53,3.61,3.61,0,0,1-.69,3.76,8.62,8.62,0,0,1-3.36,2.18,28.94,28.94,0,0,1-5.91,1.77,46.66,46.66,0,0,1-7.65.66c-4.74.1-9.64-.11-14.11-1.85a5.18,5.18,0,0,1-3.08-2.39C1008.48,786.93,1007.08,784,1008.36,782.56Z" transform="translate(-25.57 -32.48)" fill="#fff"></path><path d="M996.94,720.17a19.21,19.21,0,0,0-2.55,3.93c-2.31,4.75-2.86,10.17-2.93,15.46A33.5,33.5,0,0,0,993.61,753c1.81,4.39,4.79,7.7,7.29,11.72,2.15,3.43,3.72,7.21,6,10.53a26.12,26.12,0,0,0,18.12,11.1,22.51,22.51,0,0,0,19.6-7.6c2.33-2.8,3.87-6.15,5.75-9.27,1.69-2.79,3.68-5.41,5.06-8.37,2.13-4.55,2.73-9.65,3.11-14.66a57.52,57.52,0,0,0-.31-14.66,23.9,23.9,0,0,0-6.4-13,36.36,36.36,0,0,0-7.33-5.12c-4.42-2.57-8.9-5.18-13.85-6.45s-10.5-1.08-14.79,1.68c-1.84,1.19-3.46,2.72-5.33,3.85s-4.13,1.56-6.29,2.31A16.62,16.62,0,0,0,996.94,720.17Z" transform="translate(-25.57 -32.48)" fill="#cd8809"></path><path d="M1260.8,788.12s-21.3.62-25.31,9.26-4,143-4,143l91.37-77.2s2.1-60.3-2.19-66.06S1260.8,788.12,1260.8,788.12Z" transform="translate(-25.57 -32.48)" fill="#F4C629"></path><path d="M1277,704.64c-5.4,2.26-8.9,7.5-11.65,12.67-11.88,22.33-15.69,48.25-14.8,73.53.28,8.13,1.06,16.38,4.14,23.9a7.16,7.16,0,0,0,2.33,3.4,7.81,7.81,0,0,0,4.26.92,451.77,451.77,0,0,0,48.39-1.55c5.41-19.81,10.86-39.9,11-60.44,0-10.79-1.45-21.81-6.37-31.41s-13.6-17.65-24.14-19.95c-6.89-1.5-15.41.34-18.34,6.75" transform="translate(-25.57 -32.48)" fill="#473f47"></path><path d="M610.18,995.55s4-133.76,7.12-138.32,29-13.94,61.2-11.67,41.84,11.67,41.84,11.67l8.25,138.32Z" transform="translate(-25.57 -32.48)" fill="#665966"></path><path d="M634.64,924.93s16.18,7.35,18,12.9,6.38,57.72,6.38,57.72H532.74s7-60,12-65.12S607.81,918.52,634.64,924.93Z" transform="translate(-25.57 -32.48)" fill="#473f47"></path><path d="M576.84,838.12c-1,.14-2.08,0-3.11.15a6.67,6.67,0,0,0-5.41,4.4,12.35,12.35,0,0,1-.82,2.4,16,16,0,0,1-1.87,2.08,5.39,5.39,0,0,0-.62,5.9,8.06,8.06,0,0,0-4.13,6.6c0,1.05.12,2.11,0,3.17-.3,3.28-3,5.79-4.38,8.78a12.16,12.16,0,0,0,5.79,15.61,10.11,10.11,0,0,0-.33,14c-2.81,2.29-5.74,4.73-7.12,8.08s-.62,7.91,2.61,9.56a8.15,8.15,0,0,0,6.21,13.63,10.24,10.24,0,0,0,11.59,13,46,46,0,0,0,1,13.39,33.58,33.58,0,0,0,19.53-1.37c2.58,1.82,5.26,3.69,8.35,4.36s6.74-.17,8.47-2.82c1-1.49,1.38-3.53,3-4.26a5.32,5.32,0,0,1,2.18-.3l11.33,0a3.79,3.79,0,0,0,2.38-.53,3.43,3.43,0,0,0,1-1.89,20.42,20.42,0,0,0,.34-9.39,7.43,7.43,0,0,0,4.08-9.76A15.57,15.57,0,0,1,635.6,930c-.4-1.69.39-3.39.69-5.1a9.27,9.27,0,0,0-1.46-6.83,6.06,6.06,0,0,1-1.29-2.37c-.17-1.17.56-2.24,1.14-3.26a15.16,15.16,0,0,0,1.18-12.14c-.47-1.42-1.16-2.84-1-4.33a10.45,10.45,0,0,1,.84-2.57A15.07,15.07,0,0,0,635,881a9.69,9.69,0,0,1-1.38-3.17,8.27,8.27,0,0,1,.33-2.87,40.11,40.11,0,0,0,.39-15.74c-.52-2.94-1.62-6.14-4.28-7.48a3.79,3.79,0,0,1-1.52-1,3.36,3.36,0,0,1-.35-1.9,8.75,8.75,0,0,0-9.65-8c-1.54-6.15-9.67-9.55-15.14-6.34a8.1,8.1,0,0,0-7-6c-4.11-.33-6.24,3.06-9.2,4.63S580.15,837.65,576.84,838.12Z" transform="translate(-25.57 -32.48)" fill="#cd8809"></path><path d="M651.7,840.75a2.51,2.51,0,0,1,1.56-.66c3.29-.49,6.58.53,9.84,1.17,7.62,1.5,15.47.92,23.22.52a1.36,1.36,0,0,1,.6.06,1,1,0,0,1,.46.53,3.62,3.62,0,0,1-.7,3.76,8.58,8.58,0,0,1-3.35,2.18,29.13,29.13,0,0,1-5.91,1.77,46.66,46.66,0,0,1-7.65.66c-4.74.1-9.65-.11-14.11-1.85a5.15,5.15,0,0,1-3.08-2.39C651.83,845.12,650.43,842.16,651.7,840.75Z" transform="translate(-25.57 -32.48)" fill="#fff"></path><path d="M640.29,778.36a18.8,18.8,0,0,0-2.55,3.93c-2.31,4.76-2.86,10.17-2.93,15.46A33.5,33.5,0,0,0,637,811.17c1.8,4.39,4.78,7.7,7.29,11.72,2.14,3.43,3.71,7.21,6,10.53a26.16,26.16,0,0,0,18.13,11.1,22.48,22.48,0,0,0,19.59-7.6c2.33-2.8,3.87-6.15,5.76-9.27,1.69-2.79,3.68-5.41,5.06-8.37,2.13-4.55,2.73-9.65,3.11-14.66a58,58,0,0,0-.31-14.66,23.9,23.9,0,0,0-6.4-13,36.36,36.36,0,0,0-7.33-5.12c-4.42-2.57-8.9-5.18-13.85-6.45s-10.5-1.08-14.79,1.69c-1.84,1.18-3.46,2.71-5.33,3.84s-4.13,1.56-6.29,2.31A16.64,16.64,0,0,0,640.29,778.36Z" transform="translate(-25.57 -32.48)" fill="#cd8809"></path><path d="M703.72,918.22s-21.3.62-25.32,9.26-4,68.07-4,68.07h91.37s2.1-62.62-2.18-68.38S703.72,918.22,703.72,918.22Z" transform="translate(-25.57 -32.48)" fill="#F4C629"></path><path d="M730.59,832.34a17.46,17.46,0,0,0-13.08,1.21c-2.16,1.15-3,3.38-4.84,4.6-1.49,1-4.06-.16-5.3,1.65-1.44,2.12-2.42,5.63-3.57,8q-2.2,4.6-4,9.39a131,131,0,0,0-5.61,19.64,171,171,0,0,0-3.11,40.39c.28,8.12,1.06,16.37,4.14,23.89,3.37,8.22,18.95,5.85,25.81,5.75q18-.28,35.9-1.85a334,334,0,0,0-1.57-79.18c-.82-5.84-1.83-11.78-4.67-16.94C746.85,841.92,739,834.63,730.59,832.34Z" transform="translate(-25.57 -32.48)" fill="#473f47"></path><path d="M380.86,1077.41s-21.3.62-25.32,9.26-4,68.07-4,68.07H442.9s2.1-62.62-2.18-68.38S380.86,1077.41,380.86,1077.41Z" transform="translate(-25.57 -32.48)" fill="#F4C629"></path><path d="M407.73,991.53a17.45,17.45,0,0,0-13.08,1.2c-2.16,1.16-3,3.39-4.84,4.61-1.49,1-4.06-.17-5.3,1.65-1.44,2.12-2.42,5.63-3.57,8q-2.2,4.61-4,9.39a131,131,0,0,0-5.61,19.64,171,171,0,0,0-3.11,40.39c.28,8.12,1.06,16.37,4.14,23.89,3.37,8.22,18.94,5.85,25.81,5.74q18-.29,35.9-1.84A334,334,0,0,0,432.5,1025c-.82-5.84-1.83-11.78-4.67-16.94C424,1001.11,416.15,993.82,407.73,991.53Z" transform="translate(-25.57 -32.48)" fill="#473f47"></path><path d="M466.67,1015.53s-21.3.62-25.31,9.26-4,65.75-4,65.75h91.37s2.1-60.3-2.19-66.06S466.67,1015.53,466.67,1015.53Z" transform="translate(-25.57 -32.48)" fill="#F4C629"></path><path d="M515.57,1044.92c2.7-9.89,7.46-21.44,7.58-31.74.1-9,5.87-14.91,9-23.14,2.44-6.44,2.35-13.53,2.23-20.42s-.33-14.36-3.72-20.5c-2.09-3.77-5.25-6.83-8.4-9.78-3.8-3.57-7.74-7.15-12.49-9.33s-10.48-2.8-15.12-.4a45.93,45.93,0,0,0-4.56,3.06c-5.84,4-14.76,5.86-18.79,11.91-4.54,6.8-7.21,16-9.4,23.75-4.56,16.19-6,33.15-5.42,49.92.28,8.13,1.06,16.38,4.14,23.9a7.23,7.23,0,0,0,2.33,3.4,7.81,7.81,0,0,0,4.26.92A451.77,451.77,0,0,0,515.57,1044.92Z" transform="translate(-25.57 -32.48)" fill="#473f47"></path><path d="M478.71,1223s4-133.76,7.12-138.32,29-14,61.19-11.67,41.84,11.67,41.84,11.67L597.12,1223Z" transform="translate(-25.57 -32.48)" fill="#665966"></path><path d="M503.16,1152.34s16.18,7.35,18,12.9,6.38,57.72,6.38,57.72H401.27s7-60,12-65.13S476.33,1145.93,503.16,1152.34Z" transform="translate(-25.57 -32.48)" fill="#473f47"></path><path d="M445.37,1065.53c-1,.14-2.08,0-3.12.14a6.68,6.68,0,0,0-5.4,4.41,12.35,12.35,0,0,1-.82,2.4,15.36,15.36,0,0,1-1.88,2.08,5.41,5.41,0,0,0-.62,5.9,8.07,8.07,0,0,0-4.12,6.6c-.05,1,.11,2.11,0,3.16-.3,3.29-3,5.8-4.38,8.79a12.16,12.16,0,0,0,5.79,15.61,10.1,10.1,0,0,0-.33,14c-2.82,2.29-5.74,4.73-7.13,8.08s-.61,7.9,2.62,9.56a8.15,8.15,0,0,0,6.21,13.63,10.23,10.23,0,0,0,11.59,13,45.33,45.33,0,0,0,1,13.39,33.46,33.46,0,0,0,19.52-1.38c2.59,1.83,5.26,3.7,8.36,4.37s6.74-.17,8.46-2.83c1-1.48,1.39-3.52,3-4.25a5.27,5.27,0,0,1,2.17-.3l11.33,0a3.84,3.84,0,0,0,2.39-.53,3.49,3.49,0,0,0,1-1.89,20.56,20.56,0,0,0,.34-9.39,7.43,7.43,0,0,0,4.07-9.76,16.18,16.18,0,0,1-1.38-2.88c-.41-1.69.38-3.39.69-5.1a9.27,9.27,0,0,0-1.46-6.83,6.06,6.06,0,0,1-1.29-2.37c-.17-1.17.56-2.24,1.14-3.27a15.15,15.15,0,0,0,1.18-12.14c-.47-1.41-1.17-2.83-1-4.32a10.45,10.45,0,0,1,.84-2.57,15.06,15.06,0,0,0-.73-12.42,9.73,9.73,0,0,1-1.37-3.16,8.27,8.27,0,0,1,.33-2.87,39.92,39.92,0,0,0,.38-15.74c-.51-2.94-1.61-6.14-4.27-7.48a3.79,3.79,0,0,1-1.52-1,3.28,3.28,0,0,1-.35-1.9,8.75,8.75,0,0,0-9.65-8c-1.55-6.15-9.67-9.55-15.14-6.34a8.11,8.11,0,0,0-7-6c-4.11-.33-6.23,3.06-9.2,4.63S448.68,1065.06,445.37,1065.53Z" transform="translate(-25.57 -32.48)" fill="#cd8809"></path><path d="M520.23,1068.16a2.51,2.51,0,0,1,1.56-.66c3.29-.49,6.58.53,9.84,1.17,7.62,1.5,15.47.92,23.22.52a1.17,1.17,0,0,1,.59.06,1.06,1.06,0,0,1,.47.53,3.62,3.62,0,0,1-.7,3.76,8.54,8.54,0,0,1-3.36,2.18,29,29,0,0,1-5.9,1.77,46.69,46.69,0,0,1-7.66.66c-4.73.09-9.64-.11-14.11-1.85a5.2,5.2,0,0,1-3.07-2.39C520.36,1072.53,519,1069.57,520.23,1068.16Z" transform="translate(-25.57 -32.48)" fill="#fff"></path><path d="M508.81,1005.77a18.76,18.76,0,0,0-2.54,3.93c-2.31,4.75-2.86,10.17-2.93,15.45a33.54,33.54,0,0,0,2.15,13.43c1.8,4.39,4.78,7.7,7.29,11.72,2.14,3.43,3.71,7.21,6,10.53a26.16,26.16,0,0,0,18.12,11.1,22.5,22.5,0,0,0,19.6-7.6c2.33-2.8,3.87-6.15,5.76-9.27a92.58,92.58,0,0,0,5.06-8.37c2.13-4.55,2.72-9.65,3.11-14.66a58,58,0,0,0-.31-14.66,24,24,0,0,0-6.4-13,36.43,36.43,0,0,0-7.34-5.12c-4.41-2.58-8.9-5.18-13.84-6.45s-10.5-1.08-14.8,1.68c-1.84,1.19-3.45,2.72-5.33,3.85s-4.13,1.56-6.29,2.31A16.62,16.62,0,0,0,508.81,1005.77Z" transform="translate(-25.57 -32.48)" fill="#cd8809"></path><path d="M598.15,1015.53s-21.3.62-25.32,9.26-4,65.75-4,65.75h91.37s2.1-60.3-2.18-66.06S598.15,1015.53,598.15,1015.53Z" transform="translate(-25.57 -32.48)" fill="#F4C629"></path><path d="M614.38,932.05c-5.4,2.26-8.9,7.5-11.65,12.66C590.85,967.05,587,993,587.92,1018.25c.28,8.13,1.07,16.38,4.14,23.9a7.23,7.23,0,0,0,2.33,3.4,7.85,7.85,0,0,0,4.26.92,451.88,451.88,0,0,0,48.4-1.55c5.4-19.81,10.85-39.9,11-60.44.06-10.79-1.45-21.81-6.36-31.42S638,935.41,627.5,933.12c-6.89-1.5-15.41.34-18.34,6.75" transform="translate(-25.57 -32.48)" fill="#473f47"></path><path d="M634.84,1208.76s4-133.77,7.12-138.32,29-14,61.19-11.67S745,1070.44,745,1070.44l8.26,138.32Z" transform="translate(-25.57 -32.48)" fill="#665966"></path><path d="M659.29,1138.14s16.19,7.34,18,12.9,6.38,57.72,6.38,57.72H557.4s7-60,12-65.13S632.46,1131.72,659.29,1138.14Z" transform="translate(-25.57 -32.48)" fill="#473f47"></path><path d="M601.5,1051.32c-1,.15-2.08,0-3.12.15a6.67,6.67,0,0,0-5.4,4.4,12.45,12.45,0,0,1-.82,2.41,16,16,0,0,1-1.88,2.08,5.39,5.39,0,0,0-.62,5.89,8.07,8.07,0,0,0-4.12,6.6c0,1.06.11,2.12,0,3.17-.3,3.29-3,5.79-4.38,8.78a12.18,12.18,0,0,0,5.79,15.62,10.1,10.1,0,0,0-.33,14c-2.82,2.29-5.74,4.72-7.12,8.08s-.62,7.9,2.61,9.56a8.14,8.14,0,0,0,6.21,13.62,10.23,10.23,0,0,0,11.59,13,45.33,45.33,0,0,0,1,13.39,33.62,33.62,0,0,0,19.52-1.38c2.59,1.83,5.27,3.7,8.36,4.37s6.74-.17,8.46-2.83c1-1.48,1.39-3.52,3-4.25a5.14,5.14,0,0,1,2.17-.31l11.33,0a3.77,3.77,0,0,0,2.39-.52,3.48,3.48,0,0,0,1-1.9,20.55,20.55,0,0,0,.34-9.39,7.42,7.42,0,0,0,4.08-9.75,15.65,15.65,0,0,1-1.39-2.89c-.4-1.68.38-3.39.69-5.09a9.3,9.3,0,0,0-1.46-6.84,6.06,6.06,0,0,1-1.29-2.37c-.17-1.16.56-2.24,1.14-3.26a15.16,15.16,0,0,0,1.18-12.14c-.47-1.42-1.17-2.84-1-4.32a10.32,10.32,0,0,1,.84-2.57,15.06,15.06,0,0,0-.73-12.42,9.83,9.83,0,0,1-1.37-3.16,8.24,8.24,0,0,1,.33-2.87,40,40,0,0,0,.38-15.75c-.51-2.94-1.61-6.13-4.27-7.48a3.67,3.67,0,0,1-1.52-1,3.31,3.31,0,0,1-.35-1.9,8.73,8.73,0,0,0-9.65-8c-1.55-6.15-9.67-9.56-15.14-6.34a8.1,8.1,0,0,0-7-6c-4.11-.34-6.23,3-9.2,4.63S604.81,1050.85,601.5,1051.32Z" transform="translate(-25.57 -32.48)" fill="#cd8809"></path><path d="M676.36,1054a2.63,2.63,0,0,1,1.56-.66c3.29-.48,6.58.54,9.84,1.18,7.62,1.49,15.47.92,23.22.51a1.3,1.3,0,0,1,.59.06,1.06,1.06,0,0,1,.47.53,3.61,3.61,0,0,1-.7,3.76,8.57,8.57,0,0,1-3.36,2.19,29.49,29.49,0,0,1-5.9,1.77,47.81,47.81,0,0,1-7.66.66c-4.73.09-9.64-.12-14.11-1.85a5.2,5.2,0,0,1-3.07-2.39C676.49,1058.32,675.09,1055.36,676.36,1054Z" transform="translate(-25.57 -32.48)" fill="#fff"></path><path d="M664.94,991.56a18.83,18.83,0,0,0-2.54,3.94c-2.31,4.75-2.86,10.16-2.93,15.45a33.5,33.5,0,0,0,2.15,13.42c1.8,4.39,4.78,7.71,7.29,11.72,2.14,3.44,3.71,7.21,6,10.53a26.21,26.21,0,0,0,18.12,11.11,22.55,22.55,0,0,0,19.6-7.6c2.33-2.8,3.87-6.16,5.76-9.27a92.74,92.74,0,0,0,5.06-8.38c2.13-4.55,2.72-9.65,3.11-14.66a57.91,57.91,0,0,0-.31-14.65,23.9,23.9,0,0,0-6.4-13,37,37,0,0,0-7.34-5.12c-4.41-2.57-8.9-5.17-13.84-6.45s-10.5-1.08-14.8,1.69c-1.84,1.19-3.45,2.71-5.33,3.84s-4.13,1.57-6.29,2.31A16.78,16.78,0,0,0,664.94,991.56Z" transform="translate(-25.57 -32.48)" fill="#cd8809"></path><path d="M703.72,1145.63s-21.3.61-25.32,9.26-4,68.07-4,68.07h91.37s2.1-62.62-2.18-68.38S703.72,1145.63,703.72,1145.63Z" transform="translate(-25.57 -32.48)" fill="#F4C629"></path><path d="M730.59,1059.75a17.45,17.45,0,0,0-13.08,1.2c-2.16,1.16-3,3.39-4.84,4.61-1.49,1-4.06-.17-5.3,1.65-1.44,2.12-2.42,5.63-3.57,8q-2.2,4.62-4,9.4a131,131,0,0,0-5.61,19.64,171,171,0,0,0-3.11,40.39c.28,8.12,1.06,16.37,4.14,23.89,3.37,8.22,18.95,5.85,25.81,5.74q18-.29,35.9-1.84a334,334,0,0,0-1.57-79.18c-.82-5.84-1.83-11.78-4.67-16.94C746.85,1069.33,739,1062,730.59,1059.75Z" transform="translate(-25.57 -32.48)" fill="#473f47"></path><path d="M709.13,918.27s-21.3.62-25.32,9.26-4,68.07-4,68.07h91.37s2.1-62.62-2.18-68.38S709.13,918.27,709.13,918.27Z" transform="translate(-25.57 -32.48)" fill="#F4C629"></path><path d="M736,832.39a17.46,17.46,0,0,0-13.08,1.21c-2.16,1.15-3,3.38-4.84,4.6-1.49,1-4.06-.16-5.3,1.65-1.44,2.12-2.42,5.63-3.57,8q-2.21,4.61-4,9.39a131.34,131.34,0,0,0-5.61,19.64,171,171,0,0,0-3.11,40.39c.28,8.12,1.06,16.37,4.14,23.89,3.37,8.22,18.94,5.85,25.81,5.75q18-.28,35.9-1.85a334,334,0,0,0-1.57-79.18c-.82-5.84-1.83-11.78-4.67-16.94C752.25,842,744.42,834.68,736,832.39Z" transform="translate(-25.57 -32.48)" fill="#473f47"></path><path d="M794.94,856.39s-21.3.62-25.31,9.26-4,65.75-4,65.75H857s2.1-60.3-2.19-66.06S794.94,856.39,794.94,856.39Z" transform="translate(-25.57 -32.48)" fill="#F4C629"></path><path d="M854.8,825.34c.05-10.79-1.45-21.81-6.36-31.41-9.82-19.19-38.89-33.13-50.68-7.58-4.71,10.21-3.9,22-2.83,33.18s2.25,22.87-1.85,33.33c-2.49,6.37-6.87,12-8.12,18.78-2.38,12.73,7.06,24.63,17.26,32.61,6.28,4.92,13.74,9.32,21.69,8.7,8.74-.68,16.13-7.58,19.4-15.72,4-9.84,2.38-20.68,5.55-30.83C852.91,853.45,854.73,838.88,854.8,825.34Z" transform="translate(-25.57 -32.48)" fill="#684712"></path><path d="M1058.87,871.4s-21.3.61-25.31,9.26-4,65.75-4,65.75h91.37s2.1-60.3-2.19-66.06S1058.87,871.4,1058.87,871.4Z" transform="translate(-25.57 -32.48)" fill="#F4C629"></path><path d="M1075.1,787.92c-5.4,2.25-8.9,7.49-11.65,12.66-11.88,22.33-15.69,48.26-14.8,73.54.28,8.12,1.06,16.37,4.14,23.9a7.13,7.13,0,0,0,2.33,3.39,7.73,7.73,0,0,0,4.26.93,454.4,454.4,0,0,0,48.39-1.55c5.41-19.81,10.86-39.91,11-60.45,0-10.78-1.45-21.8-6.37-31.41s-13.6-17.65-24.14-19.94c-6.88-1.5-15.41.33-18.34,6.75" transform="translate(-25.57 -32.48)" fill="#473f47"></path><path d="M807,1063.82s4-133.76,7.12-138.32,29-14,61.19-11.67,41.84,11.67,41.84,11.67l8.26,138.32Z" transform="translate(-25.57 -32.48)" fill="#665966"></path><path d="M831.43,993.2s16.18,7.35,18,12.9,6.38,57.72,6.38,57.72H729.54s7-60,12-65.12S804.6,986.79,831.43,993.2Z" transform="translate(-25.57 -32.48)" fill="#473f47"></path><path d="M773.64,906.39c-1,.14-2.08,0-3.12.15a6.67,6.67,0,0,0-5.4,4.4,12.35,12.35,0,0,1-.82,2.4,15.36,15.36,0,0,1-1.88,2.08,5.41,5.41,0,0,0-.62,5.9,8.07,8.07,0,0,0-4.12,6.6c0,1.05.11,2.11,0,3.17-.3,3.28-3,5.79-4.38,8.78a12.16,12.16,0,0,0,5.79,15.61,10.1,10.1,0,0,0-.33,14c-2.82,2.29-5.74,4.73-7.12,8.08s-.62,7.91,2.61,9.56a8.15,8.15,0,0,0,6.21,13.63,10.23,10.23,0,0,0,11.59,13,45.33,45.33,0,0,0,1,13.39,33.46,33.46,0,0,0,19.52-1.38c2.59,1.83,5.26,3.7,8.36,4.37s6.74-.17,8.46-2.82c1-1.49,1.39-3.53,3-4.26a5.3,5.3,0,0,1,2.17-.3l11.33,0a3.84,3.84,0,0,0,2.39-.53,3.49,3.49,0,0,0,1-1.89,20.56,20.56,0,0,0,.34-9.39,7.43,7.43,0,0,0,4.08-9.76,15.57,15.57,0,0,1-1.39-2.88c-.41-1.69.38-3.39.69-5.1a9.27,9.27,0,0,0-1.46-6.83,6.06,6.06,0,0,1-1.29-2.37c-.17-1.17.56-2.24,1.14-3.26a15.16,15.16,0,0,0,1.18-12.14c-.47-1.42-1.17-2.84-1-4.33a10.45,10.45,0,0,1,.84-2.57,15,15,0,0,0-.73-12.41,9.88,9.88,0,0,1-1.37-3.17,8.27,8.27,0,0,1,.33-2.87,39.92,39.92,0,0,0,.38-15.74c-.51-2.94-1.61-6.14-4.27-7.48a3.79,3.79,0,0,1-1.52-1,3.28,3.28,0,0,1-.35-1.9,8.75,8.75,0,0,0-9.65-8c-1.55-6.15-9.67-9.55-15.14-6.34a8.1,8.1,0,0,0-7-6c-4.11-.33-6.23,3.06-9.2,4.63S777,905.92,773.64,906.39Z" transform="translate(-25.57 -32.48)" fill="#cd8809"></path><path d="M848.5,909a2.51,2.51,0,0,1,1.56-.66c3.29-.49,6.58.53,9.84,1.17,7.62,1.5,15.47.92,23.22.52a1.3,1.3,0,0,1,.59.06,1.06,1.06,0,0,1,.47.53,3.62,3.62,0,0,1-.7,3.76,8.54,8.54,0,0,1-3.36,2.18,29,29,0,0,1-5.9,1.77,46.69,46.69,0,0,1-7.66.66c-4.73.1-9.64-.11-14.11-1.85a5.16,5.16,0,0,1-3.07-2.39C848.63,913.39,847.23,910.43,848.5,909Z" transform="translate(-25.57 -32.48)" fill="#fff"></path><path d="M837.08,846.63a18.76,18.76,0,0,0-2.54,3.93c-2.31,4.75-2.86,10.17-2.93,15.46a33.5,33.5,0,0,0,2.15,13.42c1.8,4.39,4.78,7.7,7.29,11.72,2.14,3.43,3.71,7.21,6,10.53a26.16,26.16,0,0,0,18.12,11.1,22.5,22.5,0,0,0,19.6-7.6c2.33-2.8,3.87-6.15,5.76-9.27a92.58,92.58,0,0,0,5.06-8.37c2.13-4.55,2.72-9.65,3.11-14.66a58,58,0,0,0-.31-14.66,24,24,0,0,0-6.4-13,36.15,36.15,0,0,0-7.34-5.12c-4.41-2.57-8.9-5.18-13.84-6.45s-10.5-1.08-14.8,1.69c-1.84,1.18-3.45,2.71-5.33,3.84s-4.13,1.56-6.29,2.31A16.62,16.62,0,0,0,837.08,846.63Z" transform="translate(-25.57 -32.48)" fill="#473f47"></path><path d="M938.45,1063.82s4-133.76,7.12-138.32,29-14,61.2-11.67,41.84,11.67,41.84,11.67l8.25,138.32Z" transform="translate(-25.57 -32.48)" fill="#665966"></path><path d="M962.91,993.2s16.18,7.35,18,12.9,6.38,57.72,6.38,57.72H861s7-60,12-65.12S936.08,986.79,962.91,993.2Z" transform="translate(-25.57 -32.48)" fill="#473f47"></path><path d="M905.11,906.39c-1,.14-2.08,0-3.11.15a6.67,6.67,0,0,0-5.41,4.4,12.35,12.35,0,0,1-.82,2.4,16,16,0,0,1-1.87,2.08,5.39,5.39,0,0,0-.62,5.9,8.06,8.06,0,0,0-4.13,6.6c0,1.05.12,2.11,0,3.17-.3,3.28-3,5.79-4.38,8.78a12.16,12.16,0,0,0,5.79,15.61,10.11,10.11,0,0,0-.33,14c-2.81,2.29-5.74,4.73-7.12,8.08s-.62,7.91,2.61,9.56a8.15,8.15,0,0,0,6.21,13.63,10.24,10.24,0,0,0,11.6,13,45.66,45.66,0,0,0,1,13.39,33.5,33.5,0,0,0,19.53-1.38c2.58,1.83,5.26,3.7,8.35,4.37s6.74-.17,8.47-2.82c1-1.49,1.38-3.53,3-4.26a5.34,5.34,0,0,1,2.18-.3l11.33,0a3.79,3.79,0,0,0,2.38-.53,3.43,3.43,0,0,0,1-1.89,20.42,20.42,0,0,0,.34-9.39,7.43,7.43,0,0,0,4.08-9.76,15.57,15.57,0,0,1-1.39-2.88c-.4-1.69.39-3.39.69-5.1a9.27,9.27,0,0,0-1.46-6.83,6.06,6.06,0,0,1-1.29-2.37c-.17-1.17.56-2.24,1.14-3.26a15.2,15.2,0,0,0,1.19-12.14c-.48-1.42-1.17-2.84-1-4.33a10.45,10.45,0,0,1,.84-2.57,15.07,15.07,0,0,0-.72-12.41,9.9,9.9,0,0,1-1.38-3.17,8.27,8.27,0,0,1,.33-2.87,40.11,40.11,0,0,0,.39-15.74c-.52-2.94-1.62-6.14-4.28-7.48a3.86,3.86,0,0,1-1.52-1,3.36,3.36,0,0,1-.35-1.9,8.75,8.75,0,0,0-9.65-8c-1.54-6.15-9.67-9.55-15.13-6.34a8.12,8.12,0,0,0-7-6c-4.11-.33-6.24,3.06-9.2,4.63S908.42,905.92,905.11,906.39Z" transform="translate(-25.57 -32.48)" fill="#684712"></path><path d="M980,909a2.51,2.51,0,0,1,1.56-.66c3.29-.49,6.58.53,9.84,1.17,7.62,1.5,15.47.92,23.22.52a1.36,1.36,0,0,1,.6.06,1,1,0,0,1,.46.53,3.62,3.62,0,0,1-.7,3.76,8.51,8.51,0,0,1-3.35,2.18,29.13,29.13,0,0,1-5.91,1.77A46.66,46.66,0,0,1,998,919c-4.74.1-9.65-.11-14.11-1.85a5.15,5.15,0,0,1-3.08-2.39C980.1,913.39,978.7,910.43,980,909Z" transform="translate(-25.57 -32.48)" fill="#fff"></path><path d="M968.56,846.63a18.8,18.8,0,0,0-2.55,3.93c-2.31,4.75-2.86,10.17-2.93,15.46a33.5,33.5,0,0,0,2.15,13.42c1.8,4.39,4.79,7.7,7.29,11.72,2.14,3.43,3.71,7.21,6,10.53a26.12,26.12,0,0,0,18.12,11.1,22.51,22.51,0,0,0,19.6-7.6c2.32-2.8,3.86-6.15,5.75-9.27,1.69-2.79,3.68-5.41,5.06-8.37,2.13-4.55,2.73-9.65,3.11-14.66a58,58,0,0,0-.31-14.66,23.9,23.9,0,0,0-6.4-13,36.36,36.36,0,0,0-7.33-5.12c-4.42-2.57-8.9-5.18-13.85-6.45s-10.5-1.08-14.79,1.69c-1.84,1.18-3.46,2.71-5.33,3.84s-4.13,1.56-6.29,2.31A16.56,16.56,0,0,0,968.56,846.63Z" transform="translate(-25.57 -32.48)" fill="#af7210"></path><path d="M1032,986.49s-21.3.62-25.32,9.26-4,68.07-4,68.07H1094s2.1-62.62-2.18-68.38S1032,986.49,1032,986.49Z" transform="translate(-25.57 -32.48)" fill="#F4C629"></path><path d="M1058.86,900.61a17.46,17.46,0,0,0-13.08,1.21c-2.16,1.15-3,3.38-4.84,4.6-1.49,1-4.06-.16-5.29,1.65-1.45,2.12-2.43,5.63-3.57,8q-2.22,4.6-4,9.39a131,131,0,0,0-5.61,19.64,171,171,0,0,0-3.11,40.39c.28,8.12,1.06,16.37,4.14,23.89,3.37,8.22,19,5.85,25.81,5.74q18-.28,35.9-1.84a334,334,0,0,0-1.57-79.18c-.82-5.84-1.83-11.78-4.67-16.94C1075.12,910.19,1067.28,902.9,1058.86,900.61Z" transform="translate(-25.57 -32.48)" fill="#473f47"></path><path d="M709.13,1145.68s-21.3.61-25.32,9.26-4,68.07-4,68.07h91.37s2.1-62.62-2.18-68.38S709.13,1145.68,709.13,1145.68Z" transform="translate(-25.57 -32.48)" fill="#F4C629"></path><path d="M736,1059.8a17.45,17.45,0,0,0-13.08,1.2c-2.16,1.16-3,3.39-4.84,4.61-1.49,1-4.06-.17-5.3,1.65-1.44,2.12-2.42,5.63-3.57,8q-2.21,4.62-4,9.4a131,131,0,0,0-5.61,19.64,171,171,0,0,0-3.11,40.39c.28,8.12,1.06,16.37,4.14,23.89,3.37,8.22,18.94,5.85,25.81,5.74q18-.28,35.9-1.84a334,334,0,0,0-1.57-79.18c-.82-5.84-1.83-11.78-4.67-16.94C752.25,1069.38,744.42,1062.09,736,1059.8Z" transform="translate(-25.57 -32.48)" fill="#473f47"></path><path d="M794.94,1083.8s-21.3.62-25.31,9.26-4,65.75-4,65.75H857s2.1-60.3-2.19-66.06S794.94,1083.8,794.94,1083.8Z" transform="translate(-25.57 -32.48)" fill="#F4C629"></path><path d="M811.18,1000.32c-5.41,2.26-8.91,7.5-11.66,12.66-11.88,22.34-15.69,48.26-14.8,73.54.28,8.13,1.06,16.38,4.14,23.9a7.23,7.23,0,0,0,2.33,3.4,7.83,7.83,0,0,0,4.26.92,451.77,451.77,0,0,0,48.39-1.55c5.41-19.81,10.86-39.9,11-60.44.05-10.79-1.45-21.81-6.36-31.42s-13.61-17.65-24.15-19.94c-6.88-1.5-15.4.34-18.34,6.75" transform="translate(-25.57 -32.48)" fill="#473f47"></path><path d="M807,1291.23s4-133.76,7.12-138.32,29-14,61.19-11.67,41.84,11.67,41.84,11.67l8.26,138.32Z" transform="translate(-25.57 -32.48)" fill="#665966"></path><path d="M831.43,1220.61s16.18,7.35,18,12.9,6.38,57.72,6.38,57.72H729.54s7-60,12-65.13S804.6,1214.2,831.43,1220.61Z" transform="translate(-25.57 -32.48)" fill="#473f47"></path><path d="M773.64,1133.8c-1,.14-2.08,0-3.12.14a6.68,6.68,0,0,0-5.4,4.41,12.35,12.35,0,0,1-.82,2.4,15.36,15.36,0,0,1-1.88,2.08,5.41,5.41,0,0,0-.62,5.9,8.07,8.07,0,0,0-4.12,6.6c0,1.05.11,2.11,0,3.16-.3,3.29-3,5.8-4.38,8.79a12.16,12.16,0,0,0,5.79,15.61,10.1,10.1,0,0,0-.33,14c-2.82,2.29-5.74,4.73-7.12,8.08s-.62,7.9,2.61,9.56a8.14,8.14,0,0,0,6.21,13.62,10.23,10.23,0,0,0,11.59,13,45.33,45.33,0,0,0,1,13.39,33.46,33.46,0,0,0,19.52-1.38c2.59,1.83,5.26,3.7,8.36,4.37s6.74-.17,8.46-2.83c1-1.48,1.39-3.52,3-4.25a5.3,5.3,0,0,1,2.17-.3l11.33,0a3.84,3.84,0,0,0,2.39-.53,3.49,3.49,0,0,0,1-1.89,20.56,20.56,0,0,0,.34-9.39,7.43,7.43,0,0,0,4.08-9.76,15.57,15.57,0,0,1-1.39-2.88c-.41-1.69.38-3.39.69-5.1a9.27,9.27,0,0,0-1.46-6.83,6.06,6.06,0,0,1-1.29-2.37c-.17-1.17.56-2.24,1.14-3.27a15.15,15.15,0,0,0,1.18-12.14c-.47-1.41-1.17-2.83-1-4.32a10.32,10.32,0,0,1,.84-2.57,15.06,15.06,0,0,0-.73-12.42,9.73,9.73,0,0,1-1.37-3.16,8.27,8.27,0,0,1,.33-2.87,40,40,0,0,0,.38-15.75c-.51-2.93-1.61-6.13-4.27-7.47a3.79,3.79,0,0,1-1.52-1,3.28,3.28,0,0,1-.35-1.9,8.75,8.75,0,0,0-9.65-8c-1.55-6.15-9.67-9.55-15.14-6.34a8.1,8.1,0,0,0-7-6c-4.11-.33-6.23,3.06-9.2,4.63S777,1133.33,773.64,1133.8Z" transform="translate(-25.57 -32.48)" fill="#cd8809"></path><path d="M848.5,1136.43a2.51,2.51,0,0,1,1.56-.66c3.29-.49,6.58.53,9.84,1.17,7.62,1.5,15.47.92,23.22.52a1.17,1.17,0,0,1,.59.06,1.06,1.06,0,0,1,.47.53,3.62,3.62,0,0,1-.7,3.76,8.54,8.54,0,0,1-3.36,2.18,29,29,0,0,1-5.9,1.77,46.69,46.69,0,0,1-7.66.66c-4.73.09-9.64-.11-14.11-1.85a5.2,5.2,0,0,1-3.07-2.39C848.63,1140.8,847.23,1137.84,848.5,1136.43Z" transform="translate(-25.57 -32.48)" fill="#fff"></path><path d="M837.08,1074a18.76,18.76,0,0,0-2.54,3.93c-2.31,4.75-2.86,10.17-2.93,15.45a33.54,33.54,0,0,0,2.15,13.43c1.8,4.39,4.78,7.7,7.29,11.72,2.14,3.43,3.71,7.21,6,10.53a26.2,26.2,0,0,0,18.12,11.1,22.5,22.5,0,0,0,19.6-7.6c2.33-2.8,3.87-6.15,5.76-9.27a92.58,92.58,0,0,0,5.06-8.37c2.13-4.55,2.72-9.65,3.11-14.66a58,58,0,0,0-.31-14.66,24,24,0,0,0-6.4-13,36.15,36.15,0,0,0-7.34-5.12c-4.41-2.58-8.9-5.18-13.84-6.45s-10.5-1.08-14.8,1.68c-1.84,1.19-3.45,2.72-5.33,3.85s-4.13,1.56-6.29,2.31A16.62,16.62,0,0,0,837.08,1074Z" transform="translate(-25.57 -32.48)" fill="#cd8809"></path><path d="M926.42,1083.8s-21.3.62-25.32,9.26-4,65.75-4,65.75h91.37s2.1-60.3-2.18-66.06S926.42,1083.8,926.42,1083.8Z" transform="translate(-25.57 -32.48)" fill="#F4C629"></path><path d="M942.65,1000.32c-5.4,2.26-8.9,7.5-11.65,12.66-11.88,22.34-15.69,48.26-14.81,73.54.29,8.13,1.07,16.38,4.14,23.9a7.23,7.23,0,0,0,2.33,3.4,7.85,7.85,0,0,0,4.26.92,451.88,451.88,0,0,0,48.4-1.55c5.41-19.81,10.85-39.9,10.95-60.44.06-10.79-1.45-21.81-6.36-31.42s-13.6-17.65-24.14-19.94c-6.89-1.5-15.41.34-18.34,6.75" transform="translate(-25.57 -32.48)" fill="#473f47"></path><path d="M963.11,1277s4-133.77,7.12-138.32,29-14,61.19-11.67,41.84,11.67,41.84,11.67l8.26,138.32Z" transform="translate(-25.57 -32.48)" fill="#665966"></path><path d="M987.57,1206.41s16.18,7.34,18,12.9S1012,1277,1012,1277H885.67s7-60,12-65.13S960.74,1200,987.57,1206.41Z" transform="translate(-25.57 -32.48)" fill="#473f47"></path><path d="M929.77,1119.59c-1,.15-2.08,0-3.12.15a6.67,6.67,0,0,0-5.4,4.4,12.45,12.45,0,0,1-.82,2.41,16,16,0,0,1-1.88,2.08,5.39,5.39,0,0,0-.62,5.89,8.07,8.07,0,0,0-4.12,6.6c0,1.06.11,2.12,0,3.17-.3,3.29-3,5.79-4.38,8.78a12.18,12.18,0,0,0,5.79,15.62,10.1,10.1,0,0,0-.33,14c-2.82,2.29-5.74,4.72-7.12,8.08s-.62,7.9,2.61,9.56a8.14,8.14,0,0,0,6.21,13.62,10.24,10.24,0,0,0,11.59,13,45.33,45.33,0,0,0,1,13.39,33.66,33.66,0,0,0,19.53-1.38c2.58,1.83,5.26,3.7,8.35,4.37s6.74-.17,8.46-2.83c1-1.48,1.39-3.52,3-4.25a5.14,5.14,0,0,1,2.17-.31l11.33,0a3.77,3.77,0,0,0,2.39-.52,3.42,3.42,0,0,0,1-1.9,20.41,20.41,0,0,0,.34-9.39,7.42,7.42,0,0,0,4.08-9.75,15.65,15.65,0,0,1-1.39-2.89c-.4-1.68.38-3.39.69-5.09a9.3,9.3,0,0,0-1.46-6.84,6.06,6.06,0,0,1-1.29-2.37c-.17-1.16.56-2.24,1.14-3.26a15.16,15.16,0,0,0,1.18-12.14c-.47-1.42-1.17-2.84-1-4.32a10.32,10.32,0,0,1,.84-2.57,15.06,15.06,0,0,0-.73-12.42,9.78,9.78,0,0,1-1.37-3.17,8.22,8.22,0,0,1,.33-2.86,40,40,0,0,0,.38-15.75c-.51-2.94-1.61-6.13-4.27-7.48a3.67,3.67,0,0,1-1.52-1,3.31,3.31,0,0,1-.35-1.9,8.73,8.73,0,0,0-9.65-8c-1.55-6.15-9.67-9.56-15.14-6.34a8.1,8.1,0,0,0-7-6c-4.1-.34-6.23,3-9.2,4.63S933.08,1119.12,929.77,1119.59Z" transform="translate(-25.57 -32.48)" fill="#cd8809"></path><path d="M1004.63,1122.22a2.63,2.63,0,0,1,1.56-.66c3.29-.48,6.58.54,9.84,1.18,7.62,1.49,15.47.92,23.22.51a1.3,1.3,0,0,1,.59.06,1,1,0,0,1,.47.53,3.61,3.61,0,0,1-.7,3.76,8.57,8.57,0,0,1-3.36,2.19,29.49,29.49,0,0,1-5.9,1.77,47.81,47.81,0,0,1-7.66.66c-4.73.09-9.64-.12-14.11-1.85a5.2,5.2,0,0,1-3.07-2.39C1004.76,1126.59,1003.36,1123.63,1004.63,1122.22Z" transform="translate(-25.57 -32.48)" fill="#fff"></path><path d="M993.22,1059.83a18.66,18.66,0,0,0-2.55,3.93c-2.31,4.76-2.86,10.17-2.93,15.46a33.5,33.5,0,0,0,2.15,13.42c1.8,4.39,4.78,7.71,7.29,11.72,2.14,3.44,3.71,7.21,6,10.53a26.21,26.21,0,0,0,18.12,11.11,22.55,22.55,0,0,0,19.6-7.6c2.33-2.8,3.87-6.16,5.76-9.27a92.74,92.74,0,0,0,5.06-8.38c2.13-4.55,2.72-9.65,3.11-14.66a57.91,57.91,0,0,0-.31-14.65,23.9,23.9,0,0,0-6.4-13,37,37,0,0,0-7.34-5.12c-4.41-2.57-8.9-5.17-13.84-6.45s-10.5-1.08-14.8,1.69c-1.84,1.19-3.45,2.71-5.33,3.84s-4.13,1.57-6.29,2.31A16.75,16.75,0,0,0,993.22,1059.83Z" transform="translate(-25.57 -32.48)" fill="#cd8809"></path><path d="M1166.23,1019.41s4-133.76,7.12-138.32,29-13.94,61.2-11.67,41.84,11.67,41.84,11.67l8.25,138.32Z" transform="translate(-25.57 -32.48)" fill="#665966"></path><path d="M1188.84,923.79s16.18,7.35,18,12.9,6.38,57.72,6.38,57.72H1086.94s7-60,12-65.13S1162,917.38,1188.84,923.79Z" transform="translate(-25.57 -32.48)" fill="#473f47"></path><path d="M1131,837c-1,.14-2.08,0-3.12.14a6.68,6.68,0,0,0-5.4,4.41,12.35,12.35,0,0,1-.82,2.4,15.36,15.36,0,0,1-1.88,2.08,5.41,5.41,0,0,0-.62,5.9,8.06,8.06,0,0,0-4.12,6.6c0,1,.11,2.11,0,3.16-.3,3.29-3,5.79-4.38,8.79a12.17,12.17,0,0,0,5.79,15.61,10.1,10.1,0,0,0-.33,14c-2.82,2.29-5.74,4.73-7.12,8.08s-.62,7.9,2.61,9.56a8.14,8.14,0,0,0,6.21,13.62,10.23,10.23,0,0,0,11.59,13,45.33,45.33,0,0,0,1,13.39,33.5,33.5,0,0,0,19.53-1.38c2.58,1.83,5.26,3.7,8.35,4.37s6.74-.17,8.46-2.83c1-1.48,1.39-3.52,3-4.25a5.13,5.13,0,0,1,2.17-.3l11.33,0a3.84,3.84,0,0,0,2.39-.53,3.43,3.43,0,0,0,1-1.89,20.42,20.42,0,0,0,.34-9.39,7.43,7.43,0,0,0,4.08-9.76,15.65,15.65,0,0,1-1.39-2.89c-.4-1.68.38-3.39.69-5.09A9.27,9.27,0,0,0,1189,917a6.13,6.13,0,0,1-1.29-2.37c-.17-1.17.56-2.24,1.14-3.27a15.15,15.15,0,0,0,1.18-12.14c-.47-1.41-1.17-2.84-1-4.32a10.32,10.32,0,0,1,.84-2.57,15.06,15.06,0,0,0-.73-12.42,9.73,9.73,0,0,1-1.37-3.16,8.24,8.24,0,0,1,.33-2.87,40,40,0,0,0,.38-15.75c-.51-2.93-1.61-6.13-4.27-7.47a3.79,3.79,0,0,1-1.52-1,3.31,3.31,0,0,1-.35-1.9,8.75,8.75,0,0,0-9.65-8.05c-1.55-6.15-9.67-9.55-15.14-6.34a8.1,8.1,0,0,0-7-6c-4.1-.33-6.23,3.06-9.2,4.63S1134.35,836.51,1131,837Z" transform="translate(-25.57 -32.48)" fill="#cd8809"></path><path d="M1207.75,864.61a2.51,2.51,0,0,1,1.56-.66c3.29-.48,6.58.54,9.84,1.17,7.62,1.5,15.47.92,23.22.52a1.3,1.3,0,0,1,.59.06,1,1,0,0,1,.47.53,3.62,3.62,0,0,1-.7,3.76,8.6,8.6,0,0,1-3.35,2.19,29.75,29.75,0,0,1-5.91,1.76,46.66,46.66,0,0,1-7.65.66c-4.74.1-9.65-.11-14.11-1.85a5.12,5.12,0,0,1-3.08-2.39C1207.88,869,1206.48,866,1207.75,864.61Z" transform="translate(-25.57 -32.48)" fill="#fff"></path><path d="M1196.34,802.22a19.06,19.06,0,0,0-2.55,3.93c-2.31,4.76-2.86,10.17-2.93,15.46A33.5,33.5,0,0,0,1193,835c1.8,4.39,4.78,7.7,7.29,11.72,2.14,3.43,3.71,7.21,6,10.53a26.16,26.16,0,0,0,18.13,11.1,22.48,22.48,0,0,0,19.59-7.6c2.33-2.8,3.87-6.15,5.76-9.26,1.69-2.8,3.68-5.42,5.06-8.38,2.13-4.55,2.73-9.65,3.11-14.66a58,58,0,0,0-.31-14.66,23.9,23.9,0,0,0-6.4-13,36.55,36.55,0,0,0-7.34-5.12c-4.41-2.57-8.89-5.17-13.84-6.45s-10.5-1.08-14.79,1.69c-1.85,1.18-3.46,2.71-5.33,3.84s-4.13,1.57-6.29,2.31A16.72,16.72,0,0,0,1196.34,802.22Z" transform="translate(-25.57 -32.48)" fill="#cd8809"></path><path d="M1032,1213.9s-21.3.61-25.32,9.26-4,68.07-4,68.07H1094s2.1-62.62-2.18-68.38S1032,1213.9,1032,1213.9Z" transform="translate(-25.57 -32.48)" fill="#F4C629"></path><path d="M1058.86,1128a17.45,17.45,0,0,0-13.08,1.2c-2.16,1.16-3,3.39-4.84,4.61-1.49,1-4.06-.17-5.29,1.65-1.45,2.12-2.43,5.63-3.57,8q-2.22,4.6-4,9.4a131,131,0,0,0-5.61,19.64,171,171,0,0,0-3.11,40.39c.28,8.12,1.06,16.37,4.14,23.89,3.37,8.22,19,5.85,25.81,5.74q18-.29,35.9-1.84a334,334,0,0,0-1.57-79.18c-.82-5.84-1.83-11.78-4.67-16.94C1075.12,1137.6,1067.28,1130.31,1058.86,1128Z" transform="translate(-25.57 -32.48)" fill="#473f47"></path><path d="M54.89,1012.86s-21.3.61-25.31,9.26-4,68.07-4,68.07h91.37s2.1-62.62-2.19-68.38S54.89,1012.86,54.89,1012.86Z" transform="translate(-25.57 -32.48)" fill="#F4C629"></path><path d="M81.77,927a17.45,17.45,0,0,0-13.08,1.2c-2.17,1.15-3,3.38-4.84,4.61-1.5,1-4.06-.17-5.3,1.65-1.45,2.12-2.43,5.63-3.57,8q-2.2,4.6-4,9.4a131,131,0,0,0-5.62,19.64,171.47,171.47,0,0,0-3.11,40.38c.29,8.13,1.07,16.38,4.15,23.9,3.36,8.22,18.94,5.85,25.81,5.74q18-.29,35.9-1.84a333.57,333.57,0,0,0-1.58-79.19c-.81-5.83-1.83-11.77-4.66-16.93C98,936.56,90.18,929.27,81.77,927Z" transform="translate(-25.57 -32.48)" fill="#473f47"></path><path d="M140.71,951s-21.3.61-25.32,9.26-4,65.75-4,65.75h91.37s2.1-60.3-2.18-66.06S140.71,951,140.71,951Z" transform="translate(-25.57 -32.48)" fill="#F4C629"></path><path d="M189.61,980.37c3.15-.27,8.92-37.31,9.48-41.46.72-5.33,0-10.24,1.49-15.4,1.9-6.43,4.1-12.51,4.33-19.3a55,55,0,0,1,.39-8.12c.47-2.64,1.59-5.13,2.13-7.77,2.31-11.22-6.91-22.38-17.89-25.66s-22.86-.4-33.46,4a27.6,27.6,0,0,0-8.17,4.63c-4,3.61-5.94,9.1-6.68,14.48s-.5,10.84-1.1,16.24c-2,17.86-13.08,34.67-10.55,52.46,1.07,7.54,2.16,16.12,5,23.18A7.06,7.06,0,0,0,137,981a7.71,7.71,0,0,0,4.25.93A454.5,454.5,0,0,0,189.61,980.37Z" transform="translate(-25.57 -32.48)" fill="#5a3b27"></path><path d="M152.75,1158.41s4-133.77,7.11-138.32,29-14,61.2-11.67,41.84,11.67,41.84,11.67l8.25,138.32Z" transform="translate(-25.57 -32.48)" fill="#665966"></path><path d="M177.2,1087.79s16.18,7.34,18,12.9,6.38,57.72,6.38,57.72H75.31s6.94-60,12-65.13S150.37,1081.37,177.2,1087.79Z" transform="translate(-25.57 -32.48)" fill="#473f47"></path><path d="M119.4,1001c-1,.15-2.08,0-3.11.15a6.68,6.68,0,0,0-5.41,4.41,13,13,0,0,1-.81,2.4,17.57,17.57,0,0,1-1.88,2.08,5.37,5.37,0,0,0-.62,5.89,8.12,8.12,0,0,0-4.13,6.61c0,1,.12,2.11,0,3.16-.3,3.29-3,5.79-4.38,8.78a12.19,12.19,0,0,0,5.79,15.62,10.11,10.11,0,0,0-.33,14c-2.81,2.29-5.74,4.72-7.12,8.08s-.62,7.9,2.61,9.56a8.15,8.15,0,0,0,6.21,13.62,10.24,10.24,0,0,0,11.6,13,45.66,45.66,0,0,0,1,13.39,33.58,33.58,0,0,0,19.53-1.38c2.58,1.83,5.26,3.7,8.35,4.37s6.75-.17,8.47-2.83c1-1.48,1.38-3.52,3-4.25a5.35,5.35,0,0,1,2.18-.31l11.33,0a3.79,3.79,0,0,0,2.38-.53,3.42,3.42,0,0,0,1-1.9,20.38,20.38,0,0,0,.34-9.38,7.43,7.43,0,0,0,4.08-9.76,15.65,15.65,0,0,1-1.39-2.89c-.4-1.68.39-3.39.7-5.09a9.36,9.36,0,0,0-1.47-6.84,6.19,6.19,0,0,1-1.29-2.37c-.17-1.16.56-2.24,1.14-3.26a15.2,15.2,0,0,0,1.19-12.14c-.48-1.41-1.17-2.84-1-4.32a10.32,10.32,0,0,1,.84-2.57,15.1,15.1,0,0,0-.72-12.42,9.85,9.85,0,0,1-1.38-3.16,8.24,8.24,0,0,1,.33-2.87,40.16,40.16,0,0,0,.39-15.75c-.52-2.93-1.62-6.13-4.28-7.48a3.73,3.73,0,0,1-1.52-1,3.4,3.4,0,0,1-.35-1.9,8.74,8.74,0,0,0-9.65-8.05c-1.54-6.15-9.66-9.55-15.13-6.34a8.12,8.12,0,0,0-7-6c-4.11-.34-6.24,3.05-9.2,4.63S122.71,1000.51,119.4,1001Z" transform="translate(-25.57 -32.48)" fill="#cd8809"></path><path d="M194.26,1003.61a2.58,2.58,0,0,1,1.56-.67c3.29-.48,6.58.54,9.84,1.18,7.62,1.49,15.47.92,23.23.51a1.19,1.19,0,0,1,.59.07,1,1,0,0,1,.46.52,3.59,3.59,0,0,1-.7,3.76,8.42,8.42,0,0,1-3.35,2.19,28.94,28.94,0,0,1-5.91,1.77,46.66,46.66,0,0,1-7.65.66c-4.74.09-9.65-.12-14.11-1.85a5.19,5.19,0,0,1-3.08-2.39C194.39,1008,193,1005,194.26,1003.61Z" transform="translate(-25.57 -32.48)" fill="#fff"></path><path d="M182.85,941.21a19.13,19.13,0,0,0-2.55,3.94c-2.31,4.75-2.86,10.17-2.93,15.45A33.5,33.5,0,0,0,179.52,974c1.8,4.39,4.79,7.71,7.29,11.73,2.14,3.43,3.71,7.2,6,10.52A26.17,26.17,0,0,0,211,1007.38a22.56,22.56,0,0,0,19.6-7.6c2.32-2.8,3.87-6.15,5.75-9.27a91.68,91.68,0,0,0,5.06-8.37c2.13-4.55,2.73-9.66,3.11-14.67a57.91,57.91,0,0,0-.31-14.65,23.93,23.93,0,0,0-6.4-13,37.18,37.18,0,0,0-7.33-5.12c-4.42-2.57-8.9-5.17-13.85-6.45s-10.5-1.08-14.79,1.69c-1.84,1.19-3.46,2.71-5.33,3.85s-4.13,1.56-6.29,2.31A16.68,16.68,0,0,0,182.85,941.21Z" transform="translate(-25.57 -32.48)" fill="#cd8809"></path><path d="M272.18,951s-21.3.61-25.31,9.26-4,65.75-4,65.75h91.38s2.1-60.3-2.19-66.06S272.18,951,272.18,951Z" transform="translate(-25.57 -32.48)" fill="#F4C629"></path><path d="M288.41,867.5c-5.4,2.25-8.9,7.49-11.65,12.66-11.88,22.33-15.69,48.26-14.8,73.54.28,8.12,1.06,16.37,4.14,23.9a7.13,7.13,0,0,0,2.33,3.39,7.73,7.73,0,0,0,4.26.93,454.4,454.4,0,0,0,48.39-1.55c5.41-19.81,10.86-39.91,11-60.45,0-10.78-1.46-21.8-6.37-31.41s-13.6-17.65-24.14-19.94c-6.89-1.5-15.41.33-18.34,6.75" transform="translate(-25.57 -32.48)" fill="#473f47"></path><path d="M308.88,1144.2s4-133.76,7.11-138.32,29-13.94,61.2-11.67S419,1005.88,419,1005.88l8.25,138.32Z" transform="translate(-25.57 -32.48)" fill="#665966"></path><path d="M333.33,1073.59s16.18,7.34,18,12.9,6.38,57.71,6.38,57.71H231.44s6.94-60,12-65.12S306.5,1067.17,333.33,1073.59Z" transform="translate(-25.57 -32.48)" fill="#473f47"></path><path d="M275.53,986.77c-1,.14-2.08,0-3.11.15a6.67,6.67,0,0,0-5.41,4.4,12.78,12.78,0,0,1-.81,2.4,16.82,16.82,0,0,1-1.88,2.08,5.39,5.39,0,0,0-.62,5.9,8.11,8.11,0,0,0-4.13,6.6c0,1.06.12,2.12,0,3.17-.3,3.28-3,5.79-4.38,8.78a12.18,12.18,0,0,0,5.79,15.61,10.11,10.11,0,0,0-.32,14c-2.82,2.3-5.74,4.73-7.13,8.09s-.62,7.9,2.62,9.55a8.15,8.15,0,0,0,6.2,13.63,10.24,10.24,0,0,0,11.6,13,45.7,45.7,0,0,0,1,13.4,33.66,33.66,0,0,0,19.53-1.38c2.58,1.83,5.26,3.7,8.35,4.37s6.75-.18,8.47-2.83c1-1.49,1.38-3.53,3-4.25a5.18,5.18,0,0,1,2.18-.31l11.33,0a3.79,3.79,0,0,0,2.38-.53,3.51,3.51,0,0,0,1-1.89,20.55,20.55,0,0,0,.33-9.39,7.42,7.42,0,0,0,4.08-9.76,15.27,15.27,0,0,1-1.39-2.88c-.4-1.68.39-3.39.7-5.09a9.34,9.34,0,0,0-1.47-6.84,6.19,6.19,0,0,1-1.29-2.37c-.17-1.16.56-2.24,1.14-3.26a15.2,15.2,0,0,0,1.19-12.14c-.48-1.42-1.17-2.84-1-4.33a10.38,10.38,0,0,1,.84-2.56,15.09,15.09,0,0,0-.72-12.42,9.81,9.81,0,0,1-1.38-3.17,8,8,0,0,1,.34-2.87,40.1,40.1,0,0,0,.38-15.74c-.52-2.94-1.62-6.14-4.28-7.48a3.86,3.86,0,0,1-1.52-1,3.45,3.45,0,0,1-.35-1.9,8.73,8.73,0,0,0-9.65-8c-1.54-6.16-9.66-9.56-15.13-6.35a8.09,8.09,0,0,0-7-6c-4.11-.34-6.23,3-9.2,4.62S278.84,986.3,275.53,986.77Z" transform="translate(-25.57 -32.48)" fill="#cd8809"></path><path d="M350.4,989.4a2.49,2.49,0,0,1,1.56-.66c3.28-.48,6.57.54,9.83,1.17,7.62,1.5,15.47.92,23.23.52a1.31,1.31,0,0,1,.59.06,1,1,0,0,1,.46.53,3.61,3.61,0,0,1-.69,3.76A8.64,8.64,0,0,1,382,997a29.55,29.55,0,0,1-5.91,1.76,46.66,46.66,0,0,1-7.65.66c-4.74.1-9.64-.11-14.11-1.85a5.15,5.15,0,0,1-3.08-2.39C350.52,993.77,349.12,990.81,350.4,989.4Z" transform="translate(-25.57 -32.48)" fill="#fff"></path><path d="M339,927a19.48,19.48,0,0,0-2.55,3.93c-2.31,4.76-2.86,10.17-2.93,15.46a33.5,33.5,0,0,0,2.15,13.42c1.81,4.39,4.79,7.7,7.29,11.72,2.15,3.43,3.72,7.21,6,10.53a26.12,26.12,0,0,0,18.12,11.1,22.51,22.51,0,0,0,19.6-7.6c2.33-2.8,3.87-6.15,5.75-9.26,1.69-2.8,3.68-5.42,5.06-8.38,2.13-4.55,2.73-9.65,3.11-14.66a57.52,57.52,0,0,0-.31-14.66,23.9,23.9,0,0,0-6.4-13,36.77,36.77,0,0,0-7.33-5.12c-4.42-2.57-8.9-5.17-13.85-6.45s-10.5-1.08-14.79,1.69c-1.84,1.18-3.46,2.71-5.33,3.84s-4.13,1.57-6.29,2.31A16.78,16.78,0,0,0,339,927Z" transform="translate(-25.57 -32.48)" fill="#cd8809"></path><path d="M377.75,1081.07s-21.3.62-25.31,9.27-4,68.07-4,68.07H439.8s2.1-62.62-2.19-68.38S377.75,1081.07,377.75,1081.07Z" transform="translate(-25.57 -32.48)" fill="#F4C629"></path><path d="M404.63,995.2a17.45,17.45,0,0,0-13.08,1.2c-2.17,1.15-3.05,3.38-4.84,4.61-1.5,1-4.06-.17-5.3,1.65-1.45,2.12-2.43,5.63-3.57,8q-2.2,4.61-4,9.4a131,131,0,0,0-5.62,19.64,171.47,171.47,0,0,0-3.11,40.38c.29,8.13,1.07,16.38,4.15,23.9,3.36,8.22,18.94,5.85,25.81,5.74q18-.29,35.9-1.85a333.5,333.5,0,0,0-1.58-79.18c-.81-5.83-1.83-11.77-4.66-16.93C420.88,1004.78,413,997.49,404.63,995.2Z" transform="translate(-25.57 -32.48)" fill="#473f47"></path></g><rect x="381.41" y="484.99" width="181.51" height="68.53" fill="#F4C629"></rect><path d="M486.16,418s-24.54,11.06-26,14,0,85.52,0,85.52h86.49l-5-87.07L516.39,420Z" transform="translate(-25.57 -32.48)" fill="#F4C629"></path><path d="M546.67,517.48h-86.5s-1.45-82.62,0-85.55,26-13.94,26-13.94l30.23,2,25.29,10.36,2.4,41.8Z" transform="translate(-25.57 -32.48)" fill="url(#linear-gradient-4)"></path><path d="M486.16,418l12.34,35.27,5.75,26.86s11.61-46.24,12.35-59.93Z" transform="translate(-25.57 -32.48)" fill="#fff"></path><path d="M486.77,406.24s1.77,9.29-.61,11.75c0,0,7.63,12.89,17.08,11.89,10.68-1.14,12-8.28,13.15-9.84,0,0-2.48.83-2.38-9.83S486.77,406.24,486.77,406.24Z" transform="translate(-25.57 -32.48)" fill="#f4dbbd"></path><path d="M486.77,406.24s3.5,18.6,14.5,17.49a14,14,0,0,0,12.78-10.81Z" transform="translate(-25.57 -32.48)" fill="#e0be99"></path><path d="M485.81,403a27.29,27.29,0,0,0,3.43,8.39c4.52,6.61,14.77,8.63,21.56,4.25,3.78-2.44,6.3-6.37,8.14-10.41a49.3,49.3,0,0,0,3.82-28c-.58-3.64-1.64-7.36-4.08-10.18-4-4.63-10.87-5.84-17.08-5.51-5.58.29-11.33,1.68-15.55,5.25a16.7,16.7,0,0,0-5.21,16.32C482.46,389.76,484,396.46,485.81,403Z" transform="translate(-25.57 -32.48)" fill="#f4dbbd"></path><path d="M612.65,424.27c.4-.64,1.21-1.34,1.79-.86a1.37,1.37,0,0,1,.36.83,19.14,19.14,0,0,1-.55,8.64A108.44,108.44,0,0,1,624.76,416c.71-.93,1.83-2,2.87-1.43a24.76,24.76,0,0,1-4.41,12.2,26.93,26.93,0,0,1,8.28-10.95c.74,4.62-1.62,9.11-3.9,13.19a35.75,35.75,0,0,1,6.62-8.51c1,1.43.18,3.36-.64,4.89l-4.36,8.19a28.1,28.1,0,0,1,5.75-7.17c.64,1.35-.14,2.91-.91,4.19l-7.95,13.34a28.54,28.54,0,0,1-4.19,5.84c-2,2-4.57,3.31-6.56,5.29-3.65,3.62-5.66,8.93-11.23,4.88-3.08-2.25-2.4-4.87-1.12-8C606.69,442.84,607.68,432.78,612.65,424.27Z" transform="translate(-25.57 -32.48)" fill="#f4dbbd"></path><path d="M481,385.5c-1.2-.52-2.79-.55-3.63.46a3.23,3.23,0,0,0-.57,1.23c-.63,2.48.24,5.11,1.5,7.33a5.5,5.5,0,0,0,1.29,1.66,6.3,6.3,0,0,0,3.64,1,1.92,1.92,0,0,0,.86-.08,1.53,1.53,0,0,0,.59-.45,4.82,4.82,0,0,0,1-3.68C485.37,390.08,483.69,386.69,481,385.5Z" transform="translate(-25.57 -32.48)" fill="#f4dbbd"></path><path d="M523.71,396.59c-1.2.52-2.79.55-3.63-.46a3.2,3.2,0,0,1-.57-1.24c-.63-2.47.24-5.1,1.5-7.33a5.5,5.5,0,0,1,1.29-1.65,6.22,6.22,0,0,1,3.64-1,1.92,1.92,0,0,1,.86.07,1.48,1.48,0,0,1,.59.46,4.8,4.8,0,0,1,1,3.67C528.13,392,526.45,395.39,523.71,396.59Z" transform="translate(-25.57 -32.48)" fill="#f4dbbd"></path><path d="M476.83,374.34a12.93,12.93,0,0,1,0-4.6,5.23,5.23,0,0,1,2.64-3.62,17,17,0,0,1,9.29-13.58c4.82-2.36,10.45-2.26,15.79-1.74a34.77,34.77,0,0,1,6.33,1.08c4.83,1.4,9,4.53,13.8,6,1.43.44,3.07.86,3.81,2.16a4.48,4.48,0,0,1,0,3.52,12.5,12.5,0,0,0-.89,3.51,12,12,0,0,0,.64,3.05,14.29,14.29,0,0,1-1.65,10.91c-1.18,1.91-2.83,3.56-3.6,5.67A30.62,30.62,0,0,1,518.2,372c-4.69,2-10,2-15.07,1.36s-10-2-15.1-2.55a2,2,0,0,0-1.77.4,2.22,2.22,0,0,0-.28,1.57c.08,2.94-1.6,5.58-2.71,8.3a22,22,0,0,0-1.63,7.8,4.63,4.63,0,0,0-1.39-3.07,8.5,8.5,0,0,1-1.39-2.85A48.1,48.1,0,0,1,476.83,374.34Z" transform="translate(-25.57 -32.48)" fill="#fc682d"></path><path d="M618.57,464s-32.17,33.55-38.45,33.16A8.73,8.73,0,0,1,577,496c-.53-.26-1-.55-1.61-.88-1.88-1.09-4.08-2.54-6.48-4.21-.76-.5-1.58-1.06-2.37-1.65l-1.94-1.38c-1.58-1.15-3.19-2.33-4.84-3.58l-2.73-2a3.32,3.32,0,0,0-.49-.37c-3.42-2.59-6.81-5.23-9.87-7.63-.92-.72-1.77-1.41-2.63-2.07l-2.4-41.8L582.13,464l17.4-16.8Z" transform="translate(-25.57 -32.48)" fill="#F4C629"></path><path d="M618.57,464l-.07.1c-1.64,1.68-32.26,33.45-38.38,33.06A8.73,8.73,0,0,1,577,496c-.53-.26-1-.55-1.61-.88-1.88-1.09-4.08-2.54-6.48-4.21-.76-.53-1.55-1.09-2.37-1.65l-1.94-1.38c-1.58-1.15-3.19-2.33-4.84-3.58l-2.73-2a3.32,3.32,0,0,0-.49-.37c-3.42-2.59-6.81-5.23-9.87-7.63-.92-.72-1.77-1.41-2.63-2.07l-.62-10.82-1.78-31L582.13,464l17.4-16.8,14.34,12.66Z" transform="translate(-25.57 -32.48)" fill="url(#linear-gradient-5)"></path><path d="M460.17,432s-8.07,12.54-12.63,31.84S433,517.47,433,517.47h27.13Z" transform="translate(-25.57 -32.48)" fill="#F4C629"></path><path d="M460.17,432s-8.07,12.54-12.63,31.84S433,517.47,433,517.47h27.13Z" transform="translate(-25.57 -32.48)" fill="url(#linear-gradient-6)"></path><path d="M478.68,392a5.61,5.61,0,0,0,1.69,2.3,2,2,0,0,0,2.38.14A.71.71,0,0,0,483,394a1,1,0,0,0-.1-.71l-.17-.46a1.27,1.27,0,0,0-.18-.37c-.32-.41-1-.35-1.41-.6s-.65-.91-.91-1.37a1.21,1.21,0,0,0-1.06-.74,1,1,0,0,0-.81.92A2.47,2.47,0,0,0,478.68,392Z" transform="translate(-25.57 -32.48)" fill="#e0be99"></path><path d="M526.53,391.06a5.7,5.7,0,0,1-1.69,2.3,2,2,0,0,1-2.38.14.78.78,0,0,1-.29-.38,1.11,1.11,0,0,1,.1-.71l.17-.46a1.59,1.59,0,0,1,.18-.37c.32-.41,1-.35,1.41-.6s.65-.91.91-1.37a1.22,1.22,0,0,1,1.07-.74,1,1,0,0,1,.81.92A2.47,2.47,0,0,1,526.53,391.06Z" transform="translate(-25.57 -32.48)" fill="#e0be99"></path><path d="M486.16,418l-5.77,2.67,2.89,26.66,15.22,5.94S492.1,433.66,486.16,418Z" transform="translate(-25.57 -32.48)" fill="url(#linear-gradient-7)"></path><polygon points="462.55 416.73 460.59 426.96 479.11 447.64 472.94 420.78 462.55 416.73" fill="url(#linear-gradient-8)"></polygon><path d="M516.6,420.19l5.76,2.66,3.29,24.47-15.23,5.94S516.39,428.57,516.6,420.19Z" transform="translate(-25.57 -32.48)" fill="url(#linear-gradient-9)"></path><polygon points="495.24 416.73 497.2 426.96 478.69 447.64 484.86 420.78 495.24 416.73" fill="url(#linear-gradient-10)"></polygon><polygon points="502.72 484.68 445.62 474.49 434.61 423.25 434.61 446.06 418.14 484.99 502.72 484.68" fill="url(#linear-gradient-11)"></polygon><path d="M618.57,464l-.07.1c-1.64,1.68-32.26,33.45-38.38,33.06A8.73,8.73,0,0,1,577,496c-.53-.26-1-.55-1.61-.88-1.88-1.09-4.08-2.54-6.48-4.21-.76-.53-1.55-1.09-2.37-1.65l-1.94-1.38c-1.58-1.15-3.19-2.33-4.84-3.58l-2.73-2a3.32,3.32,0,0,0-.49-.37c-3.42-2.59-6.81-5.23-9.87-7.63-.92-.72-1.77-1.41-2.63-2.07l-.62-10.82s30.16,25.79,36.67,26.94,33.75-28.42,33.75-28.42Z" transform="translate(-25.57 -32.48)" fill="url(#linear-gradient-12)"></path><path d="M452.87,517.62c-.05-.69-5.22-69.48,44.54-79.24l.64,3.22c-46.88,9.2-41.95,75.08-41.9,75.74Z" transform="translate(-25.57 -32.48)" fill="#F4C629"></path><circle cx="473.98" cy="406.84" r="4.25" fill="#F4C629"></circle><circle cx="473.98" cy="406.84" r="4.25" fill="url(#linear-gradient-13)"></circle><rect x="699.98" y="251.44" width="38.89" height="216.3" fill="#F4C629"></rect><rect x="766.65" y="352.45" width="38.89" height="115.29" fill="#F4C629"></rect><rect x="907.42" y="329.06" width="38.89" height="138.68" fill="#F4C629"></rect><rect x="837.03" y="274.98" width="38.89" height="192.75" fill="#F4C629"></rect></svg>