<?xml version="1.0" encoding="UTF-8"?><svg version="1.1" xmlns="http://www.w3.org/2000/svg" xmlns:xlink="http://www.w3.org/1999/xlink" viewBox="0 0 1600 1200" width="1600" height="1200" x="0px" y="0px">
              
              <!-- ITEM 0 -->
<g transform="translate(32.0 -56.0) rotate(0.0 784.0 588.0) scale(1.96 1.96)">
<g transform="translate(-0.0 -0.0)">
<g clip-path="url(#clipPathId-collage-item-0)">
		<defs>
			<clipPath id="clipPathId-collage-item-0">
				<rect x="0.0" y="0.0" width="800.0" height="600.0"/>
			</clipPath>
		</defs>

<path style="fill:#E6E6E6;" d="M672.876,476.948l12.227-3.821c0.983-0.655,2.074-1.092,3.057-1.965l-18.996,6.114  C670.474,477.166,671.675,477.166,672.876,476.948z M664.251,476.948l27.62-8.952c0.546-0.437,0.873-0.983,1.419-1.419  l-30.895,9.825C663.05,476.729,663.705,476.838,664.251,476.948z M659.448,475.747l36.135-11.572  c0.437-0.327,0.546-0.764,0.983-1.201l-38.101,12.118C658.793,475.528,659.12,475.528,659.448,475.747z M656.609,473.891  l41.485-13.319c0.218-0.327,0.437-0.764,0.655-1.092l-42.795,13.756C656.063,473.563,656.391,473.782,656.609,473.891z   M654.535,471.816l45.197-14.411c0.218-0.328,0.218-0.655,0.437-1.092l-46.179,14.847  C654.317,471.38,654.426,471.707,654.535,471.816z M653.225,469.633l48.035-15.284c0-0.327,0.218-0.655,0.218-1.092l-48.69,15.611  C652.898,469.087,653.007,469.415,653.225,469.633z M652.024,467.231l49.891-16.048c0-0.328,0.109-0.655,0.218-1.092l-50.437,16.048  C651.806,466.685,651.915,466.904,652.024,467.231z M651.151,464.83l51.419-16.485c0-0.327,0.109-0.655,0.109-0.983l-51.856,16.703  C650.932,464.175,651.042,464.502,651.151,464.83z M650.714,461.882c0.109,0.109-0.109,0.218,0,0.327l52.293-16.703  c0-0.327,0.109-0.655,0.109-0.983l-52.075,16.594C650.932,461.336,650.823,461.554,650.714,461.882z M653.443,458.17  c-0.109,0.109-0.218,0.328-0.437,0.328l50.109-16.048c0-0.328-0.109-0.546,0-0.873l-48.799,15.721  C653.88,457.624,653.662,457.952,653.443,458.17z M655.845,455.004l46.834-14.956c0-0.328-0.109-0.546-0.218-0.873l-46.179,14.847  C656.282,454.349,656.063,454.568,655.845,455.004z M657.374,451.729l45.088-14.411c-0.109-0.327-0.109-0.546-0.218-0.873  l-44.433,14.301C657.483,451.183,657.483,451.511,657.374,451.729z M658.138,448.781l43.668-13.865  c-0.109-0.328-0.218-0.437-0.218-0.873l-43.122,13.865C658.247,448.236,658.138,448.454,658.138,448.781z M658.356,445.943  l42.467-13.537c-0.109-0.327-0.218-0.437-0.327-0.764l-42.249,13.428C658.356,445.397,658.356,445.725,658.356,445.943z   M658.138,443.214l41.267-13.21c-0.109-0.327-0.218-0.437-0.328-0.764l-41.048,13.1  C658.138,442.668,658.138,443.105,658.138,443.214z M657.592,440.703l40.284-12.991c-0.109-0.327-0.437-0.546-0.546-0.655  l-40.175,12.882C657.374,440.266,657.483,440.484,657.592,440.703z M695.365,424.982l-39.192,12.445  c0.109,0.327,0.218,0.437,0.328,0.764l39.52-12.664C696.02,425.419,695.693,425.201,695.365,424.982z M693.072,423.017  l-38.21,12.227c0.109,0.328,0.437,0.546,0.546,0.655l38.537-12.336C693.618,423.563,693.291,423.236,693.072,423.017z   M690.016,421.27l-36.463,11.572c0.109,0.328,0.218,0.437,0.328,0.764l37.227-12.009C690.671,421.598,690.452,421.38,690.016,421.27  z M686.195,419.851c-0.109,0.109-0.218-0.109-0.327,0l-32.205,10.262c-0.109,0.218-0.109,0.655-0.109,0.983l34.061-10.917  C687.068,420.179,686.631,419.96,686.195,419.851z M678.007,419.524l-20.852,6.659c-0.655,0.546-1.419,0.983-2.074,1.528  l26.419-8.406C680.409,419.415,679.099,419.415,678.007,419.524z"/>
<g>
	
		<linearGradient id="SVGID_1_-i0" gradientUnits="userSpaceOnUse" x1="5958.4717" y1="-2529.595" x2="7354.1338" y2="-2529.595" gradientTransform="matrix(0.1 0 0 -0.1 0 18)">
		<stop offset="0" style="stop-color:#B9D3FD"/>
		<stop offset="1" style="stop-color:#89B3F4"/>
	</linearGradient>
	<path style="fill:url(#SVGID_1_-i0);" d="M734.666,291.794c1.528,4.585-0.218,9.498-2.511,13.756   c-6.223,11.681-16.266,21.288-28.275,26.856c-6.659,3.166-13.865,5.022-20.742,7.86c-19.978,8.297-36.245,24.891-43.996,45.088   c2.293-13.974-5.022-27.839-13.974-38.865c-8.843-11.026-19.542-20.961-25.873-33.625c-5.459-10.917-5.568-27.074,5.459-32.315   c8.079-3.821,18.232,0.437,26.529-3.057c2.948-1.31,5.568-3.93,5.458-7.096c-0.437-8.079-16.376-7.533-16.812-15.611   c-0.437-9.28,24.018-6.55,20.852-15.393c-1.31-3.712-6.55-4.804-8.297-8.297c-1.856-3.493-1.747-8.406,1.419-10.917   c4.039-3.275,10.153-0.655,15.284-1.856c5.786-1.31,9.498-7.205,10.699-13.1c1.201-5.895,0.546-11.9,1.419-17.795   c2.074-14.52,13.974-27.074,28.275-30.131c14.301-3.057,30.24,3.712,37.991,16.157c3.166,5.131,4.913,12.009,1.528,16.921   c-2.948,4.148-9.279,6.878-8.734,11.9c0.655,6.878,13.428,7.533,13.646,14.411c0.218,8.079-16.376,8.079-15.939,16.157   c0.218,3.603,4.039,5.677,6.332,8.515c4.367,5.24,2.62,14.301-3.384,17.576c-2.402,1.31-5.24,1.856-7.096,3.712   c-4.804,4.694-0.109,12.991,5.568,16.485C725.169,282.624,732.592,285.353,734.666,291.794z"/>
	
		<linearGradient id="SVGID_2_-i0" gradientUnits="userSpaceOnUse" x1="6414.0796" y1="-2855.1492" x2="7869.9307" y2="-2855.1492" gradientTransform="matrix(0.1 0 0 -0.1 0 18)">
		<stop offset="0" style="stop-color:#DEEAFE"/>
		<stop offset="1" style="stop-color:#E9F1FE"/>
	</linearGradient>
	<path style="fill:url(#SVGID_2_-i0);" d="M692.745,292.34c3.384-1.856,6.987-3.603,9.716-6.441c5.568-6.114,5.24-15.284,5.677-23.581   c0.437-8.297,3.384-18.013,11.354-20.197c6.659-1.856,15.066,2.183,19.978-2.62c1.856-1.747,2.62-4.367,3.93-6.55   c5.677-9.498,20.633-8.734,28.93-1.419c8.188,7.314,11.354,18.668,14.083,29.367c0.983,3.93,1.092,9.389-2.729,10.48   c-3.712,0.983-7.424-3.603-10.917-2.183c-2.838,1.092-3.057,5.131-1.965,8.079c0.983,2.838,2.729,5.786,2.074,8.843   c-1.31,5.677-9.279,6.004-14.956,4.476c-5.677-1.528-12.991-3.057-16.266,1.856c3.603,11.463,6.659,25.437-1.419,34.498   c-9.279,10.371-26.419,9.28-40.284,10.59c-25.764,2.402-43.996,22.052-58.516,43.559   C640.561,345.069,661.195,309.48,692.745,292.34z"/>
</g>
<g>
	<path style="fill:#FFFFFF;" d="M660.43,364.72c-0.109,0-0.109,0-0.218,0c-0.328-0.109-0.437-0.437-0.328-0.655   c13.101-40.066,33.952-67.904,72.053-95.961c7.096-5.24,28.494-14.083,37.773-14.847c0.218,0,0.546,0.218,0.546,0.546   s-0.218,0.546-0.546,0.546c-8.843,0.764-30.349,9.607-37.118,14.629c-37.991,27.948-58.734,55.568-71.725,95.415   C660.867,364.502,660.649,364.72,660.43,364.72z"/>
</g>
<path style="fill:#FFFFFF;" d="M680.627,247.252l-4.367-12.009c-1.528-0.109-3.166,0.109-4.694,0.655l4.694,12.882  c0.218,0.764-0.109,1.528-0.873,1.747c-0.764,0.218-1.528-0.109-1.747-0.873l-4.694-12.664c-1.419,0.873-2.62,2.074-3.603,3.384  l3.93,10.699c0.218,0.764-0.109,1.528-0.873,1.747c-0.764,0.218-1.528-0.109-1.747-0.873l-3.057-8.406  c-1.747,4.367-1.856,9.935,0.109,15.393c0,0.109,0.109,0.218,0.109,0.328c-0.983,0.546-2.074,1.201-2.948,1.965  c-2.729,1.965-6.223,5.349-7.424,10.153l1.31,0.328c1.092-4.367,4.367-7.533,6.878-9.28c0.873-0.655,1.747-1.201,2.729-1.747  c2.074,4.585,5.458,8.297,9.17,10.262l-2.948-7.969c-0.218-0.764,0.109-1.528,0.873-1.747s1.528,0.109,1.747,0.873l3.821,10.262  c1.638,0.437,3.275,0.546,4.913,0.218l-4.367-12.009c-0.218-0.764,0.109-1.528,0.873-1.747c0.764-0.218,1.528,0.109,1.747,0.873  l4.476,12.118c1.419-0.655,2.729-1.638,3.821-2.729l-4.039-10.917c-0.218-0.764,0.109-1.528,0.873-1.747  c0.764-0.218,1.528,0.109,1.747,0.873l3.493,9.389c1.092-1.638,2.074-3.384,2.948-5.24l-2.183-5.895  c-0.218-0.764,0.109-1.528,0.873-1.747c0.764-0.218,1.528,0.109,1.747,0.873l1.201,3.166c2.183-5.24,3.603-10.371,5.459-12.009  c-3.057-0.655-7.314-3.493-12.009-6.114l1.528,4.039c0.218,0.764-0.109,1.528-0.873,1.747c-0.764,0.218-1.528-0.109-1.747-0.873  l-2.511-6.878c-1.856-0.873-3.712-1.528-5.568-1.965l3.821,10.59c0.218,0.764-0.109,1.528-0.873,1.747  C681.719,248.344,680.954,248.016,680.627,247.252z"/>
<rect x="342.853" y="380.986" style="fill:#D6D7D8;" width="121.835" height="135.481"/>
<rect x="267.415" y="512.101" style="fill:#428DFC;" width="272.709" height="10.48"/>
<linearGradient id="SVGID_3_-i0" gradientUnits="userSpaceOnUse" x1="1361.9219" y1="-2771.7815" x2="6713.4741" y2="-2771.7815" gradientTransform="matrix(0.1 0 0 -0.1 0 18)">
	<stop offset="0" style="stop-color:#EEEEEE"/>
	<stop offset="1" style="stop-color:#D6D7D8"/>
</linearGradient>
<rect x="136.192" y="121.924" style="fill:url(#SVGID_3_-i0);" width="535.155" height="346.508"/>
<rect x="145.581" y="130.549" style="fill:#FFFFFF;" width="516.378" height="285.372"/>
<g>
	
		<rect x="379.613" y="437.736" transform="matrix(-0.7071 -0.7071 0.7071 -0.7071 343.4806 1027.6814)" style="fill:#A1C3FC;" width="9.934" height="9.934"/>
	
		<rect x="398.775" y="437.721" transform="matrix(-0.7071 -0.7071 0.7071 -0.7071 376.2033 1041.2053)" style="fill:#FFFFFF;" width="9.934" height="9.934"/>
	
		<rect x="417.938" y="437.751" transform="matrix(-0.7071 -0.7071 0.7071 -0.7071 408.8945 1054.8064)" style="fill:#1D72D8;" width="9.934" height="9.934"/>
</g>
<path style="fill:#D3E3FE;" d="M660.539,81.422c0,0.218,0,0.437,0,0.655c0,9.061,7.314,16.376,16.376,16.376  s16.376-7.314,16.376-16.376c0-0.218,0-0.437,0-0.655H660.539z"/>
<path style="fill:#A1C3FC;" d="M719.164,41.574c0,0.328,0,0.764,0,1.092c0,14.956,12.118,27.074,27.074,27.074  s27.074-12.118,27.074-27.074c0-0.328,0-0.764,0-1.092C773.313,41.574,719.164,41.574,719.164,41.574z"/>
<path style="fill:#F4F4F4;" d="M32.698,13.19c0,0.655,0,1.201,0,1.856c0,25.218,20.524,45.743,45.743,45.743  s45.743-20.524,45.743-45.743c0-0.655,0-1.201,0-1.856C124.183,13.19,32.698,13.19,32.698,13.19z"/>
<path style="fill:#E7EFFE;" d="M80.624,13.19c0,0.437,0,0.873,0,1.31c0,18.341,14.847,33.188,33.188,33.188S147,32.841,147,14.5  c0-0.437,0-0.873,0-1.31C147,13.19,80.624,13.19,80.624,13.19z"/>
<g>
	
		<linearGradient id="SVGID_4_-i0" gradientUnits="userSpaceOnUse" x1="4547.144" y1="-2848.5498" x2="5952.8911" y2="-2848.5498" gradientTransform="matrix(-0.0964 0.0265 -0.0265 -0.0964 553.6074 -2.2324)">
		<stop offset="0" style="stop-color:#B9D3FD"/>
		<stop offset="1" style="stop-color:#89B3F4"/>
	</linearGradient>
	<path style="fill:url(#SVGID_4_-i0);" d="M61.41,450.31c-0.218,4.803,2.729,9.17,6.114,12.664c9.17,9.716,21.507,16.376,34.607,18.559   c7.314,1.201,14.847,1.201,22.271,2.074c21.616,2.729,41.812,14.52,54.804,31.987c-6.004-12.991-2.511-28.384,3.166-41.485   c5.677-13.1,13.428-25.546,16.157-39.52c2.402-12.009-1.856-27.839-13.974-29.913c-8.952-1.528-17.686,5.349-26.638,4.039   c-3.166-0.437-6.55-2.293-7.205-5.459c-1.747-7.969,13.974-11.681,12.118-19.651c-2.074-9.17-25.109,0-24.345-9.28   c0.328-3.93,5.022-6.332,5.895-10.262s-0.546-8.624-4.258-10.153c-4.804-2.074-10.044,2.074-15.284,2.293   c-6.004,0.328-11.135-4.476-13.865-9.825s-3.712-11.463-6.114-16.921c-5.895-13.537-20.742-22.598-35.481-21.725   c-14.738,0.873-28.384,11.681-32.642,25.873c-1.747,5.786-1.638,12.991,3.057,16.921c3.93,3.275,10.808,4.148,11.681,9.17   c1.201,6.878-11.026,10.917-9.389,17.686c1.856,7.969,18.122,3.493,19.76,11.463c0.764,3.603-2.402,6.659-3.821,9.935   c-2.838,6.223,1.31,14.52,7.969,16.157c2.62,0.655,5.568,0.327,7.969,1.638c5.895,3.275,3.603,12.555-0.983,17.467   C68.179,439.065,61.847,443.541,61.41,450.31z"/>
	
		<linearGradient id="SVGID_5_-i0" gradientUnits="userSpaceOnUse" x1="5005.2349" y1="-3177.0505" x2="6471.7524" y2="-3177.0505" gradientTransform="matrix(-0.0964 0.0265 -0.0265 -0.0964 553.6074 -2.2324)">
		<stop offset="0" style="stop-color:#DEEAFE"/>
		<stop offset="1" style="stop-color:#E9F1FE"/>
	</linearGradient>
	<path style="fill:url(#SVGID_5_-i0);" d="M102.458,439.72c-3.821-0.873-7.751-1.638-11.135-3.712   c-7.096-4.476-9.17-13.537-11.79-21.397c-2.62-7.86-8.079-16.594-16.376-16.594c-6.987,0-14.083,6.223-20.087,2.838   c-2.293-1.31-3.712-3.603-5.568-5.349c-7.969-7.642-22.38-2.948-28.384,6.332s-6.004,21.179-5.895,32.315   c0.109,4.039,1.419,9.389,5.459,9.389c3.821,0,6.223-5.459,10.044-5.022c3.057,0.327,4.367,4.258,4.148,7.314   c-0.218,3.057-1.092,6.332,0.328,9.061c2.729,5.24,10.699,3.384,15.721,0.327c5.022-3.057,11.79-6.441,16.266-2.511   c-0.437,12.118,0.328,26.528,10.59,33.079c11.79,7.533,28.166,1.965,41.922-0.437c25.655-4.585,48.69,9.716,68.45,26.747   C167.088,476.948,137.611,447.908,102.458,439.72z"/>
	<path style="fill:none;stroke:#428DFC;stroke-width:2;stroke-linecap:round;stroke-miterlimit:10;" d="M178.878,517.232   c-8.734-22.817-15.721-46.288-21.07-70.088"/>
	
		<ellipse transform="matrix(-0.2235 -0.9747 0.9747 -0.2235 -240.659 697.7426)" style="fill:#23286B;" cx="157.599" cy="444.732" rx="4.694" ry="12.445"/>
	<path style="fill:none;stroke:#428DFC;stroke-width:2;stroke-linecap:round;stroke-miterlimit:10;" d="M157.153,444.305   c-2.948-13.537-5.349-27.074-7.205-40.83"/>
	
		<ellipse transform="matrix(-0.3174 -0.9483 0.9483 -0.3174 -182.6591 669.1458)" style="fill:#23286B;" cx="149.504" cy="400.314" rx="5.568" ry="14.957"/>
	<path style="fill:none;stroke:#428DFC;stroke-width:2;stroke-linecap:round;stroke-miterlimit:10;" d="M149.402,399.873   c-1.419-11.354-2.511-22.708-3.275-34.061"/>
	
		<ellipse transform="matrix(-0.0106 -0.9999 0.9999 -0.0106 -213.3985 512.5897)" style="fill:#23286B;" cx="146.883" cy="361.865" rx="5.567" ry="14.956"/>
	<path style="fill:none;stroke:#428DFC;stroke-width:2;stroke-linecap:round;stroke-miterlimit:10;" d="M145.908,361.008   c-0.437-8.624-0.655-17.358-0.764-26.092"/>
	
		<ellipse transform="matrix(-0.0106 -0.9999 0.9999 -0.0106 -183.616 479.1787)" style="fill:#23286B;" cx="145.246" cy="330.426" rx="7.532" ry="20.087"/>
	<path style="fill:none;stroke:#428DFC;stroke-width:2;stroke-linecap:round;stroke-miterlimit:10;" d="M145.144,329.021   c0.109-5.786,0.218-11.572,0.437-17.358"/>
</g>
<path style="fill:#FFFFFF;" d="M132.808,484.917l4.367-12.009c1.528-0.109,3.166,0.109,4.694,0.655l-4.694,12.882  c-0.218,0.764,0.109,1.528,0.873,1.747s1.528-0.109,1.747-0.873l4.694-12.664c1.419,0.873,2.62,2.074,3.603,3.384l-3.93,10.699  c-0.218,0.764,0.109,1.528,0.873,1.747s1.528-0.109,1.747-0.873l3.057-8.406c1.747,4.367,1.856,9.935-0.109,15.393  c0,0.109-0.109,0.218-0.109,0.328c0.983,0.546,2.074,1.201,2.948,1.965c2.729,1.965,6.223,5.349,7.424,10.153l-1.31,0.328  c-1.092-4.367-4.367-7.533-6.878-9.28c-0.873-0.655-1.747-1.201-2.729-1.747c-2.074,4.585-5.459,8.297-9.17,10.262l2.948-7.969  c0.218-0.764-0.109-1.528-0.873-1.747c-0.764-0.218-1.528,0.109-1.747,0.873l-3.821,10.262c-1.638,0.437-3.275,0.546-4.913,0.218  l4.367-12.009c0.218-0.764-0.109-1.528-0.873-1.747s-1.528,0.109-1.747,0.873l-4.476,12.118c-1.419-0.655-2.729-1.638-3.821-2.729  l4.039-10.917c0.218-0.764-0.109-1.528-0.873-1.747c-0.764-0.218-1.528,0.109-1.747,0.873l-3.493,9.389  c-1.092-1.638-2.074-3.384-2.948-5.24l2.183-5.895c0.218-0.764-0.109-1.528-0.873-1.747s-1.528,0.109-1.747,0.873l-1.201,3.166  c-2.183-5.24-3.603-10.371-5.459-12.009c3.057-0.655,7.314-3.493,12.009-6.114l-1.528,4.039c-0.218,0.764,0.109,1.528,0.873,1.747  s1.528-0.109,1.747-0.873l2.511-6.878c1.856-0.873,3.712-1.528,5.568-1.965l-3.821,10.59c-0.218,0.764,0.109,1.528,0.873,1.747  C131.716,486.009,132.48,485.681,132.808,484.917z"/>
<path style="fill:#B3C9EE;" d="M109.555,136.007l-8.188-0.983c-0.764,0.109-1.528,0.109-2.293,0.328l12.773,1.419  C110.974,136.553,110.319,136.225,109.555,136.007z M114.576,138.3l-18.559-2.074c-0.437,0.109-0.764,0.328-1.201,0.437  l20.742,2.402C115.231,138.736,114.904,138.518,114.576,138.3z M117.087,140.265l-24.236-2.729  c-0.328,0.109-0.546,0.328-0.873,0.437l25.546,2.948C117.415,140.592,117.196,140.483,117.087,140.265z M118.288,142.121  l-27.839-3.166c-0.218,0.109-0.437,0.328-0.655,0.437l28.712,3.275C118.507,142.448,118.397,142.23,118.288,142.121z   M118.943,143.867l-30.349-3.493c-0.218,0.109-0.328,0.328-0.546,0.546l31.005,3.493  C118.943,144.195,118.943,143.977,118.943,143.867z M119.162,145.505l-32.205-3.712c-0.109,0.218-0.328,0.328-0.437,0.546  l32.642,3.712C119.162,145.942,119.162,145.723,119.162,145.505z M119.162,147.252l-33.515-3.821  c-0.109,0.218-0.218,0.328-0.437,0.546l33.843,3.93C119.162,147.579,119.162,147.47,119.162,147.252z M119.052,148.889l-34.498-3.93  c-0.109,0.218-0.218,0.328-0.328,0.546l34.825,3.93C119.052,149.326,119.052,149.108,119.052,148.889z M118.507,150.745  c0-0.109,0.109-0.109,0.109-0.218l-35.044-4.039c-0.109,0.218-0.218,0.328-0.328,0.546l34.935,4.039  C118.288,150.964,118.397,150.854,118.507,150.745z M115.996,152.164c0.109,0,0.218-0.109,0.328-0.109l-33.625-3.821  c-0.109,0.218-0.109,0.328-0.218,0.546l32.751,3.712C115.559,152.383,115.777,152.274,115.996,152.164z M113.703,153.365  l-31.441-3.603c-0.109,0.218-0.109,0.328-0.109,0.546l31.005,3.493C113.266,153.693,113.485,153.584,113.703,153.365z   M111.956,154.894l-30.24-3.493c0,0.218-0.109,0.328-0.109,0.546l29.804,3.384C111.738,155.221,111.847,155.003,111.956,154.894z   M110.755,156.422l-29.258-3.384c0,0.218,0,0.328-0.109,0.546l28.93,3.275C110.537,156.75,110.646,156.64,110.755,156.422z   M109.882,158.06l-28.494-3.275c0,0.218,0,0.328,0,0.546l28.275,3.275C109.664,158.387,109.773,158.169,109.882,158.06z   M109.227,159.697l-27.729-3.166c0,0.218,0,0.328,0,0.546l27.511,3.166C109.118,160.025,109.227,159.806,109.227,159.697z   M108.899,161.335l-27.074-3.057c0,0.218,0.109,0.437,0.109,0.546l26.965,3.057C108.899,161.662,108.899,161.444,108.899,161.335z   M82.589,160.571l26.31,3.057c0-0.218,0-0.328,0-0.546l-26.529-3.057C82.371,160.134,82.48,160.352,82.589,160.571z M83.463,162.317  l25.655,2.948c0-0.218-0.109-0.437-0.109-0.546l-25.873-2.948C83.244,161.881,83.354,162.099,83.463,162.317z M84.773,164.173  l24.454,2.838c0-0.218,0-0.328,0-0.546l-25-2.838C84.445,163.737,84.554,163.955,84.773,164.173z M86.629,166.029  c0.109,0,0.109,0.109,0.218,0.109l21.616,2.511c0.109-0.109,0.218-0.328,0.328-0.546l-22.817-2.62  C86.192,165.592,86.41,165.811,86.629,166.029z M91.323,168.322l13.974,1.638c0.546-0.109,1.092-0.218,1.638-0.328l-17.686-2.074  C89.904,167.776,90.668,168.103,91.323,168.322z"/>
<path style="fill:#B3C9EE;" d="M687.068,497.253l12.773,0.546c1.201-0.218,2.402-0.328,3.493-0.764l-19.978-0.655  C684.775,496.598,685.867,497.035,687.068,497.253z M678.989,494.306l29.039,0.983c0.655-0.218,1.092-0.546,1.856-0.873  l-32.424-1.201C678.007,493.76,678.443,494.087,678.989,494.306z M674.95,491.576l37.882,1.31c0.546-0.218,0.764-0.546,1.31-0.764  l-39.956-1.528C674.404,491.14,674.732,491.249,674.95,491.576z M672.767,488.847l43.559,1.528c0.327-0.218,0.655-0.546,0.983-0.764  l-44.869-1.638C672.439,488.41,672.657,488.738,672.767,488.847z M671.566,486.227l47.489,1.747  c0.328-0.218,0.437-0.546,0.764-0.873l-48.472-1.747C671.566,485.681,671.566,486.009,671.566,486.227z M671.02,483.716  l50.328,1.856c0.109-0.328,0.437-0.546,0.655-0.873l-51.092-1.856C671.02,483.061,671.02,483.389,671.02,483.716z M670.802,480.987  l52.402,1.965c0.109-0.328,0.327-0.546,0.655-0.873l-52.948-2.074C670.802,480.55,670.802,480.659,670.802,480.987z   M670.802,478.476l53.93,1.965c0.109-0.328,0.328-0.546,0.437-0.873l-54.476-1.965C670.802,477.821,670.802,478.148,670.802,478.476  z M671.457,475.528c0,0.218-0.109,0.218-0.109,0.328l54.804,2.074c0.109-0.327,0.328-0.546,0.437-0.873l-54.585-2.074  C671.784,475.201,671.566,475.31,671.457,475.528z M675.168,473.017c-0.218,0-0.328,0.218-0.546,0.218l52.62,1.856  c0.109-0.327,0.109-0.546,0.328-0.873l-51.201-1.856C675.823,472.581,675.496,472.799,675.168,473.017z M678.553,470.834  l49.127,1.856c0.109-0.328,0.109-0.546,0.109-0.873l-48.472-1.747C679.208,470.288,678.88,470.506,678.553,470.834z   M681.064,468.323l47.271,1.747c0-0.328,0.109-0.546,0.109-0.873l-46.616-1.638C681.391,467.777,681.282,468.105,681.064,468.323z   M682.81,465.812l45.743,1.747c0-0.327,0-0.546,0.109-0.873l-45.197-1.638C683.029,465.266,682.919,465.485,682.81,465.812z   M683.902,463.192l44.542,1.638c0-0.327,0-0.546-0.109-0.873l-44.214-1.747C684.23,462.646,684.12,462.974,683.902,463.192z   M684.775,460.572l43.341,1.638c0-0.327,0-0.546-0.109-0.873l-43.013-1.638C684.885,460.026,684.775,460.354,684.775,460.572z   M685.103,457.952l42.358,1.528c0-0.327-0.218-0.655-0.218-0.873l-42.14-1.528C684.994,457.406,685.103,457.733,685.103,457.952z   M725.933,455.987l-41.157-1.638c0,0.328,0,0.546,0.109,0.873l41.485,1.528C726.37,456.642,726.151,456.314,725.933,455.987z   M724.404,453.367l-40.066-1.528c0,0.327,0.218,0.655,0.218,0.873l40.502,1.528C724.732,454.022,724.623,453.694,724.404,453.367z   M722.112,450.637l-38.21-1.528c0,0.328,0,0.546,0.109,0.873l39.083,1.419C722.658,451.292,722.439,450.965,722.112,450.637z   M719.055,448.017c-0.218,0-0.218-0.109-0.328-0.109l-33.843-1.31c-0.109,0.218-0.327,0.546-0.437,0.873l35.699,1.31  C719.71,448.672,719.383,448.345,719.055,448.017z M711.522,445.07l-21.834-0.873c-0.873,0.218-1.638,0.437-2.511,0.655l27.62,1.092  C713.706,445.725,712.505,445.288,711.522,445.07z"/>

</g>
</g>
</g>

<!-- ITEM 1 -->
<g transform="translate(376.0 214.0) rotate(0.0 323.0 263.5) scale(1.615 1.616564417177914)">
<g transform="translate(-0.0 -0.0)">
<g clip-path="url(#clipPathId-collage-item-1)">
		<defs>
			<clipPath id="clipPathId-collage-item-1">
				<rect x="0.0" y="0.0" width="400.0" height="326.0"/>
			</clipPath>
		</defs>

<polygon fill="#D9E021" points="294.412,149.934 203.928,283.993 80.005,200.451 170.489,66.392 "/>
<rect x="1.035" y="60.319" transform="matrix(0.908 0.4189 -0.4189 0.908 26.9791 4.0794)" fill="#A1C3FC" width="6.328" height="6.326"/>
<g>
	<path fill="#151A4F" d="M105.663,205.681l0.029,0.058c0.011-0.03,0.024-0.059,0.036-0.089L105.663,205.681z"/>
	<path fill="#151A4F" d="M139.356,163.431c-0.356,0.236-0.71,0.474-1.062,0.715l1.137-0.562L139.356,163.431z"/>
	<path fill="#151A4F" d="M158.01,154.376l-0.146-0.296c-2.364,0.859-4.672,1.83-6.936,2.881l0.368,0.743L158.01,154.376z"/>
	<path fill="#151A4F" d="M115.226,187.3c-1.404,2.067-2.708,4.206-3.936,6.394l5.705-2.827L115.226,187.3z"/>
	<polygon fill="#151A4F" points="128.864,184.989 125.533,178.277 132.249,174.949 135.579,181.66  "/>
	<polygon fill="#151A4F" points="147.439,175.781 144.108,169.07 150.824,165.742 154.154,172.453  "/>
	<polygon fill="#151A4F" points="166.017,166.575 162.687,159.863 169.402,156.535 172.733,163.246  "/>
	<path fill="#151A4F" d="M184.591,157.365l6.715-3.328l-2.572-5.184c-0.311-0.003-0.617-0.024-0.93-0.024   c-1.01,0-2.013,0.042-3.015,0.077l-3.528,1.748L184.591,157.365z"/>
	<path fill="#151A4F" d="M115.709,209.063l-3.33-6.711l-6.651,3.297c-0.011,0.03-0.024,0.059-0.036,0.089l3.301,6.653   L115.709,209.063z"/>
	<polygon fill="#151A4F" points="127.574,203.187 124.244,196.476 130.959,193.147 134.289,199.859  "/>
	<polygon fill="#151A4F" points="146.153,193.98 142.823,187.269 149.538,183.94 152.869,190.652  "/>
	<polygon fill="#151A4F" points="164.732,184.772 161.401,178.061 168.117,174.732 171.447,181.444  "/>
	<polygon fill="#151A4F" points="183.306,175.565 179.976,168.854 186.691,165.525 190.022,172.237  "/>
	<polygon fill="#151A4F" points="108.517,220.428 111.847,227.139 105.132,230.467 101.802,223.756  "/>
	<polygon fill="#151A4F" points="123.718,221.264 120.388,214.553 127.103,211.225 130.433,217.936  "/>
	<polygon fill="#151A4F" points="142.293,212.055 138.963,205.344 145.678,202.015 149.009,208.727  "/>
	<polygon fill="#151A4F" points="160.874,202.849 157.543,196.138 164.259,192.81 167.589,199.521  "/>
	<polygon fill="#151A4F" points="179.449,193.641 176.118,186.929 182.834,183.601 186.164,190.312  "/>
	<polygon fill="#151A4F" points="198.028,184.434 194.697,177.722 201.413,174.394 204.743,181.105  "/>
	<polygon fill="#151A4F" points="107.227,238.624 110.557,245.335 103.842,248.664 100.512,241.952  "/>
	<polygon fill="#151A4F" points="129.14,236.127 122.425,239.456 119.095,232.744 125.81,229.416  "/>
	<polygon fill="#151A4F" points="141.009,230.254 137.679,223.543 144.394,220.215 147.724,226.926  "/>
	<polygon fill="#151A4F" points="159.583,221.047 156.252,214.336 162.968,211.007 166.298,217.719  "/>
	<polygon fill="#151A4F" points="178.16,211.838 174.83,205.126 181.545,201.798 184.876,208.509  "/>
	<polygon fill="#151A4F" points="196.737,202.631 193.406,195.919 200.122,192.591 203.452,199.302  "/>
	<path fill="#151A4F" d="M103.373,256.704l-0.757,0.375c0.6,2.482,1.308,4.918,2.114,7.312l1.972-0.978L103.373,256.704z"/>
	<polygon fill="#151A4F" points="121.947,247.493 125.278,254.204 118.562,257.532 115.232,250.821  "/>
	<polygon fill="#151A4F" points="140.524,238.286 143.855,244.997 137.139,248.326 133.809,241.614  "/>
	<polygon fill="#151A4F" points="159.102,229.08 162.433,235.791 155.717,239.119 152.387,232.408  "/>
	<polygon fill="#151A4F" points="181.015,226.583 174.3,229.911 170.97,223.2 177.685,219.871  "/>
	<polygon fill="#151A4F" points="189.543,214 196.258,210.672 199.589,217.383 192.873,220.712  "/>
	<polygon fill="#151A4F" points="211.457,211.501 208.127,204.79 214.842,201.462 218.172,208.173  "/>
	<polygon fill="#151A4F" points="120.656,265.688 123.986,272.4 117.271,275.728 113.941,269.017  "/>
	<polygon fill="#151A4F" points="139.236,256.483 142.566,263.195 135.851,266.523 132.52,259.812  "/>
	<polygon fill="#151A4F" points="161.15,253.986 154.434,257.314 151.104,250.603 157.819,247.275  "/>
	<polygon fill="#151A4F" points="169.675,241.407 176.391,238.079 179.721,244.79 173.006,248.118  "/>
	<polygon fill="#151A4F" points="198.306,235.568 191.59,238.897 188.26,232.185 194.975,228.857  "/>
	<polygon fill="#151A4F" points="210.172,229.7 206.842,222.988 213.557,219.66 216.887,226.371  "/>
	<path fill="#151A4F" d="M116.026,286.697c1.378,1.963,2.821,3.876,4.353,5.715l-3.135-6.319L116.026,286.697z"/>
	<polygon fill="#151A4F" points="135.817,276.885 139.147,283.596 132.432,286.925 129.102,280.213  "/>
	<polygon fill="#151A4F" points="154.392,267.676 157.722,274.387 151.007,277.715 147.677,271.004  "/>
	<polygon fill="#151A4F" points="172.972,258.471 176.302,265.182 169.587,268.511 166.257,261.799  "/>
	<polygon fill="#151A4F" points="194.887,255.97 188.171,259.298 184.841,252.587 191.556,249.258  "/>
	<polygon fill="#151A4F" points="213.464,246.766 206.748,250.094 203.418,243.383 210.133,240.054  "/>
	<polygon fill="#151A4F" points="225.325,240.892 221.995,234.181 228.71,230.852 232.041,237.564  "/>
	<path fill="#151A4F" d="M134.533,295.085l-6.715,3.328l1.711,3.448c0.986,0.877,1.989,1.736,3.015,2.57l5.318-2.635   L134.533,295.085z"/>
	<polygon fill="#151A4F" points="153.104,285.873 156.434,292.584 149.719,295.913 146.388,289.201  "/>
	<polygon fill="#151A4F" points="171.683,276.668 175.013,283.379 168.298,286.707 164.968,279.996  "/>
	<polygon fill="#151A4F" points="183.546,270.798 190.261,267.469 193.591,274.181 186.876,277.509  "/>
	<polygon fill="#151A4F" points="202.125,261.588 208.841,258.26 212.171,264.971 205.456,268.299  "/>
	<polygon fill="#151A4F" points="224.043,259.091 220.712,252.38 227.428,249.051 230.758,255.763  "/>
	<path fill="#151A4F" d="M149.251,303.954l-6.715,3.328l2.907,5.856c0.34,0.187,0.678,0.375,1.021,0.558l6.119-3.032   L149.251,303.954z"/>
	<polygon fill="#151A4F" points="167.825,294.744 171.156,301.455 164.44,304.783 161.11,298.072  "/>
	<polygon fill="#151A4F" points="186.399,285.534 189.73,292.245 183.014,295.574 179.684,288.862  "/>
	<polygon fill="#151A4F" points="204.981,276.33 208.312,283.041 201.596,286.37 198.266,279.658  "/>
	<polygon fill="#151A4F" points="223.554,267.122 226.884,273.833 220.169,277.162 216.839,270.45  "/>
	<polygon fill="#151A4F" points="242.131,257.914 245.461,264.626 238.746,267.954 235.416,261.242  "/>
	<path fill="#151A4F" d="M166.54,312.944l-6.715,3.328l1.901,3.83c1.526,0.475,3.075,0.9,4.635,1.291l3.508-1.739L166.54,312.944z"/>
	<polygon fill="#151A4F" points="185.114,303.733 188.444,310.445 181.729,313.773 178.398,307.062  "/>
	<polygon fill="#151A4F" points="203.691,294.526 207.021,301.238 200.306,304.566 196.976,297.855  "/>
	<polygon fill="#151A4F" points="222.264,285.317 225.595,292.029 218.879,295.357 215.549,288.646  "/>
	<polygon fill="#151A4F" points="240.845,276.114 244.176,282.825 237.46,286.153 234.13,279.442  "/>
	<path fill="#151A4F" d="M177.909,323.473c1.444,0.162,2.898,0.288,4.363,0.379l-1.012-2.04L177.909,323.473z"/>
	<polygon fill="#151A4F" points="199.832,312.603 203.162,319.315 196.447,322.643 193.117,315.932  "/>
	<polygon fill="#151A4F" points="218.41,303.396 221.74,310.108 215.025,313.436 211.694,306.725  "/>
	<polygon fill="#151A4F" points="236.988,294.189 240.318,300.9 233.602,304.229 230.272,297.517  "/>
	<path fill="#151A4F" d="M255.569,284.985l-6.715,3.328l3.33,6.712l1.374-0.681c1.44-1.633,2.829-3.314,4.148-5.053L255.569,284.985   z"/>
</g>
<g>
	<polygon fill="#A1C3FC" points="316.193,49.62 305.879,54.904 318.902,54.904  "/>
	<polygon fill="#A1C3FC" points="269.802,73.382 328.378,73.382 323.391,63.657 288.791,63.657  "/>
	<polygon fill="#A1C3FC" points="233.726,91.86 337.853,91.86 332.866,82.135 252.713,82.135  "/>
	<polygon fill="#A1C3FC" points="238.607,110.338 347.33,110.338 342.342,100.613 233.62,100.613  "/>
	<polygon fill="#A1C3FC" points="248.084,128.816 356.805,128.816 351.818,119.091 243.097,119.091  "/>
	<polygon fill="#A1C3FC" points="257.559,147.294 335.743,147.294 354.73,137.569 252.572,137.569  "/>
	<polygon fill="#A1C3FC" points="267.035,165.771 299.667,165.771 318.655,156.047 262.048,156.047  "/>
	<polygon fill="#A1C3FC" points="273.823,179.009 282.579,174.524 271.523,174.524  "/>
</g>
<path fill="#151A4F" d="M247.896,5.993c3.471-0.803,7.033-1.611,10.566-1.158c5.284,0.678,9.791,4.068,13.778,7.601  c4.892,4.336,9.455,9.109,13.029,14.581c8.494,13.013,10.859,29.173,10.329,44.701c-0.53,15.527-3.721,30.83-5.417,46.275  c-1.758,16.002-1.91,32.181-0.45,48.212c-35.705-5.122-72.306-3.966-107.616,3.402c23.314-33.859,37.04-76.207,28.828-116.482  c-2.436-11.949-6.207-26.044,2.034-35.035c4.515-4.926,11.443-6.666,17.952-8.172C236.585,8.61,242.24,7.302,247.896,5.993z"/>
<path fill="#F2A19C" d="M249.869,69.993c-0.34,0.045-0.69,0.095-0.986,0.296c-0.925,0.628-0.811,2.226-0.591,3.464  c3.95,22.197,2.357,45.743-4.527,66.905c12.896-9.588,29.981-0.038,44.852-3.845c-4.263-9.79-3.288-21.452-3.239-32.475  c0.058-12.976,2.79-30.425,0.012-42.976C274.922,62.752,260.337,68.605,249.869,69.993z"/>
<path fill="#FFBEB6" d="M224.748,31.036c-1.092,11.345,1.567,21.186,5.906,31.728c5.042,12.25,14.233,23.449,26.77,27.748  c12.537,4.299,25.485,2.673,31.619-9.071c2.531-4.846,3.745-12.787,3.653-18.251c-0.252-14.993-3.798-30.664-14.755-40.907  c-6.501-6.078-13.269-14.681-22.137-15.44c-8.869-0.759-21.359,3.198-26.437,10.505C225.209,23.329,225.447,23.786,224.748,31.036z"/>
<path fill="#FFFFFF" d="M276.725,68.692c-1.774,1.979-4.346,3.046-6.902,3.776c-3.96,1.129-8.183,1.595-12.207,0.722  s-7.831-3.196-9.953-6.723c2.43,0.38,4.913,0.425,7.356,0.133c11.769-1.409,21.199-10.283,28.603-19.535  c-0.423,4.823-0.981,7.952-2.175,12.621C280.753,62.396,278.591,66.607,276.725,68.692z"/>
<path fill="#E94A47" d="M213.281,50.259c12.122-19.619,32.983-33.615,55.742-37.396c3.842,3.45,7.683,6.901,11.525,10.35  c-25.684,3.526-46.99,21.843-62.903,42.3c-3.192-4.5-6.5-10.315-3.88-15.171C212.645,58.046,216.057,42.989,213.281,50.259z"/>
<path fill="#23286B" d="M219.327,181.542c9.967-41.676,8.399-49.767,8.168-92.616c-0.052-9.533,4.109-47.912,10.958-59.547  c9.605-16.317,18.248-19.024,27.251-22.173c-21.231-17.796-47.511,1.624-53.729,12.602s-7.088,24.07-8.018,36.653  c-3.075,41.605-8.35,83.049-15.796,124.098C198.556,180.248,208.97,180.578,219.327,181.542z"/>
<g>
	<path fill="#23286B" d="M233.978,77.295c-0.001,0-0.003,0-0.004,0c-0.378-0.003-0.683-0.313-0.681-0.689   c0.096-14.689,3.155-28.514,9.917-44.824c4.265-10.285,13.617-21.321,19.129-24.318c0.332-0.179,0.748-0.057,0.929,0.274   c0.181,0.332,0.058,0.749-0.276,0.93c-5.202,2.828-14.424,13.771-18.517,23.64c-6.691,16.138-9.717,29.804-9.813,44.307   C234.66,76.991,234.355,77.295,233.978,77.295z"/>
</g>
<g>
	<path fill="#23286B" d="M238.874,71.187c-0.03,0-0.061-0.001-0.092-0.007c-0.376-0.049-0.638-0.394-0.588-0.769   c3.012-22.44,12.941-46.551,25.912-62.929c0.236-0.293,0.666-0.347,0.963-0.111c0.296,0.234,0.347,0.664,0.112,0.961   c-12.829,16.194-22.649,40.051-25.629,62.259C239.507,70.936,239.212,71.187,238.874,71.187z"/>
</g>
<g>
	<path fill="#23286B" d="M180.142,178.817c-0.013,0-0.029,0-0.042-0.001c-0.378-0.025-0.665-0.349-0.641-0.726   c2.688-43.24,8.564-80.717,19.647-125.318l0.263-1.062c2.655-10.708,6.665-26.891,14.39-34.083   c0.277-0.257,0.712-0.243,0.968,0.034c0.257,0.277,0.243,0.711-0.034,0.968c-7.427,6.915-11.38,22.859-13.994,33.409l-0.263,1.062   c-11.063,44.517-16.929,81.922-19.61,125.074C180.803,178.538,180.502,178.817,180.142,178.817z"/>
</g>
<path fill="#FFFFFF" d="M294.829,113.912c-0.402,7.65-0.806,15.297-1.209,22.947c-0.017,0.326-0.067,0.707-0.353,0.865  c-0.179,0.099-0.398,0.074-0.603,0.046c-7.978-1.063-12.607,36.132-20.655,36.026c-8.521-0.112-20.464-37.469-28.931-36.51  c0.021-4.617,0.04-9.234,0.061-13.852c0.007-1.642-0.177-5.943-0.177-5.943s2.125-2.037,3.627-2.727  c5.153-2.369,10.367,5.972,15.775,4.258c2.895-0.917,4.468-4.467,7.45-5.042c4.19-0.809,6.909,4.575,10.984,5.839  c2.511,0.778,5.255-0.136,7.503-1.495C290.549,116.965,292.517,115.165,294.829,113.912z"/>
<linearGradient id="SVGID_1_-i1" gradientUnits="userSpaceOnUse" x1="1239.4564" y1="1675.4294" x2="2068.4932" y2="1675.4294" gradientTransform="matrix(0.2543 0 0 0.2543 -148.3943 -199.0443)">
	<stop offset="0" style="stop-color:#428DFC"/>
	<stop offset="1" style="stop-color:#1D72D8"/>
</linearGradient>
<path fill="url(#SVGID_1_-i1)" d="M273.152,166.322c6.946-11.588,13.891-23.176,20.838-34.764c15.049,3.374,29.637,8.795,43.235,16.067  c7.128,3.811,14.078,8.205,19.52,14.179c7.97,8.748,12.163,20.262,15.156,31.708c8.745,33.452,6.951,87.317-1.87,120.748  c-10.995-1.805-20.656-3.722-31.714-2.348c-12.435,1.547-27.438,4.425-39.937,3.522c-44.613-3.221-71.89-4.464-115.113,7.043  c-1.866-24.722-17.652-65.686-16.396-90.447c1.232-24.268,4.419-49.7,18.661-69.393c12.227-16.906,57.713-29.909,57.713-29.909  S265.691,157.143,273.152,166.322z"/>
<linearGradient id="SVGID_2_-i1" gradientUnits="userSpaceOnUse" x1="732.0312" y1="1467.5521" x2="1230.5876" y2="1467.5521" gradientTransform="matrix(0.2543 0 0 0.2543 -148.3943 -199.0443)">
	<stop offset="0" style="stop-color:#FFBEB6"/>
	<stop offset="1" style="stop-color:#F2A19C"/>
</linearGradient>
<path fill="url(#SVGID_2_-i1)" d="M115.775,115.663c-3.391-13.494-8.903-14.031-18.833-23.956c-1.604-1.603-3.34-4.121-5.136-2.737  c-1.753,4.939,10.615,13.346,11.694,24.888c-16.182-9.352-40.269-13.881-54.839-12.91c-5.136,0.342,3.767,4.448,15.409,6.161  c10.628,1.562,17.121,5.818,26.659,10.738c0.563,1.629-5.806-1.096-7.482-1.497c-15.891-3.811-27.052-6.844-43.975-8.124  c-4.992,0.594,3.614,9.081,8.191,10.861c11.377,4.422,24.138,7.734,35.515,12.156c-2.985,5.468-32.947-13.011-27.05-5.69  c10.483,11.778,26.436,18.479,42.189,17.719c2.597-0.124,5.292-0.427,7.724,0.488c2.858,1.076,5.528,3.868,6.342,6.81  c11.679,42.288,24.503,82.304,34.414,109.17c2.912-4.049,13.319-41.633,17.948-43.493c-8.949-24.223-25.403-36.893-34.043-61.228  c-3.767-10.609-8.528-18.46-11.642-26.351C118.188,126.98,115.147,113.959,115.775,115.663z"/>
<linearGradient id="SVGID_3_-i1" gradientUnits="userSpaceOnUse" x1="974.3223" y1="1717.0122" x2="1372.5189" y2="1717.0122" gradientTransform="matrix(0.2543 0 0 0.2543 -148.3943 -199.0443)">
	<stop offset="0" style="stop-color:#428DFC"/>
	<stop offset="1" style="stop-color:#1D72D8"/>
</linearGradient>
<path fill="url(#SVGID_3_-i1)" d="M132.006,150.203c19.82,30.483,22.348,43.031,41.068,76.797c9.696,17.49,23.952,40.99,27.395,60.687  c0.89,5.092-1.839,33.351-5.935,36.505c-3.241,2.496-11.971-1.513-15.313-3.872c-3.342-2.359-5.513-5.994-7.565-9.531  c-27.505-47.399-51.678-96.732-72.28-147.511C111.161,161.952,122.567,157.383,132.006,150.203z"/>
<circle fill="#D9E021" cx="324.399" cy="62.223" r="6.161"/>
<polygon fill="#E94A47" points="49.499,74.909 33.853,67.69 41.075,52.054 56.721,59.272 "/>
<polygon fill="#1D72D8" points="102.915,52.326 87.269,45.107 94.492,29.471 110.138,36.689 "/>
<g>
	<path fill="#23286B" d="M76.542,59.466c-0.226,0-0.448-0.111-0.578-0.315c-9.991-15.639-30.886-23.248-48.601-17.706   c-0.364,0.111-0.745-0.087-0.857-0.449c-0.112-0.361,0.087-0.744,0.45-0.859c18.286-5.725,39.853,2.136,50.165,18.276   c0.203,0.319,0.111,0.742-0.208,0.946C76.796,59.43,76.669,59.466,76.542,59.466z"/>
</g>
<g>
	<path fill="#23286B" d="M4.576,122.202c-0.015,0-0.029,0-0.044-0.001c-0.377-0.025-0.665-0.349-0.64-0.726   c0.876-13.757,13.246-26.032,27.015-26.807c0.38-0.036,0.702,0.267,0.722,0.645c0.022,0.376-0.268,0.701-0.645,0.722   c-13.111,0.739-24.891,12.428-25.726,25.525C5.236,121.925,4.935,122.202,4.576,122.202z"/>
</g>
<rect x="157.964" y="314.779" fill="#EEEEEE" width="231.524" height="11.221"/>
<g>
	<path fill="#23286B" d="M269.022,35.84c-0.367,0-0.671-0.292-0.683-0.66c-0.013-0.377,0.284-0.695,0.661-0.71   c9.078-0.314,17.429-8.217,18.231-17.26c0.033-0.375,0.381-0.641,0.743-0.621c0.377,0.033,0.656,0.367,0.621,0.742   c-0.876,9.866-9.644,18.168-19.547,18.509C269.039,35.84,269.03,35.84,269.022,35.84z"/>
</g>
<linearGradient id="SVGID_4_-i1" gradientUnits="userSpaceOnUse" x1="1343.7762" y1="1785.3802" x2="2115.1497" y2="1785.3802" gradientTransform="matrix(0.2543 0 0 0.2543 -148.3943 -199.0443)">
	<stop offset="0" style="stop-color:#D6D7D8"/>
	<stop offset="1" style="stop-color:#EEEEEE"/>
</linearGradient>
<rect x="193.328" y="183.956" fill="url(#SVGID_4_-i1)" width="196.16" height="142.044"/>
<rect x="277.698" y="245.587" fill="#FFFFFF" width="29.365" height="29.348"/>
<linearGradient id="SVGID_5_-i1" gradientUnits="userSpaceOnUse" x1="1970.3204" y1="1746.0508" x2="2156.4856" y2="1746.0508" gradientTransform="matrix(0.2543 0 0 0.2543 -148.3943 -199.0443)">
	<stop offset="0" style="stop-color:#FFBEB6"/>
	<stop offset="1" style="stop-color:#F2A19C"/>
</linearGradient>
<path fill="url(#SVGID_5_-i1)" d="M355.246,283.126c3.569,6.242,29.765-8.913,34.699-14.145c-0.148,6.988-10.502,11.865-11.43,14.532  c-0.815,2.34,4.849,0.57,6.932-0.774c10.236-6.604,14.805-20.652,14.543-32.922c-0.087-4.091-1.455-6.188-2.739-10.038  c-4.109-12.32-4.565-39.699-7.413-33.607c-3.057,8.091-5.81,21.825-1.719,29.044c-14.815,10.528-24.034,21.725-33.873,37.001  c-1.432,2.226-2.564,5.695-0.306,7.076c7.045-6.645,14.089-13.29,21.134-19.936c4.442-4.19,8.708-9.672,13.501-5.889  C382.227,260.849,353.421,279.931,355.246,283.126z"/>
<path id="texture_13_-i1" fill="#FFFFFF" d="M210.99,239.551c0.103,0.382,0.414,0.625,0.795,0.523l0,0  c0.382-0.103,0.626-0.413,0.524-0.795l0,0c-0.103-0.382-0.414-0.625-0.795-0.523l0,0  C211.131,238.859,210.887,239.169,210.99,239.551L210.99,239.551z M236.455,300.637c-0.244,0.311-0.141,0.693,0.17,0.937  c0.311,0.244,0.693,0.141,0.937-0.17l0,0c0.244-0.311,0.141-0.693-0.17-0.937C237.116,300.05,236.699,300.325,236.455,300.637  L236.455,300.637L236.455,300.637z M245.173,286.177c-0.244,0.311-0.141,0.693,0.17,0.937c0.311,0.244,0.693,0.141,0.937-0.17l0,0  c0.244-0.311,0.141-0.693-0.17-0.937l0,0C245.971,285.799,245.417,285.865,245.173,286.177L245.173,286.177z M215.569,271.141  c0.311,0.244,0.657,0.314,1.039,0.211c0.244-0.311,0.314-0.657,0.211-1.039c-0.311-0.244-0.657-0.314-0.867-0.177  C215.364,270.379,215.292,270.726,215.569,271.141z M229.335,261.135c0.311,0.244,0.657,0.314,1.039,0.211  c0.244-0.311,0.314-0.657,0.211-1.039c-0.311-0.244-0.657-0.314-0.867-0.177C229.129,260.372,229.024,260.891,229.335,261.135  L229.335,261.135z M270.256,304.802c-0.07,0.347,0.206,0.764,0.552,0.834c0.347,0.07,0.764-0.206,0.834-0.551l0,0  c0.07-0.347-0.206-0.764-0.552-0.834l0,0C270.742,304.179,270.327,304.455,270.256,304.802z M272.946,288.035  c-0.07,0.347,0.206,0.764,0.552,0.834c0.347,0.07,0.764-0.206,0.834-0.551c0.07-0.347-0.206-0.764-0.552-0.834l0,0  C273.434,287.412,273.016,287.689,272.946,288.035L272.946,288.035L272.946,288.035z M206.25,257.524  c0.138,0.208,0.624,0.487,0.867,0.177c0.208-0.138,0.488-0.623,0.177-0.867c-0.138-0.208-0.624-0.487-0.867-0.177l0,0  C206.044,256.761,205.973,257.107,206.25,257.524L206.25,257.524z M219.211,249.699c0.138,0.208,0.624,0.487,0.867,0.177  c0.208-0.138,0.452-0.449,0.177-0.867c-0.138-0.208-0.45-0.451-0.867-0.177l0,0C219.142,249.145,219.072,249.491,219.211,249.699  L219.211,249.699L219.211,249.699z M256.9,295.053c-0.07,0.347,0.033,0.728,0.38,0.798c0.347,0.07,0.555-0.067,0.798-0.379l0,0  c0.07-0.347-0.033-0.728-0.38-0.798l0,0C257.352,294.604,256.97,294.707,256.9,295.053L256.9,295.053z M260.589,280.473  c-0.07,0.347,0.033,0.728,0.38,0.798c0.347,0.07,0.555-0.067,0.798-0.379l0,0c0.07-0.347-0.033-0.728-0.38-0.798l0,0  C261.041,280.025,260.66,280.127,260.589,280.473L260.589,280.473z M231.373,274.174c-0.244,0.311-0.141,0.693,0.17,0.937  c0.311,0.244,0.693,0.141,0.937-0.17c0.244-0.311,0.141-0.693-0.17-0.937C232,273.76,231.617,273.863,231.373,274.174  L231.373,274.174z M198.539,271.467c-0.244,0.311-0.141,0.693,0.17,0.937c0.311,0.244,0.693,0.141,0.937-0.17  c0.244-0.311,0.141-0.693-0.17-0.937C199.165,271.054,198.783,271.157,198.539,271.467L198.539,271.467z M208.955,257.533  c-0.244,0.311-0.141,0.693,0.17,0.937c0.311,0.244,0.693,0.141,0.937-0.17s0.141-0.693-0.17-0.937  C209.581,257.119,209.199,257.222,208.955,257.533L208.955,257.533z M219.232,243.392c-0.244,0.311-0.141,0.693,0.17,0.937  c0.311,0.244,0.693,0.141,0.937-0.17c0.244-0.311,0.141-0.693-0.17-0.937C219.823,243.15,219.44,243.253,219.232,243.392z   M269.542,289.688c0.103,0.382,0.414,0.625,0.795,0.523c0.382-0.103,0.626-0.413,0.524-0.795c-0.103-0.382-0.414-0.625-0.795-0.523  C269.719,288.821,269.439,289.305,269.542,289.688L269.542,289.688z M209.906,220.936c-0.418,0.277-0.488,0.623-0.211,1.039   M233.02,279.378c-0.07,0.347,0.206,0.764,0.551,0.834c0.347,0.07,0.764-0.206,0.834-0.551s-0.206-0.764-0.551-0.834l0,0  C233.508,278.757,233.092,279.031,233.02,279.378L233.02,279.378L233.02,279.378z M221.09,279.478  c-0.07,0.347,0.206,0.764,0.551,0.834c0.347,0.07,0.764-0.206,0.834-0.551c0.07-0.347-0.033-0.728-0.551-0.834  C221.578,278.857,221.162,279.132,221.09,279.478L221.09,279.478z M225.931,262.788c-0.07,0.347,0.206,0.764,0.551,0.834  c0.347,0.07,0.728-0.033,0.834-0.551c0.07-0.347-0.206-0.764-0.517-1.008C226.419,262.165,226.001,262.441,225.931,262.788  L225.931,262.788z M204.431,240.744c-0.244,0.311-0.141,0.693,0.17,0.937l0,0c0.311,0.244,0.693,0.141,1.111-0.136  c0.244-0.311,0.141-0.693-0.136-1.111C205.057,240.329,204.675,240.431,204.431,240.744L204.431,240.744z M211.268,239.067  c-0.07,0.347,0.067,0.554,0.206,0.764c0.347,0.07,0.555-0.067,0.764-0.206c0.07-0.347-0.067-0.554-0.206-0.764l0,0  C211.686,238.792,211.304,238.894,211.268,239.067L211.268,239.067L211.268,239.067z"/>

</g>
</g>
</g>

<!-- ITEM 2 -->
<g transform="translate(1249.0 928.0) rotate(0.0 85.0 79.5) scale(0.6367041198501873 0.636)">
<g transform="translate(-0.0 -0.0)">
<g clip-path="url(#clipPathId-collage-item-2)">
		<defs>
			<clipPath id="clipPathId-collage-item-2">
				<rect x="0.0" y="0.0" width="267.0" height="250.0"/>
			</clipPath>
		</defs>

<g>
	
		<linearGradient id="SVGID_1_-i2" gradientUnits="userSpaceOnUse" x1="80.1014" y1="198.5527" x2="186.8997" y2="198.5527" gradientTransform="matrix(1 0 0 -1 0 252)">
		<stop offset="0" style="stop-color:#EFEFEF"/>
		<stop offset="0.5538" style="stop-color:#D7D8D9"/>
	</linearGradient>
	<path fill="url(#SVGID_1_-i2)" d="M133.501,106.895c-29.444,0-53.399-23.976-53.399-53.447S104.056,0,133.501,0   S186.9,23.976,186.9,53.447S162.945,106.895,133.501,106.895z M133.501,13.159c-22.196,0-40.253,18.073-40.253,40.29   s18.058,40.29,40.253,40.29s40.253-18.074,40.253-40.29S155.696,13.159,133.501,13.159z"/>
</g>
<linearGradient id="SVGID_2_-i2" gradientUnits="userSpaceOnUse" x1="0" y1="103.0444" x2="267" y2="103.0444" gradientTransform="matrix(1 0 0 -1 0 252)">
	<stop offset="0" style="stop-color:#EFEFEF"/>
	<stop offset="0.5538" style="stop-color:#D7D8D9"/>
</linearGradient>
<rect y="47.911" fill="url(#SVGID_2_-i2)" width="267" height="202.089"/>
<g>
	<path fill="#D7D8D9" d="M148.181,130.447c-20.91,0-43.282-3.501-66.884-10.488c-22.1-6.542-38.382-14.251-51.239-24.258   C13.746,83.006,2.919,65.752,0.355,48.365l1.083-0.16C3.963,65.315,14.64,82.312,30.73,94.836   c12.746,9.921,28.912,17.57,50.876,24.072c37.197,11.011,71.315,13.328,101.405,6.887c12.897-2.761,41.512-18.397,49.2-30.168   l0.918,0.6c-7.817,11.967-36.826,27.845-49.889,30.641C172.087,129.254,160.381,130.447,148.181,130.447z"/>
</g>
<rect x="118.021" y="114.262" fill="#EFEFEF" width="30.956" height="30.984"/>
<path id="texture-2_16_-i2" fill="#FFFFFF" d="M208.386,174.849c0.145-0.095,0.182-0.291,0.087-0.434  c-0.095-0.145-0.29-0.182-0.434-0.087c-0.145,0.095-0.182,0.291-0.087,0.434l0,0C208.047,174.906,208.242,174.947,208.386,174.849  L208.386,174.849z M225.847,147.901c0.173,0.036,0.343-0.077,0.378-0.25l0,0c0.037-0.158-0.06-0.316-0.217-0.353  c-0.012-0.003-0.027-0.007-0.041-0.007c-0.165-0.037-0.33,0.065-0.37,0.23C225.566,147.694,225.674,147.865,225.847,147.901  L225.847,147.901L225.847,147.901z M216.127,160.98c0.153,0.086,0.346,0.044,0.45-0.098c0.098-0.149,0.055-0.353-0.098-0.451  c-0.149-0.098-0.352-0.055-0.45,0.098C215.946,160.683,215.986,160.876,216.127,160.98z M241.468,194.235  c0.268,0.195,0.643,0.14,0.844-0.125c0.202-0.248,0.165-0.613-0.08-0.815c-0.009-0.008-0.016-0.014-0.025-0.019  c-0.268-0.195-0.643-0.14-0.844,0.125C241.162,193.659,241.208,194.033,241.468,194.235L241.468,194.235z M229.894,185.47  c0.271,0.195,0.646,0.134,0.84-0.137c0.192-0.265,0.137-0.635-0.124-0.832c-0.26-0.202-0.632-0.155-0.833,0.105l0,0  C229.586,184.882,229.638,185.257,229.894,185.47z M218.309,176.678c0.26,0.2,0.63,0.151,0.829-0.109  c0.003-0.005,0.008-0.011,0.012-0.016c0.202-0.248,0.165-0.613-0.08-0.815c-0.009-0.008-0.016-0.014-0.025-0.019  c-0.274-0.192-0.649-0.141-0.863,0.116C217.989,176.103,218.045,176.477,218.309,176.678z M214.489,209.612  c0.279-0.175,0.363-0.543,0.186-0.822c-0.174-0.279-0.542-0.363-0.822-0.186c-0.273,0.172-0.359,0.531-0.195,0.809  C213.835,209.691,214.204,209.779,214.489,209.612L214.489,209.612z M207.144,197.064c0.279-0.175,0.363-0.543,0.186-0.822  c-0.174-0.279-0.542-0.363-0.822-0.186c-0.273,0.172-0.359,0.531-0.195,0.809C206.488,197.143,206.858,197.233,207.144,197.064  L207.144,197.064z M247.964,165.606c0.323,0.077,0.649-0.117,0.73-0.442c0.085-0.314-0.102-0.635-0.414-0.719  c-0.002-0.001-0.004-0.001-0.004-0.001c-0.305-0.1-0.629,0.065-0.728,0.367c-0.004,0.014-0.009,0.029-0.014,0.045  C247.461,165.182,247.646,165.506,247.964,165.606z M233.902,161.923c0.324,0.072,0.65-0.115,0.748-0.431  c0.077-0.323-0.119-0.649-0.441-0.73c-0.319-0.082-0.645,0.11-0.727,0.428c-0.001,0.004-0.002,0.009-0.003,0.01  c-0.085,0.314,0.102,0.635,0.413,0.719C233.898,161.921,233.9,161.922,233.902,161.923z M219.862,158.248  c0.306,0.088,0.624-0.087,0.712-0.393c0.002-0.009,0.005-0.019,0.007-0.027c0.095-0.316-0.087-0.648-0.401-0.742  c-0.01-0.003-0.019-0.005-0.028-0.009c-0.323-0.082-0.652,0.114-0.733,0.435c-0.082,0.323,0.114,0.652,0.435,0.734  C219.857,158.247,219.859,158.247,219.862,158.248z M202.011,216.491c0.265-0.125,0.382-0.441,0.263-0.708  c-0.123-0.268-0.439-0.386-0.708-0.263c-0.268,0.122-0.386,0.44-0.263,0.708l0,0C201.428,216.493,201.743,216.61,202.011,216.491z   M238.534,176.304c0.287,0.093,0.594-0.054,0.703-0.334c0.101-0.269-0.035-0.567-0.302-0.668c-0.009-0.002-0.014-0.004-0.023-0.007  c-0.275-0.107-0.585,0.03-0.689,0.305c-0.001,0.004-0.002,0.005-0.003,0.01C238.128,175.885,238.263,176.189,238.534,176.304  L238.534,176.304z M226.386,171.833c0.276,0.096,0.577-0.049,0.675-0.323c0.101-0.269-0.035-0.567-0.302-0.668  c-0.009-0.002-0.014-0.004-0.023-0.007c-0.275-0.107-0.585,0.03-0.692,0.304c-0.001,0.004-0.002,0.005-0.003,0.01  C225.955,171.433,226.106,171.735,226.386,171.833L226.386,171.833z M214.19,167.366c0.275,0.107,0.585-0.03,0.692-0.304  c0.001-0.004,0.002-0.005,0.003-0.01c0.106-0.258-0.019-0.553-0.276-0.659c-0.015-0.007-0.033-0.012-0.048-0.018  c-0.275-0.107-0.585,0.03-0.692,0.304c-0.001,0.004-0.002,0.005-0.003,0.01C213.778,166.965,213.921,167.262,214.19,167.366  L214.19,167.366z M218.391,196.378c0.223,0.193,0.561,0.173,0.758-0.047c0.199-0.216,0.187-0.549-0.027-0.749  c-0.22-0.196-0.558-0.19-0.768,0.018C218.153,195.826,218.17,196.171,218.391,196.378L218.391,196.378z M208.855,187.576  c0.202,0.2,0.528,0.198,0.727-0.003c0.007-0.008,0.014-0.015,0.023-0.022c0.199-0.216,0.187-0.549-0.027-0.749  c-0.22-0.196-0.558-0.19-0.768,0.018C208.615,187.04,208.635,187.377,208.855,187.576L208.855,187.576z M236.231,150.016  c0.28-0.005,0.502-0.237,0.498-0.516c-0.001-0.012,0-0.023-0.001-0.032c-0.004-0.294-0.246-0.531-0.541-0.527  c-0.007,0-0.013,0-0.018,0.001c-0.292,0.025-0.516,0.275-0.506,0.57c0.009,0.291,0.254,0.518,0.546,0.508  C236.215,150.019,236.223,150.015,236.231,150.016L236.231,150.016z M223.267,150.557c0.297-0.014,0.53-0.262,0.526-0.56  c-0.02-0.299-0.278-0.527-0.577-0.507c-0.285,0.018-0.506,0.255-0.506,0.542c0.001,0.291,0.238,0.528,0.528,0.527  C223.247,150.56,223.258,150.559,223.267,150.557L223.267,150.557z M213.397,224.24c0.264,0.218,0.651,0.194,0.884-0.058  c0.229-0.253,0.211-0.644-0.039-0.874c-0.262-0.223-0.654-0.197-0.884,0.058C213.13,223.619,213.146,224.009,213.397,224.24  L213.397,224.24z M202.285,214.194c0.253,0.23,0.643,0.212,0.873-0.039c0.23-0.251,0.211-0.644-0.039-0.874  c-0.253-0.23-0.643-0.212-0.873,0.039C202.015,213.573,202.034,213.964,202.285,214.194L202.285,214.194z M234.924,164.949  c0.346-0.029,0.609-0.321,0.599-0.669c-0.028-0.344-0.333-0.6-0.677-0.569c-0.332,0.029-0.582,0.314-0.57,0.646  C234.3,164.696,234.585,164.957,234.924,164.949L234.924,164.949z M219.977,165.72c0.339-0.024,0.599-0.308,0.59-0.648  c-0.016-0.342-0.306-0.607-0.647-0.591c-0.342,0.016-0.607,0.306-0.59,0.648C219.35,165.468,219.638,165.731,219.977,165.72  L219.977,165.72z M223.069,195.375c0.324,0.098,0.672-0.07,0.8-0.384c0.102-0.325-0.072-0.67-0.393-0.781  c-0.314-0.12-0.666,0.037-0.785,0.354c-0.001,0.004-0.002,0.009-0.003,0.012C222.57,194.901,222.742,195.258,223.069,195.375  C223.067,195.374,223.069,195.375,223.069,195.375L223.069,195.375z M208.948,190.354c0.326,0.114,0.684-0.057,0.799-0.382  c0,0,0,0,0.001-0.002c0.111-0.315-0.057-0.661-0.372-0.77l0,0c-0.32-0.114-0.673,0.052-0.787,0.37  C208.472,189.886,208.635,190.235,208.948,190.354L208.948,190.354z M222.143,205.612c0.317,0.117,0.67-0.045,0.789-0.364  c0.118-0.319-0.045-0.671-0.364-0.789c-0.309-0.113-0.654,0.037-0.78,0.342C221.665,205.125,221.822,205.486,222.143,205.612  L222.143,205.612z M208.308,200.038c0.322,0.124,0.682-0.035,0.808-0.356c0.117-0.313-0.032-0.664-0.335-0.802  c-0.325-0.121-0.686,0.032-0.828,0.345C207.835,199.55,207.994,199.905,208.308,200.038L208.308,200.038z M220.429,174.445  c0.343-0.011,0.615-0.296,0.611-0.64c-0.007-0.338-0.283-0.607-0.62-0.601c-0.332-0.01-0.61,0.251-0.62,0.583  c-0.001,0.009-0.001,0.018,0.001,0.027c-0.007,0.342,0.266,0.625,0.609,0.629C220.416,174.446,220.422,174.446,220.429,174.445  L220.429,174.445z"/>

</g>
</g>
</g>

<!-- ITEM 3 -->
<g transform="translate(1092.0 470.0) rotate(0.0 88.0 308.0) scale(1.2307692307692308 1.232)">
<g transform="translate(-0.0 -0.0)">
<g clip-path="url(#clipPathId-collage-item-3)">
		<defs>
			<clipPath id="clipPathId-collage-item-3">
				<rect x="0.0" y="0.0" width="143.0" height="500.0"/>
			</clipPath>
		</defs>

<path fill="#E94A47" d="M12.955,167.529c1.334-5.344,3.617-10.397,5.888-15.419c1.114-2.464,2.23-4.927,3.345-7.391  c0.393-0.87,0.815-1.777,1.575-2.361c0.663-0.511,1.51-0.716,2.332-0.878c9.247-1.83,19.194,0.136,27.035,5.344  c-2.643,14.501-1.264,29.707,3.946,43.503c-13.993,5.913-29.041,9.343-44.226,10.082C11.559,189.461,10.286,178.228,12.955,167.529z  "/>
<path fill="#D62929" d="M43.901,473.833c8.439-1.606,35.64-0.908,35.64-0.908s7.236,16.254,7.151,26.957  c-12.586,0.017-25.173,0.033-37.759,0.051c-21.153,0.028-26.156,0.227-48.492-0.227c-0.475-4.994,9.539-14.164,27.798-18.446  C32.273,480.312,39.827,474.608,43.901,473.833z"/>
<path fill="#151A4F" d="M46.827,268.953c-3.68-15.807-7.543-32.032-17.027-45.453c-0.989-1.399-2.22-2.874-3.968-3.125  c-3.384-0.484-5.235,3.603-5.815,6.823c-15.186,84.324,19.64,161.055,23.881,246.521c11.048,0.681,24.948,1.022,35.997,0.681  c-3.011-17.706,4.758-22.249,3.921-40.171c-0.763-16.328-6.924-22.17-8.196-38.469c-1.352-17.313,4.659-22.544,0.713-39.491  C71.623,336.054,51.534,289.17,46.827,268.953z"/>
<path fill="#F2A19C" d="M47.373,26.525c0.747,1.098,1.361,2.285,1.826,3.529c-2.39,3.858-3.81,7.24-6.199,11.099  c-0.9,1.023-1.93,0.176-2.339-0.129c-0.65-0.484-0.154-1.492,0.333-2.138c1.18-1.566,2.111-3.317,2.747-5.17  c-0.653,0.213-1.009,0.888-1.368,1.469c-0.999,1.62-2.51,2.923-4.262,3.679c-0.576,0.248-1.352,0.394-1.744-0.093  c-0.416-0.517-0.044-1.268,0.32-1.823c1.883-2.87,3.461-5.937,4.697-9.137c0.093-0.241,0.19-0.491,0.378-0.67  c0.46-0.436,1.2-0.25,1.825-0.123c1.303,0.266,2.683,0.132,3.909-0.379C47.801,27.572,46.821,25.713,47.373,26.525z"/>
<path fill="#FFBEB6" d="M23.06,46.757c-2.28,21.418-2.314,43.073-0.105,64.499c-5.188-0.536-14.011,3.705-19.203,4.21  C4.3,98.824,9.466,77.959,12.079,61.513c1.679-10.565,3.946-21.453,10.323-30.067c3.188,0.964,6.318-1.353,9.466-2.438  c6.682-2.304,13.961,1.061,19.769,5.076c0.712,0.491,1.477,1.094,1.583,1.949c0.268,2.182-3.196,2.262-5.246,1.439  c-4.131-1.659-8.499-3.088-12.945-2.814c-4.447,0.275-9.009,2.596-10.798,6.653C23.48,43.019,23.257,44.902,23.06,46.757z"/>
<path fill="#FFBEB6" d="M22.41,31.398c2.365-1.939,5.314-2.997,8.199-4.022c2.294-0.815,4.59-1.628,6.883-2.443  c1.154-0.41,2.314-0.82,3.524-1.022c1.571-0.26,3.176-0.158,4.769-0.138c6.473,0.081,8.611-0.497,14.825-2.307  c0.857-0.25,6.067-0.823,6.941-0.64c0.874,0.184,1.657,0.574,1.511,1.451c-0.201,1.197-1.764,1.485-2.98,1.574  c-9.612,0.697-18.583,6.132-28.212,5.739c-0.768-0.031-1.548-0.099-2.295,0.079c-0.832,0.199-1.559,0.688-2.301,1.114  c-2.144,1.234-4.56,1.996-7.026,2.22C24.75,33.139,22.868,32.823,22.41,31.398z"/>
<path fill="#FFBEB6" d="M104.485,166.209c-11.588,10.831-24.225,16.39-39.634,20.295c-6.827,1.73-5.197,1.643-8.123-0.445  c-3.642-2.599-2.964-7.251-3.66-11.656c-1.197-7.591-2.348-15.624,0.552-22.746c1.6,9.011,4.195,19.737,9.998,26.84  c13.599-11.862,29.337-24.966,44.39-34.943c0.207,7.104,0.414,14.21,0.62,21.314C107.662,164.294,105.453,166.784,104.485,166.209z"/>
<path fill="#E94A47" d="M100.208,473.833c8.439-1.606,35.64-0.908,35.64-0.908s7.236,16.254,7.151,26.957  c-12.586,0.017-25.173,0.033-37.759,0.051c-21.153,0.028-26.156,0.227-48.492-0.227c-0.475-4.994,9.539-14.164,27.798-18.446  C88.582,480.312,96.136,474.608,100.208,473.833z"/>
<path fill="#428DFC" d="M98.526,146.342c-5.614-5.507-10.29-13.924-13.847-20.924c-6.237-12.268-12.625-26.27-8.099-39.258  c2.679-7.686,9.239-13.922,17.081-16.234c-0.585,12.1,3.587,23.876,7.839,35.229c6.039,16.129,11.514,28.71,18.113,44.621  c0.834,2.01,2.204,6.502,1.615,7.599c-2.556,4.767-5.027,8.384-9.24,9.289c-4.213,0.905-9.087,1.855-11.159,5.616  c-6.32-7.028-9.651-10.684-7.887-19.948C96.326,149.087,97.434,148.568,98.526,146.342z"/>
<linearGradient id="SVGID_1_-i3" gradientUnits="userSpaceOnUse" x1="1266.0404" y1="1351.4572" x2="1728.1527" y2="1351.4572" gradientTransform="matrix(0.1832 0 0 0.1832 -219.9789 -135.2867)">
	<stop offset="0" style="stop-color:#A1C3FC"/>
	<stop offset="1" style="stop-color:#81AEF2"/>
</linearGradient>
<path fill="url(#SVGID_1_-i3)" d="M91.843,84.746c-5.553,11.882-21.839,33.714-28.535,44.999  c-11.237,18.936-7.925,16.854-11.222,38.597c-13.388-0.933-28.436-2.938-40.126,2.489c7.014-31.78,14.499-52.249,22.453-71.899  s21.901-38.888,42.48-44.345c7.32-1.941,17.152-0.671,19.488,6.497C97.641,64.956,93.569,81.054,91.843,84.746z"/>
<path fill="#F2A19C" d="M76.686,56.029c3.208,4.431,12.652,4.254,14.613,1.418c-1.476-9.869,0.185-17.696,3.763-27.016  c-5.713,2.359-11.804,3.806-17.97,4.27C79.35,41.988,79.461,48.92,76.686,56.029z"/>
<path fill="#FFBEB6" d="M74.806,8.05c0.762,2.747-2.654,7.266-3.689,9.924c-2.374,6.088-1.566,14.214,4.091,17.53  c5.277,3.094,12.084,0.656,17.203-2.69c4.324-2.826,8.297-6.346,10.911-10.789c2.616-4.44,3.761-9.885,2.362-14.841  c-0.762-2.699-3.287-5.593-5.908-4.56c0.137-0.664-2.199-0.875-2.063-1.538C92.488,0.16,89.363,1.113,85.21,4.4  c-2.548,2.015-3.462,3.161-6.564,2.182c-1.451-0.459-3.586-1.428-4.027,0.023C74.474,7.075,74.674,7.574,74.806,8.05z"/>
<path fill="#23286B" d="M110.583,5.832c-5.228-4.651-9.088-4.772-16.07-5.443c-0.21,7.064-5.046,12.999-8.782,19.011  c-3.735,6.012-6.457,13.984-2.542,19.882c2.144,3.23,6.023,5.322,7.22,9.005c1.021,3.145-0.222,6.517-0.505,9.809  c-0.934,10.851,3.921,21.901,12.378,28.816c0.548-5.698,7.556-8.315,13.31-8.22c5.754,0.094,11.928,1.499,16.984-1.236  c5.351-2.896-0.85-8.102,3.433-12.41c3.456-3.477-3.256-14.575-13.984-19.387c-5.265-2.361-5.769-14.006-4.449-19.598  C119.675,17.168,114.61,9.415,110.583,5.832z"/>
<linearGradient id="SVGID_2_-i3" gradientUnits="userSpaceOnUse" x1="1261.0497" y1="2501.7358" x2="1960.7614" y2="2501.7358" gradientTransform="matrix(0.1832 0 0 0.1832 -219.9789 -135.2867)">
	<stop offset="0" style="stop-color:#23286B"/>
	<stop offset="1" style="stop-color:#151A4F"/>
</linearGradient>
<path fill="url(#SVGID_2_-i3)" d="M70.872,251.153c-1.437-4.256-2.931-13.926-2.443-18.374c0.307-2.804,1.612-5.421,2.148-8.194  c1.106-5.73-1.139-11.516-3.346-16.949c-4.831-11.899-9.662-23.799-14.493-35.698c-14.057,0.904-28.019,3.157-41.607,6.713  c-2.155,105.886,36.601,202.009,89,295.342c8.652,0.656,26.776-1.368,35.427-0.713c1.104,0.083,7.196-18.223,0.778-38.711  c-2.197-7.014-13.121-21.356-15.587-28.289c-3.408-9.574-5.953-27.905-7.014-37.966c-2.604-24.679-19.469-27.942-24.87-52.203  C86.46,305.303,75.687,265.413,70.872,251.153z"/>
<g>
	<path fill="#23286B" d="M93.343,87.654c-0.105,0-0.208-0.026-0.306-0.082c-2.335-1.358-4.378-3.11-6.068-5.208   c-2.316-2.871-3.665-6.061-3.901-9.228c-0.226-3.037,0.567-6.005,1.335-8.876c0.684-2.56,1.393-5.207,1.337-7.828   c-0.083-3.92-2.102-8.778-4.055-13.478c-0.751-1.809-1.461-3.515-2.066-5.173c-2.426-6.649-0.675-10.764,2.276-16.283   c1.158-2.167,2.895-4.362,4.735-6.688c3.08-3.893,6.265-7.918,6.682-11.885c0.033-0.33,0.327-0.579,0.665-0.536   c0.333,0.033,0.574,0.33,0.539,0.662c-0.453,4.314-3.748,8.479-6.935,12.506c-1.805,2.282-3.51,4.437-4.617,6.507   c-3.265,6.11-4.294,9.587-2.205,15.306c0.596,1.633,1.299,3.33,2.045,5.125c1.995,4.801,4.059,9.767,4.146,13.912   c0.06,2.793-0.671,5.523-1.377,8.163c-0.776,2.902-1.51,5.643-1.298,8.477c0.276,3.692,2.13,6.696,3.639,8.564   c1.599,1.983,3.528,3.638,5.736,4.921c0.289,0.169,0.385,0.536,0.217,0.824C93.754,87.547,93.55,87.654,93.343,87.654z"/>
</g>
<g>
	<path fill="#23286B" d="M82.589,10.947c-0.1,0-0.202-0.025-0.297-0.077c-2.244-1.255-3.13-3.587-3.003-5.222   c0.025-0.331,0.314-0.604,0.651-0.553c0.333,0.025,0.583,0.315,0.558,0.647c-0.083,1.055,0.485,3.013,2.389,4.078   c0.292,0.162,0.394,0.53,0.231,0.82C83.005,10.836,82.799,10.947,82.589,10.947z"/>
</g>
<path fill="#FFBEB6" d="M56.076,171.812c-1.267-1.085-2.197-2.5-3.346-3.71c-1.554-1.636-3.482-2.865-5.389-4.076  c-0.804-0.51-1.631-1.031-2.566-1.207c-0.475-0.089-1.015-0.07-1.375,0.252c-0.809,0.725-0.014,2.022,0.77,2.774  c2.214,2.125,4.429,4.252,6.643,6.377c1.385,1.331,2.505,2.079,3.484,3.728c0.702,1.184,1.138,3.218,1.813,4.419  c0.512,0.908,1.495,1.663,2.442,2.106c0.947,0.443,3.624-0.473,4.268-1.293c-1.345-2.332-2.161-4.691-3.784-6.843  C58.253,173.301,57.065,172.659,56.076,171.812z"/>
<path fill="#89B3F4" d="M76.847,63.013c-0.22-2.034-1.777-5.971-3.771-6.478c-5.665-1.438-16.094,1.498-20.565,9.205  c-8.118,13.995-21.203,33.215-28.648,43.986c-0.586-4.393-1.305-9.93-1.305-9.93s-7.083,1.838-7.837,1.952  c-5.355,0.816-9.951,1.587-14.524,1.08c-0.762,8.846,0.762,13.142,3.303,21.482c1.327,4.353,5.225,18.203,6.182,20.866  c3.219,1.626,12.942-0.367,22.606-10.916c4.61-5.033,29.257-38.23,33.591-44.658C70.213,83.176,77.875,72.56,76.847,63.013z"/>
<g>
	<path fill="#23286B" d="M70.728,70.969c-0.144,0-0.289-0.051-0.404-0.153c-0.249-0.223-0.271-0.602-0.048-0.85   c3.653-4.064,6.182-7.911,7.733-11.762c1.869-4.643,2.307-9.496,1.237-13.67c-0.358-1.391-0.897-2.779-1.416-4.12   c-0.777-2.004-1.582-4.078-1.841-6.279c-0.804-6.838,3.745-13.037,7.796-17.674l1.07-1.22c3.924-4.452,7.984-9.056,8.921-14.735   c0.053-0.328,0.361-0.559,0.696-0.496c0.33,0.054,0.553,0.364,0.499,0.692c-0.992,6.021-5.167,10.756-9.205,15.335l-1.067,1.215   c-3.887,4.449-8.255,10.373-7.506,16.744c0.241,2.049,0.982,3.959,1.767,5.983c0.533,1.375,1.085,2.795,1.46,4.255   c1.135,4.419,0.679,9.538-1.285,14.415c-1.604,3.984-4.206,7.946-7.955,12.117C71.059,70.901,70.894,70.969,70.728,70.969z"/>
</g>
<path id="texture-2_2_-i3" fill="#FFFFFF" d="M11.851,201.545c0.086-0.099,0.08-0.191-0.02-0.277s-0.193-0.079-0.278,0.02  c-0.086,0.099-0.08,0.191,0.02,0.277l0,0C11.672,201.651,11.759,201.552,11.851,201.545L11.851,201.545z M15.9,182.321  c0.093-0.006,0.179-0.106,0.174-0.198l0,0c-0.006-0.093-0.107-0.178-0.199-0.173l0,0c-0.093,0.006-0.179,0.106-0.174,0.198  C15.622,182.34,15.814,182.419,15.9,182.321L15.9,182.321L15.9,182.321z M13.219,191.886c0.093-0.006,0.185-0.014,0.272-0.112  c-0.006-0.093-0.014-0.184-0.113-0.271c-0.093,0.006-0.185,0.014-0.272,0.112C13.027,191.806,13.126,191.893,13.219,191.886z   M35.077,205.207c0.193,0.079,0.371-0.026,0.452-0.216c0.08-0.19-0.026-0.369-0.218-0.45l0,0c-0.193-0.079-0.371,0.026-0.452,0.216  C34.685,204.956,34.89,205.219,35.077,205.207L35.077,205.207z M26.507,202.838c0.193,0.079,0.371-0.026,0.452-0.216  c0.08-0.191-0.026-0.369-0.218-0.45c-0.193-0.079-0.371,0.026-0.452,0.216l0,0C26.209,202.58,26.313,202.758,26.507,202.838z   M17.93,200.375c0.193,0.079,0.371-0.026,0.452-0.216l0,0c0.08-0.191-0.026-0.369-0.218-0.45l0,0  c-0.193-0.079-0.371,0.026-0.452,0.216C17.631,200.117,17.738,200.296,17.93,200.375z M23.049,219.886  c0.08-0.191,0.067-0.376-0.039-0.555c-0.193-0.079-0.378-0.067-0.558,0.038c-0.08,0.191-0.067,0.376,0.032,0.461  C22.691,220.096,22.876,220.084,23.049,219.886L23.049,219.886z M16.035,214.436c0.08-0.191,0.067-0.376-0.039-0.555  c-0.193-0.079-0.378-0.067-0.558,0.038c-0.08,0.191-0.067,0.376,0.032,0.461C15.669,214.555,15.948,214.534,16.035,214.436  L16.035,214.436z M32.423,187.566c0.185-0.014,0.359-0.211,0.345-0.395c-0.014-0.184-0.212-0.357-0.398-0.343l0,0  c-0.185,0.014-0.359,0.211-0.345,0.395l0,0C32.038,187.408,32.238,187.58,32.423,187.566z M23.532,188.562  c0.185-0.014,0.359-0.211,0.345-0.395c-0.014-0.184-0.212-0.357-0.398-0.343c-0.185,0.014-0.359,0.211-0.345,0.395l0,0  C23.147,188.404,23.346,188.575,23.532,188.562L23.532,188.562z M14.733,189.551c0.185-0.014,0.359-0.211,0.345-0.395l0,0  c-0.014-0.184-0.212-0.357-0.398-0.343l0,0c-0.185,0.014-0.359,0.211-0.345,0.395C14.356,189.485,14.548,189.565,14.733,189.551  L14.733,189.551z M17.45,226.5c0.086-0.099,0.16-0.383-0.032-0.461c-0.099-0.085-0.385-0.159-0.463,0.032  c-0.086,0.099-0.16,0.383,0.032,0.461l0,0C17.093,226.71,17.279,226.697,17.45,226.5z M29.359,195.673  c0.185-0.014,0.364-0.118,0.352-0.304c-0.014-0.184-0.113-0.271-0.306-0.35l0,0c-0.185,0.014-0.364,0.118-0.352,0.304l0,0  C29.067,195.509,29.173,195.687,29.359,195.673L29.359,195.673z M21.437,195.859c0.185-0.014,0.364-0.118,0.352-0.304  c-0.014-0.184-0.113-0.271-0.306-0.35l0,0c-0.185,0.014-0.364,0.118-0.352,0.304l0,0C21.145,195.694,21.25,195.871,21.437,195.859  L21.437,195.859z M13.508,195.952c0.185-0.014,0.364-0.118,0.352-0.304l0,0c-0.014-0.184-0.113-0.271-0.306-0.35l0,0  c-0.185,0.014-0.364,0.118-0.352,0.304l0,0C13.224,195.878,13.323,195.963,13.508,195.952L13.508,195.952z M22.358,211.486  c0.193,0.079,0.371-0.026,0.452-0.216c0.08-0.191-0.026-0.369-0.218-0.45c-0.193-0.079-0.371,0.026-0.452,0.216  C22.061,211.227,22.173,211.497,22.358,211.486L22.358,211.486z M14.971,208.661c0.193,0.079,0.371-0.026,0.458-0.125l0,0  c0.08-0.191-0.026-0.369-0.218-0.45c-0.193-0.079-0.371,0.026-0.452,0.216C14.672,208.403,14.778,208.582,14.971,208.661  L14.971,208.661z M22.27,181.316c0.179-0.106,0.266-0.205,0.16-0.383l0,0c-0.107-0.178-0.298-0.258-0.385-0.159l0,0  c-0.179,0.106-0.259,0.297-0.153,0.475C21.893,181.25,22.085,181.329,22.27,181.316L22.27,181.316L22.27,181.316z M15.023,184.426  c0.179-0.106,0.259-0.297,0.153-0.474c-0.107-0.178-0.298-0.258-0.477-0.152c-0.179,0.106-0.259,0.297-0.16,0.383  C14.652,184.451,14.844,184.53,15.023,184.426C14.93,184.431,15.023,184.426,15.023,184.426L15.023,184.426z M25.616,228.433  c0.193,0.079,0.371-0.026,0.452-0.216c0.08-0.191-0.026-0.369-0.218-0.45c-0.193-0.079-0.371,0.026-0.452,0.216  C25.318,228.175,25.425,228.353,25.616,228.433L25.616,228.433z M17.08,225.225c0.193,0.079,0.371-0.026,0.452-0.216  c0.08-0.191-0.026-0.369-0.218-0.45c-0.193-0.079-0.371,0.026-0.452,0.216C16.776,224.876,16.888,225.146,17.08,225.225  L17.08,225.225z M24.852,190.048c0.179-0.106,0.259-0.297,0.153-0.474c-0.107-0.178-0.298-0.258-0.477-0.152  c-0.179,0.106-0.259,0.297-0.153,0.474C24.386,190.08,24.673,190.154,24.852,190.048L24.852,190.048z M16.436,193.796  c0.179-0.106,0.259-0.297,0.153-0.474c-0.107-0.178-0.298-0.258-0.477-0.152c-0.179,0.106-0.259,0.297-0.153,0.474  C16.058,193.729,16.257,193.901,16.436,193.796L16.436,193.796z M24.769,209.923c0.185-0.014,0.359-0.211,0.345-0.395  c-0.014-0.184-0.212-0.357-0.398-0.343c-0.185,0.014-0.359,0.211-0.345,0.395l0,0C24.384,209.763,24.583,209.936,24.769,209.923  L24.769,209.923L24.769,209.923z M15.639,210.193c0.185-0.014,0.359-0.211,0.345-0.395l0,0c-0.014-0.184-0.212-0.357-0.398-0.343  l0,0c-0.185,0.014-0.359,0.211-0.345,0.395C15.254,210.034,15.361,210.212,15.639,210.193L15.639,210.193z M26.503,215.93  c0.185-0.014,0.359-0.211,0.345-0.395c-0.014-0.184-0.212-0.357-0.398-0.343c-0.185,0.014-0.364,0.118-0.345,0.395  C26.118,215.771,26.316,215.941,26.503,215.93L26.503,215.93z M17.347,215.83c0.185-0.014,0.359-0.211,0.345-0.395  c-0.014-0.184-0.118-0.362-0.398-0.343c-0.185,0.014-0.359,0.211-0.438,0.403C16.963,215.671,17.162,215.842,17.347,215.83  L17.347,215.83z M18.647,198.654c0.179-0.106,0.259-0.297,0.246-0.482c-0.107-0.178-0.298-0.258-0.484-0.245  c-0.179,0.106-0.259,0.297-0.246,0.482l0,0C18.177,198.595,18.462,198.667,18.647,198.654L18.647,198.654L18.647,198.654z"/>

</g>
</g>
</g>

              </svg>