<svg height="512" viewBox="0 0 512 512" width="512" xmlns="http://www.w3.org/2000/svg"><g id="Flat"><path d="m488 408c0 40-16 48-32 48h-20.17v16h-179.95l.12-40s40 0 40-24c0-41.31006 30-55.96 51.27-65.44995 8.22-3.67005 15.13-6.57005 18.51-9.95005a6.47309 6.47309 0 0 0 2.22-4.6c0-14.52-32-16-32-48v-24c0-32 8-64 52-64s52 24 52 64v16c0 40-40 40-40 56 0 1.63.91 3.1 2.56 4.48 3.54 2.98 10.45 5.58008 18.88 8.65 26.05 9.49 66.56 23.45 66.56 66.87z" fill="#0e638b"/><path d="m421.44 341.13-37.44 74.87-36.73-73.44995c.77-.34009 1.53-.68 2.27-1.01 6.06-2.69006 11.23-5.01 14.55005-7.49a16.74838 16.74838 0 0 0 1.68995-1.45005l18.22 6.06992 18.56-6.18992a17.30813 17.30813 0 0 0 1.83 1.32007c3.49 2.24 8.84 4.32 15.17 6.63989.62.22996 1.24.45994 1.88.69004z" fill="#e7f2da"/><path d="m488 408c0 40-16 48-32 48h-20.17v16h-179.95l.12-40s40 0 40-24c0-37.83008 25.15-53.3 45.73-62.92993 4.25-1.99011 8.31-3.7301 11.91-5.37012l30.36 68.30005 30.81-69.33008c3.28 1.26 6.95 2.57007 10.86 4 25.98 9.5 62.33 24.20008 62.33 65.33008z" fill="#0e638b"/><path d="m298.27783 468.001a4.00069 4.00069 0 0 1 -1.792-7.57862c1.88281-.9414 3.74463-1.76757 5.54492-2.5664 13.00879-5.77246 24.24414-10.7583 24.24414-57.856a4 4 0 0 1 8 0c0 23.4458-2.73291 39.041-8.6001 49.07861-5.55419 9.50244-13.10107 12.85108-20.39941 16.08985-1.71777.7622-3.49365 1.55029-5.21143 2.40918a3.9856 3.9856 0 0 1 -1.78612.42338z" fill="#133852"/><rect fill="#a87c50" height="16" rx="8" width="464" x="24" y="472"/><path d="m442.5 456c19.66667 0 21.5-8 21.5-16s-8-24-24-24h-12a20 20 0 0 0 -20 20 20 20 0 0 0 20 20z" fill="#133852"/><path d="m280 432h-32c-8 0-17.3663 5.26169-19.99689 12.37582-6.20274 11.2192 5.83022 16.12418 11.83022 12.95751h40.29167v-25.33333" fill="#f5a971"/><path d="m260.35352 444.207a4.00545 4.00545 0 0 1 -3.88721-4.956 17.95489 17.95489 0 0 1 6.89941-10.47364 3.99987 3.99987 0 1 1 4.74121 6.44336 10.025 10.025 0 0 0 -3.87207 5.94043 4.00224 4.00224 0 0 1 -3.88134 3.04585z" fill="#e37066"/><path d="m264 440a32 32 0 0 1 32 32 0 0 0 0 1 0 0h-64a0 0 0 0 1 0 0 32 32 0 0 1 32-32z" fill="#537ec2"/><path d="m256.12158 472.00684c-.07959 0-.15918-.002-.23926-.00684a4.00014 4.00014 0 0 1 -3.75781-4.22852 71.519 71.519 0 0 1 6.25244-25.34765 4 4 0 1 1 7.28907 3.29687 63.53908 63.53908 0 0 0 -5.55518 22.52149 4.00057 4.00057 0 0 1 -3.98926 3.76465z" fill="#435e99"/><path d="m304 456c0 8-7.58 10.5498-15.67 10.66992-8.08.10987-6.5-8.5-3.66-10.66992a12.95482 12.95482 0 0 1 5.4-2.5498h.01a31.90906 31.90906 0 0 0 -7.1-7.2002l-.73 1.25c-7.25 11.5-20.08 6.33008-18.25-5.16992s16-10.33008 20-10.33008c12 0 20 12 20 24z" fill="#f5a971"/><rect fill="#537ec2" height="16" rx="8" width="184" x="296" y="456"/><rect fill="#435e99" height="16" rx="8" width="64" x="416" y="456"/><path d="m464 440c-16 0-16.38 3-21.75 13.37988-3.04 5.86035-10.62 5.1001-12.53-.52-6.33 4.97022-13.15 3.62012-14.09-1.90966-.33.35986-.67.71-1.01 1.0498-4.68 4.68018-11.15 3.14014-11.77-2.53027-3.8 9.11035-26.05 3.37011-1.83-22.31983 10.9-11.14992 22.98-11.14992 38.98-11.14992s24 16 24 24z" fill="#f5a971"/><path d="m415.86914 450.97559a4.0031 4.0031 0 0 1 -3.88476-4.9668c.99267-3.98926 3.53173-8.26074 7.54589-12.69434a4 4 0 0 1 5.93067 5.36914c-3.88623 4.292-5.252 7.40332-5.71289 9.25684a4.0022 4.0022 0 0 1 -3.87891 3.03516z" fill="#e37066"/><path d="m403.271 449.46484a4.00339 4.00339 0 0 1 -3.84375-5.11425 29.509 29.509 0 0 1 6.60644-11.00684 4 4 0 0 1 5.98145 5.3125c-3.2002 3.60254-4.43311 6.2959-4.9043 7.9209a4.00131 4.00131 0 0 1 -3.83984 2.88769z" fill="#e37066"/><path d="m429.3501 452.62109a4.077 4.077 0 0 1 -.49707-.03027 4.00021 4.00021 0 0 1 -3.47754-4.46191c.57324-4.62207 3.17383-9.59082 7.72949-14.77051a3.99982 3.99982 0 1 1 6.00684 5.2832c-4.32813 4.9209-5.54151 8.41113-5.79688 10.47168a4.00066 4.00066 0 0 1 -3.96484 3.50781z" fill="#e37066"/><rect fill="#537ec2" height="176" rx="16" width="240" x="32" y="256"/><circle cx="152" cy="344" fill="#e7f2da" r="16"/><path d="m141.76607 376h21.694a10.96027 10.96027 0 0 1 7.75007 3.21018 10.96026 10.96026 0 0 1 2.64774 11.216l-18.348 55.044a8 8 0 0 0 7.58953 10.52982h12.90059a8 8 0 0 1 8 8 8 8 0 0 1 -8 8h-43.35091a20.64909 20.64909 0 0 1 -20.64909-20.64909 20.64908 20.64908 0 0 1 1.05964-6.52982l21.117-63.35089a8 8 0 0 1 7.58943-5.4702z" fill="#435e99"/><path d="m144 468a3.98727 3.98727 0 0 1 -2.82861-1.17188 22.18649 22.18649 0 0 1 -5.38868-22.82617l20.42237-61.2666a4.00009 4.00009 0 1 1 7.58984 2.5293l-20.42236 61.2666a14.22923 14.22923 0 0 0 3.45605 14.64063 4.00025 4.00025 0 0 1 -2.82861 6.82812z" fill="#2a447d"/><path d="m368 48v160a24 24 0 0 1 -24 24h-153.16718a24 24 0 0 0 -21.46626 13.26687l-17.36656 34.73313-17.36656-34.73313a24 24 0 0 0 -21.46626-13.26687h-65.16718a24 24 0 0 1 -24-24v-160a24 24 0 0 1 24-24h296a24 24 0 0 1 24 24z" fill="#f3b73f"/><path d="m328 128a63.79962 63.79962 0 0 1 -18.74 45.26l-45.26-45.26v-64a63.99511 63.99511 0 0 1 64 64z" fill="#f57a08"/><path d="m264 64v64l-45.26-45.26a63.79916 63.79916 0 0 1 45.26-18.74z" fill="#537ec2"/><path d="m264 128-45.26 45.26a64.025 64.025 0 0 1 0-90.52z" fill="#d13913"/><path d="m309.26 173.26a64.025 64.025 0 0 1 -90.52 0l45.26-45.26z" fill="#b1cdb4"/><g fill="#03999c"><rect height="16" rx="8" width="128" x="64" y="160"/><rect height="48" rx="8" width="16" x="72" y="96"/><rect height="64" rx="8" width="16" x="104" y="80"/><rect height="32" rx="8" width="16" x="136" y="112"/><rect height="72" rx="8" width="16" x="168" y="72"/></g><path d="m440 256v16c0 40-40 40-40 56 0 2.15991 1.6 4.03 4.38 5.81006l-20.38 10.18994-19.91-9.95c2.47-1.85 3.91-3.79 3.91-6.05 0-14.52-32-16-32-48v-24c0-12.04 1.13-24.08008 4.89-34.41 6.23-17.14 19.66-29.59 47.11-29.59 44 0 52 24 52 64z" fill="#f5a971"/><path d="m432 416a4 4 0 0 1 0-8c4.17041 0 4.76172-1.42676 4.95605-1.896.8252-1.99218-.02783-5.8623-2.61279-8.44677a3.99992 3.99992 0 1 1 5.65625-5.65723c4.69434 4.69385 6.523 11.9126 4.34766 17.16553-1.29151 3.11767-4.48194 6.83447-12.34717 6.83447z" fill="#133852"/><path d="m364.09 334.05005 19.91 9.94995-16 16-18.46-18.46c6.06-2.69 11.23-5.01 14.55-7.48995z" fill="#b1cdb4"/><path d="m419.56 340.43994-19.56 19.56006-16-16 20.39-10.2c3.49 2.24 8.84 4.32 15.17 6.63994z" fill="#b1cdb4"/><path d="m376 352 4 8h8l4-8-8-8z" fill="#e34e03"/><path d="m398 400-14 16-14-16 10-40h8z" fill="#e34e03"/><path d="m390 368h-12l2-8h8z" fill="#ab2f10"/><path d="m432 368-16 8v16l-32 32-32-32v-16l-16-8 5.73-22.92993c4.25-1.99011 8.31-3.7301 11.91-5.37012l30.36 68.30005 30.81-69.33008c3.28 1.26 6.95 2.57007 10.86 4z" fill="#0a4b69"/><circle cx="352" cy="264" fill="#0a4b69" r="4"/><circle cx="392" cy="264" fill="#0a4b69" r="4"/><path d="m346.60555 256h13.0699a2.32455 2.32455 0 0 0 2.32455-2.32455 2.32454 2.32454 0 0 0 -1.58946-2.20526l-8.5546-2.85153a4 4 0 0 0 -3.48371.46653l-3.212 2.14132a2.60554 2.60554 0 0 0 -1.16023 2.16794 2.60554 2.60554 0 0 0 2.60555 2.60555z" fill="#f57a08"/><path d="m397.39445 256h-13.0699a2.32455 2.32455 0 0 1 -2.32455-2.32455 2.32454 2.32454 0 0 1 1.58946-2.20526l8.5546-2.85153a4 4 0 0 1 3.48371.46653l3.212 2.14132a2.60554 2.60554 0 0 1 1.16023 2.16794 2.60554 2.60554 0 0 1 -2.60555 2.60555z" fill="#f57a08"/><path d="m368 284h-2a10 10 0 0 1 0-20h2a4 4 0 0 1 0 8h-2a2 2 0 0 0 0 4h2a4 4 0 0 1 0 8z" fill="#e37066"/><path d="m368 296h16c12 0 0 12-8 12s-17.41667-12-8-12z" fill="#ba5457"/><path d="m440 256c0-6-3-8-6-8s-6 2-6 8c0 8-12 7.95-12 0v-28c0-12-16-12.04-16 0 0 8.77-11.73 12-24 12s-24-2.88-24-12c0-7.59009-6.4-10.45-11.11-6.41 6.23-17.14 19.66-29.59 47.11-29.59 44 0 52 24 52 64z" fill="#f57a08"/><path d="m440 256v16c0 40-40 40-40 56 0-16 16-16 20.81-47.23l4.64-2.12012a24.9016 24.9016 0 0 0 14.55-22.64988z" fill="#f57a08"/><path d="m380 408h8v48h-8z" fill="#0a4b69"/></g></svg>